<?xml version="1.0" encoding="UTF-8" standalone="no"?>
<svg width="100px" height="100px" viewBox="0 0 100 100" version="1.1" xmlns="http://www.w3.org/2000/svg" xmlns:xlink="http://www.w3.org/1999/xlink" xmlns:sketch="http://www.bohemiancoding.com/sketch/ns">
    <!-- Generator: Sketch 3.3.2 (12043) - http://www.bohemiancoding.com/sketch -->
    <title>Rectangle 87 + Shape Copy</title>
    <desc>Created with Sketch.</desc>
    <defs></defs>
    <g id="Page-1" stroke="none" stroke-width="1" fill="none" fill-rule="evenodd" sketch:type="MSPage">
        <g id="员工--进行中" sketch:type="MSArtboardGroup" transform="translate(-52.000000, -851.000000)">
            <g id="Rectangle-87-+-Shape-Copy" sketch:type="MSLayerGroup" transform="translate(52.000000, 851.000000)">
                <rect id="Rectangle-87" fill="#88C057" sketch:type="MSShapeGroup" x="0" y="0" width="100" height="100"></rect>
                <path d="M56.70625,56.74375 C55.9,56.45625 54.74375,56.35625 54.00625,56.19375 C53.58125,56.1 52.9625,55.8625 52.75625,55.61875 C52.55,55.36875 52.675,53.0625 52.675,53.0625 C52.675,53.0625 53.05625,52.4625 53.2625,51.9375 C53.46875,51.4125 53.69375,49.975 53.69375,49.975 C53.69375,49.975 54.11875,49.975 54.26875,49.23125 C54.43125,48.41875 54.68125,48.08125 54.65,47.475 C54.61875,46.9125 54.325,46.88125 54.29375,46.88125 L54.29375,46.88125 C54.29375,46.88125 54.6,46.03125 54.64375,44.23125 C54.69375,42.1 53.0625,40 50,40 C46.9375,40 45.3125,42.09375 45.35625,44.225 C45.39375,46.01875 45.70625,46.875 45.70625,46.875 L45.70625,46.875 C45.675,46.875 45.38125,46.90625 45.35,47.46875 C45.31875,48.075 45.575,48.4 45.73125,49.2125 C45.88125,49.95625 46.30625,49.9625 46.30625,49.9625 C46.30625,49.9625 46.53125,51.40625 46.7375,51.93125 C46.94375,52.4625 47.325,53.05625 47.325,53.05625 C47.325,53.05625 47.45,55.3625 47.24375,55.6125 C47.0375,55.8625 46.41875,56.09375 45.99375,56.1875 C45.25,56.35 44.1,56.45625 43.29375,56.74375 C42.4875,57.03125 40,58 40,60 L50,60 L60,60 C60,58 57.5125,57.03125 56.70625,56.74375 L56.70625,56.74375 Z" id="Shape-Copy" fill="#FFFFFF" sketch:type="MSShapeGroup"></path>
            </g>
        </g>
    </g>
</svg>