<?xml version="1.0" encoding="UTF-8" standalone="no"?>
<svg width="250px" height="247px" viewBox="0 0 250 247" version="1.1" xmlns="http://www.w3.org/2000/svg" xmlns:xlink="http://www.w3.org/1999/xlink" xmlns:sketch="http://www.bohemiancoding.com/sketch/ns">
    <!-- Generator: Sketch 3.3 (11970) - http://www.bohemiancoding.com/sketch -->
    <title>invitation-icon</title>
    <desc>Created with Sketch.</desc>
    <defs></defs>
    <g id="Page-1" stroke="none" stroke-width="1" fill="none" fill-rule="evenodd" sketch:type="MSPage">
        <g id="邀请函" sketch:type="MSArtboardGroup" transform="translate(-195.000000, -281.000000)" fill="#FFFFFF">
            <g id="invitation-icon" sketch:type="MSLayerGroup" transform="translate(195.000000, 281.320988)">
                <path d="M247.28035,106.636831 C246.358539,106.021091 235.981481,98.936214 221.71965,89.1944444 L221.71965,101.283436 C229.630658,106.675926 234.954218,110.287551 235.646091,110.722222 C238.984053,112.809671 235.586934,113.741255 235.586934,113.741255 L132.116255,154.752058 L234.927984,224.98714 C236.340021,225.958848 236.705761,227.881173 235.741255,229.296811 C234.763374,230.712449 232.841049,231.070988 231.427984,230.106481 L143.494342,170.037551 L143.494342,170.132716 L125.071502,157.549897 L124.962449,157.596193 L124.850823,157.543724 L106.427984,170.132716 L106.427984,170.037551 L18.4933128,230.106481 C17.0812757,231.070988 15.1584362,230.712449 14.1841564,229.296811 C13.2191358,227.881173 13.5812757,225.958848 14.9938272,224.98714 L117.805556,154.752058 L14.3353909,113.737654 C14.3353909,113.737654 10.9377572,112.809671 14.2731481,110.718621 C14.970679,110.284465 20.2911523,106.67284 28.2052469,101.28035 L28.2052469,89.191358 C13.9403292,98.9331276 3.56687243,106.018004 2.64506173,106.63323 C-0.555041152,108.773148 0.277777778,111.999486 0.277777778,111.999486 L0.277777778,233.214506 C0.277777778,240.338992 6.05555556,246.119856 13.1831276,246.119856 L236.738683,246.119856 C243.869342,246.119856 249.644033,240.338992 249.644033,233.214506 L249.644033,112.002572 C249.644033,112.002572 250.483539,108.776235 247.28035,106.636831" id="Fill-1" sketch:type="MSShapeGroup"></path>
                <path d="M67.5498971,92.2268519 L181.245885,92.2268519 C185.136831,92.2268519 188.277778,89.0828189 188.277778,85.1944444 C188.277778,81.3065844 185.136831,78.1625514 181.245885,78.1625514 L67.5498971,78.1625514 C63.662037,78.1625514 60.5216049,81.3065844 60.5216049,85.1944444 C60.5216049,89.0828189 63.662037,92.2268519 67.5498971,92.2268519" id="Fill-2" sketch:type="MSShapeGroup"></path>
                <path d="M60.5180041,55.8713992 C60.5180041,59.7690329 63.662037,62.9032922 67.5468107,62.9032922 L135.441872,62.9032922 C135.342593,62.1064815 135.198045,61.3199588 135.198045,60.4933128 L135.198045,48.8389918 L67.5498971,48.8389918 C63.662037,48.8425926 60.5180041,51.9830247 60.5180041,55.8713992" id="Fill-3" sketch:type="MSShapeGroup"></path>
                <path d="M34.6450617,77.0036008 L34.6450617,104.684156 L34.6121399,104.704218 L34.6121399,114.853909 L47.5236626,119.972737 L47.5236626,13.1846708 L150.779835,13.1846708 L150.779835,51.9140947 C150.779835,59.0380658 156.54784,64.8194444 163.685185,64.8194444 L202.404835,64.8194444 L202.404835,119.970165 L215.312757,114.853909 L215.312757,104.704218 L215.283436,104.684156 L215.283436,77.0036008 L215.312757,77.0231481 L215.312757,51.9110082 L163.685185,0.279320988 L47.5205761,0.279320988 C40.3960905,0.279320988 34.6085391,6.05709877 34.6085391,13.1846708 L34.6085391,77.026749 L34.6450617,77.0036008 L34.6450617,77.0036008 Z M163.685185,18.5313786 L197.061214,51.9140947 L163.685185,51.9140947 L163.685185,18.5313786 L163.685185,18.5313786 Z" id="Fill-4" sketch:type="MSShapeGroup"></path>
                <path d="M67.5498971,121.550412 L181.245885,121.550412 C185.136831,121.550412 188.277778,118.406379 188.277778,114.518004 C188.277778,110.62963 185.136831,107.486111 181.245885,107.486111 L67.5498971,107.486111 C63.662037,107.486111 60.5216049,110.62963 60.5216049,114.518004 C60.5216049,118.406379 63.662037,121.550412 67.5498971,121.550412" id="Fill-5" sketch:type="MSShapeGroup"></path>
            </g>
        </g>
    </g>
</svg>