<?xml version="1.0" encoding="UTF-8" standalone="no"?>
<svg width="25px" height="25px" viewBox="0 0 25 25" version="1.1" xmlns="http://www.w3.org/2000/svg" xmlns:xlink="http://www.w3.org/1999/xlink" xmlns:sketch="http://www.bohemiancoding.com/sketch/ns">
    <!-- Generator: Sketch 3.3 (11970) - http://www.bohemiancoding.com/sketch -->
    <title>Fill 2</title>
    <desc>Created with Sketch.</desc>
    <defs></defs>
    <g id="Page-1" stroke="none" stroke-width="1" fill="none" fill-rule="evenodd" sketch:type="MSPage">
        <g id="申请成为访客" sketch:type="MSArtboardGroup" transform="translate(-588.000000, -1011.000000)" fill="#546979">
            <g id="INPUTS" sketch:type="MSLayerGroup" transform="translate(27.000000, 511.000000)">
                <g id="到达时间" transform="translate(2.500000, 500.000000)" sketch:type="MSShapeGroup">
                    <path d="M570.997818,0.5 C577.625091,0.5 582.997818,5.87381818 582.997818,12.5010909 C582.997818,19.1305455 577.625091,24.5032727 570.997818,24.5032727 C564.371636,24.5032727 559,19.1305455 559,12.5010909 C559,5.87381818 564.371636,0.5 570.997818,0.5 L570.997818,0.5 L570.997818,0.5 Z M579.886545,12.5010909 C579.886545,7.592 575.906909,3.61345455 570.997818,3.61345455 C566.090909,3.61345455 562.111273,7.592 562.111273,12.5010909 C562.111273,17.4112727 566.090909,21.392 570.997818,21.392 C575.906909,21.392 579.886545,17.4112727 579.886545,12.5010909 L579.886545,12.5010909 Z M578.113818,12.596 C578.113818,13.1152727 577.72,13.5352727 577.212727,13.5909091 L570.422909,13.5909091 C570.145818,13.5690909 569.926545,13.3421818 569.909091,13.0618182 L569.909091,13.0476364 L569.909091,7.76545455 C569.928727,7.22 570.372727,6.78581818 570.923636,6.78581818 C571.483273,6.78581818 571.937091,7.23963636 571.937091,7.79927273 L571.937091,11.0032727 C571.937091,11.012 571.934909,11.0218182 571.934909,11.0316364 C571.934909,11.0414545 571.937091,11.0512727 571.937091,11.0578182 L571.937091,11.0654545 C571.951273,11.3403636 572.166182,11.5552727 572.436727,11.5825455 L577.172364,11.5869091 C577.698182,11.6229091 578.113818,12.0603636 578.113818,12.596 L578.113818,12.596 Z" id="Fill-2"></path>
                </g>
            </g>
        </g>
    </g>
</svg>