<?xml version="1.0" encoding="UTF-8" standalone="no"?>
<svg width="27px" height="24px" viewBox="0 0 27 24" version="1.1" xmlns="http://www.w3.org/2000/svg" xmlns:xlink="http://www.w3.org/1999/xlink" xmlns:sketch="http://www.bohemiancoding.com/sketch/ns">
    <!-- Generator: Sketch 3.3 (11970) - http://www.bohemiancoding.com/sketch -->
    <title>Imported Layers</title>
    <desc>Created with Sketch.</desc>
    <defs></defs>
    <g id="Page-1" stroke="none" stroke-width="1" fill="none" fill-rule="evenodd" sketch:type="MSPage">
        <g id="申请成为访客" sketch:type="MSArtboardGroup" transform="translate(-584.000000, -911.000000)" fill="#546979">
            <g id="INPUTS" sketch:type="MSLayerGroup" transform="translate(27.000000, 511.000000)">
                <g id="到访日期" transform="translate(2.500000, 399.000000)" sketch:type="MSShapeGroup">
                    <path d="M576.989629,3.50364566 L575.648041,3.50364566 L575.648041,2.24607836 C575.648041,1.55788756 575.027884,1 574.339693,1 C573.651503,1 573.031346,1.55788756 573.031346,2.24607836 L573.031346,3.50364566 L563.087905,3.50364566 L563.087905,2.24607836 C563.087905,1.55788756 562.467748,1 561.779557,1 C561.091366,1 560.47121,1.55788756 560.47121,2.24607836 L560.47121,3.50364566 L559.129622,3.50364566 C556.839482,3.50364566 554.97615,5.14770698 554.97615,7.43813288 L554.97615,20.729063 C554.97615,23.0194889 556.839482,24.9605451 559.129622,24.9605451 L576.989629,24.9605451 C579.280014,24.9605451 581.143101,23.0194889 581.143101,20.729063 L581.143101,7.43813288 C581.143101,5.14770698 579.280014,3.50364566 576.989629,3.50364566 L576.989629,3.50364566 Z M559.129622,5.85867121 L560.47121,5.85867121 L560.47121,6.81507325 C560.47121,7.50326405 561.091366,8.06115162 561.779557,8.06115162 C562.467748,8.06115162 563.087905,7.50326405 563.087905,6.81507325 L563.087905,5.85867121 L573.031346,5.85867121 L573.031346,6.81507325 C573.031346,7.50326405 573.651503,8.06115162 574.339693,8.06115162 C575.027884,8.06115162 575.648041,7.50326405 575.648041,6.81507325 L575.648041,5.85867121 L576.989629,5.85867121 C577.905717,5.85867121 578.526405,6.52200341 578.526405,7.43813288 L578.526405,9.52204429 L557.592845,9.52204429 L557.592845,7.43813288 C557.592845,6.52200341 558.213533,5.85867121 559.129622,5.85867121 L559.129622,5.85867121 Z M576.989629,22.6055196 L559.129622,22.6055196 C558.213533,22.6055196 557.592845,21.6451925 557.592845,20.729063 L557.592845,12.1387394 L578.526405,12.1387394 L578.526405,20.729063 C578.526405,21.6451925 577.905717,22.6055196 576.989629,22.6055196 L576.989629,22.6055196 Z" id="Imported-Layers"></path>
                </g>
            </g>
        </g>
    </g>
</svg>