<?xml version="1.0" encoding="UTF-8" standalone="no"?>
<svg width="23px" height="31px" viewBox="0 0 23 31" version="1.1" xmlns="http://www.w3.org/2000/svg" xmlns:xlink="http://www.w3.org/1999/xlink" xmlns:sketch="http://www.bohemiancoding.com/sketch/ns">
    <!-- Generator: Sketch 3.3 (11970) - http://www.bohemiancoding.com/sketch -->
    <title>START</title>
    <desc>Created with Sketch.</desc>
    <defs></defs>
    <g id="Page-1" stroke="none" stroke-width="1" fill="none" fill-rule="evenodd" sketch:type="MSPage">
        <g id="员工--门禁卡" sketch:type="MSArtboardGroup" transform="translate(-115.000000, -871.000000)" fill="#38454F">
            <g id="Card" sketch:type="MSLayerGroup" transform="translate(60.000000, 216.000000)">
                <g id="location" transform="translate(55.000000, 654.000000)" sketch:type="MSShapeGroup">
                    <path d="M23,13.1175219 C23,6.76711195 17.8519407,1.61764706 11.4993101,1.61764706 C5.14805927,1.61764706 0,6.76711195 0,13.1175219 C0,13.9617642 0.0896874438,14.7825935 0.262163297,15.5745011 L0.253884456,15.5758783 C1.65162877,21.8629356 5.30535725,27.29611 10.3237147,30.9870878 C10.6534885,31.2349893 11.0660508,31.3823529 11.5117284,31.3823529 C11.8677185,31.3823529 12.2030116,31.287324 12.492771,31.1220564 C12.6183334,31.0311592 12.742516,30.9388847 12.8653189,30.8479875 C17.7443158,27.1914405 21.3097366,21.871199 22.7130002,15.7149786 L22.7047213,15.7136014 C22.8992741,14.8789997 23,14.0099672 23,13.1175219 L23,13.1175219 Z M11.49938,8.38235294 C14.1159756,8.38235294 16.2352941,10.5030219 16.2352941,13.118885 C16.2352941,15.7335102 14.1159756,17.8529412 11.49938,17.8529412 C8.88526446,17.8529412 6.76470588,15.7335102 6.76470588,13.118885 C6.76470588,10.5030219 8.88526446,8.38235294 11.49938,8.38235294 L11.49938,8.38235294 Z" id="START"></path>
                </g>
            </g>
        </g>
    </g>
</svg>