<?xml version="1.0" encoding="utf-8"?>
<!-- Generator: Adobe Illustrator 16.0.0, SVG Export Plug-In . SVG Version: 6.00 Build 0)  -->
<!DOCTYPE svg PUBLIC "-//W3C//DTD SVG 1.1//EN" "http://www.w3.org/Graphics/SVG/1.1/DTD/svg11.dtd">
<svg version="1.1" id="图层_1" xmlns:sketch="http://www.bohemiancoding.com/sketch/ns"
	 xmlns="http://www.w3.org/2000/svg" xmlns:xlink="http://www.w3.org/1999/xlink" x="0px" y="0px" width="88px" height="88px"
	 viewBox="-29 -33 88 88" enable-background="new -29 -33 88 88" xml:space="preserve">
<title>Fill 1 + Rectangle 84</title>
<desc>Created with Sketch.</desc>
<g id="Page-1" sketch:type="MSPage">
	<g id="邀请函" transform="translate(-581.000000, -73.000000)" sketch:type="MSArtboardGroup">
		<g id="HEAD" transform="translate(35.000000, 40.000000)" sketch:type="MSLayerGroup">
			<g id="Fill-1-_x2B_-Rectangle-84" transform="translate(517.000000, 0.000000)" sketch:type="MSShapeGroup">
				<path id="Fill-1" fill="#FFFFFF" d="M29.262,51.12c2.27-4.731,6.904-11.018,15.668-11.801c1.02-0.101,1.819-0.928,1.854-1.942
					c0-0.023,0-0.047,0-0.07s0-0.046,0-0.069v-2.825l0,0c0-0.498,0.412-0.9,0.92-0.9c0.221,0,0.424,0.078,0.582,0.205
					c0.012,0.01,0.021,0.019,0.033,0.029l9.756,8.541c0,0,0.002,0,0.004,0.004l0.12,0.105c0.39,0.368,0.632,0.883,0.632,1.456
					c0,0.501-0.188,0.961-0.497,1.313l-0.354,0.323l-9.628,8.738c-0.014,0.013-0.025,0.026-0.039,0.036
					c-0.163,0.142-0.376,0.227-0.609,0.227c-0.508,0-0.92-0.4-0.92-0.898l0,0v-3.533c0-0.025,0-0.047,0-0.07
					c0-0.022,0-0.046,0-0.068c-0.037-1.086-0.947-1.955-2.062-1.955v-0.002c-5.631,0.111-10.231,0.812-13.912,4.107c0,0,0,0-0.001,0
					c-0.069,0.062-0.138,0.123-0.205,0.186l-0.001,0.002c-0.147,0.098-0.324,0.154-0.514,0.154c-0.506,0-0.917-0.402-0.917-0.899
					C29.17,51.371,29.202,51.238,29.262,51.12"/>
				<rect id="Rectangle-84" fill="none" width="88" height="88"/>
			</g>
		</g>
	</g>
</g>
</svg>
