<?xml version="1.0" encoding="utf-8"?>
<!-- Generator: Adobe Illustrator 16.0.0, SVG Export Plug-In . SVG Version: 6.00 Build 0)  -->
<!DOCTYPE svg PUBLIC "-//W3C//DTD SVG 1.1//EN" "http://www.w3.org/Graphics/SVG/1.1/DTD/svg11.dtd">
<svg version="1.1" id="图层_1" xmlns:sketch="http://www.bohemiancoding.com/sketch/ns"
	 xmlns="http://www.w3.org/2000/svg" xmlns:xlink="http://www.w3.org/1999/xlink" x="0px" y="0px" width="200px" height="180px"
	 viewBox="0 0 200 180" enable-background="new 0 0 200 180" xml:space="preserve">
<title>Imported Layers</title>
<desc>Created with Sketch.</desc>
<g id="Page-1" sketch:type="MSPage">
	<g id="员工--无动态" transform="translate(-220.000000, -635.000000)" sketch:type="MSArtboardGroup">
		<path id="Imported-Layers" sketch:type="MSShapeGroup" fill="#A6AFB6" d="M417.383,680.856l-21.931-35.888
			c-3.987-5.981-9.97-9.969-16.947-9.969H260.873c-6.979,0-12.959,3.987-16.947,9.969l-21.932,35.888
			c-0.997,1.994-1.994,5.981-1.994,8.972v104.673c0,10.965,8.972,19.938,19.938,19.938h159.501c10.966,0,19.938-8.973,19.938-19.938
			V689.829C419.377,686.838,418.381,682.851,417.383,680.856L417.383,680.856z M349.596,724.72h-59.813
			c-5.981,0-9.969-3.988-9.969-9.969c0-5.981,3.987-9.969,9.969-9.969h59.813c5.98,0,9.969,3.988,9.969,9.969
			C359.564,720.732,355.576,724.72,349.596,724.72L349.596,724.72z M241.932,684.844l16.947-29.907h121.619l16.947,29.907H241.932
			L241.932,684.844z"/>
	</g>
</g>
</svg>
