<?xml version="1.0" encoding="UTF-8" standalone="no"?>
<svg width="32px" height="33px" viewBox="0 0 32 33" version="1.1" xmlns="http://www.w3.org/2000/svg" xmlns:xlink="http://www.w3.org/1999/xlink" xmlns:sketch="http://www.bohemiancoding.com/sketch/ns">
    <!-- Generator: Sketch 3.3.2 (12043) - http://www.bohemiancoding.com/sketch -->
    <title>icon copy 2</title>
    <desc>Created with Sketch.</desc>
    <defs></defs>
    <g id="Page-1" stroke="none" stroke-width="1" fill="none" fill-rule="evenodd" sketch:type="MSPage">
        <g id="setting" sketch:type="MSLayerGroup" transform="translate(-18.000000, -18.000000)" fill="#47A0DB">
            <path d="M48.7301889,35.338326 C48.7301889,35.338326 48.7311316,35.3373833 48.733017,35.335498 L48.8423697,35.227088 L48.8451978,35.2242599 C49.4117579,34.6303616 49.7049362,33.8714916 49.7219048,33.1097934 L49.7237902,33.1097934 L49.987745,25.9462489 L50,25.61442 C49.987745,24.8140714 49.6775981,24.0203216 49.0639032,23.4103975 L45.5467056,19.908283 C44.9028444,19.2681926 44.0563037,18.9580458 43.2116483,18.9787851 L43.2069349,18.9787851 L42.9071576,18.9995244 L35.9566623,19.4850126 L35.9387511,19.4850126 L35.8048883,19.4934969 L35.8030029,19.4944396 C35.1789384,19.5547721 34.5690143,19.7961022 34.0609013,20.221258 L33.6743961,20.6049351 L18.7562368,35.3675496 L18.535646,35.5881404 C17.7880883,36.4384519 17.8239107,37.7308877 18.6374571,38.5425487 L30.5352194,50.3894054 C31.3836455,51.2331181 32.7618666,51.2331181 33.6121781,50.3894054 L33.6150062,50.3894054 C33.6150062,50.3865773 33.6150062,50.3865773 33.6159489,50.3865773 L48.7301889,35.338326 L48.7301889,35.338326 Z M41.152801,27.7383134 C40.1808817,26.7692222 40.0696436,25.2665653 40.8256856,24.1777518 C40.9199551,24.0382328 41.0293078,23.9062554 41.152801,23.7827623 C42.0860697,22.8532643 43.5123683,22.7156308 44.5936402,23.3679762 C44.7821794,23.4810997 44.9622342,23.6206186 45.1262633,23.7827623 C45.3063182,23.9637599 45.4580922,24.161726 45.5778145,24.3728898 C46.1924521,25.4400213 46.0435062,26.8248413 45.1262633,27.7383134 C45.0008848,27.8627492 44.8660793,27.9730446 44.7265603,28.0682569 C43.6311479,28.8148719 42.1247202,28.7055192 41.152801,27.7383134 L41.152801,27.7383134 Z" id="icon-copy-2" sketch:type="MSShapeGroup"></path>
        </g>
    </g>
</svg>