<?xml version="1.0" encoding="utf-8"?>
<!-- Generator: Adobe Illustrator 17.0.0, SVG Export Plug-In . SVG Version: 6.00 Build 0)  -->
<!DOCTYPE svg PUBLIC "-//W3C//DTD SVG 1.1//EN" "http://www.w3.org/Graphics/SVG/1.1/DTD/svg11.dtd">
<svg version="1.1" id="Layer_1" xmlns="http://www.w3.org/2000/svg" xmlns:xlink="http://www.w3.org/1999/xlink" x="0px" y="0px"
	 width="180px" height="220px" viewBox="0 0 180 220" enable-background="new 0 0 180 220" xml:space="preserve">
<g>
	<path fill="#FFFFFF" d="M40.636,204.066c0.317,0.112,0.704,0.313,1.162,0.602c0.457,0.29,1.059,0.705,1.806,1.246
		c0.224,0.168,0.676,0.341,1.358,0.518c0.681,0.177,1.698,0.312,3.052,0.406c1.353,0.093,3.084,0.121,5.194,0.084
		c2.109-0.038,4.704-0.187,7.784-0.448c-0.299,0.317-0.49,0.63-0.574,0.938c-0.084,0.308-0.117,0.704-0.098,1.19
		c-2.483,0-4.616-0.014-6.398-0.042c-1.783-0.028-3.295-0.066-4.536-0.112c-1.242-0.047-2.254-0.108-3.038-0.182
		c-0.784-0.075-1.424-0.168-1.918-0.28c-0.495-0.112-0.878-0.234-1.148-0.364c-0.271-0.131-0.518-0.28-0.742-0.448
		c-0.672-0.504-1.237-0.877-1.694-1.12c-0.458-0.242-0.901-0.317-1.33-0.224c-0.43,0.094-0.882,0.36-1.358,0.798
		c-0.476,0.438-1.06,1.078-1.75,1.918c-0.206-0.392-0.43-0.714-0.672-0.966c-0.243-0.252-0.495-0.453-0.756-0.602
		c1.082-0.952,1.936-1.647,2.562-2.086c0.625-0.438,1.124-0.732,1.498-0.882v-9.24c-0.934,0-1.699,0.01-2.296,0.028
		c-0.598,0.019-1.074,0.047-1.428,0.084v-1.708c0.373,0.056,0.807,0.103,1.302,0.14c0.494,0.038,1.012,0.056,1.554,0.056
		c0.504,0,0.975-0.009,1.414-0.028c0.438-0.018,0.854-0.074,1.246-0.168c-0.075,0.486-0.126,0.976-0.154,1.47
		c-0.028,0.495-0.042,1.116-0.042,1.862V204.066z M40.104,190.906c-0.43-0.933-0.962-1.834-1.596-2.702
		c-0.635-0.868-1.307-1.675-2.016-2.422l1.372-1.008c0.709,0.822,1.358,1.634,1.946,2.436c0.588,0.803,1.208,1.727,1.862,2.772
		L40.104,190.906z M46.096,199.25c-0.056,0.579-0.14,1.097-0.252,1.554c-0.112,0.458-0.262,0.892-0.448,1.302
		c-0.187,0.411-0.416,0.822-0.686,1.232c-0.271,0.411-0.602,0.85-0.994,1.316c-0.28-0.242-0.523-0.415-0.728-0.518
		c-0.206-0.102-0.495-0.191-0.868-0.266c0.578-0.541,1.045-1.04,1.4-1.498c0.354-0.457,0.63-0.947,0.826-1.47
		c0.196-0.522,0.326-1.124,0.392-1.806c0.065-0.681,0.098-1.516,0.098-2.506c-1.083,0.038-1.97,0.094-2.66,0.168v-1.512
		c0.578,0.075,1.264,0.131,2.058,0.168c0.793,0.038,1.694,0.056,2.702,0.056c-0.15-0.224-0.294-0.42-0.434-0.588
		c-0.14-0.168-0.369-0.373-0.686-0.616l1.12-0.756c0.336,0.411,0.597,0.756,0.784,1.036c0.186,0.28,0.382,0.588,0.588,0.924
		c0.914-0.018,1.722-0.046,2.422-0.084c0.7-0.037,1.32-0.084,1.862-0.14v1.512c-0.374-0.037-0.738-0.07-1.092-0.098
		c-0.355-0.028-0.766-0.051-1.232-0.07c-0.467-0.018-1.022-0.032-1.666-0.042c-0.644-0.009-1.433-0.014-2.366-0.014
		c0,0.28-0.005,0.551-0.014,0.812c-0.01,0.262-0.024,0.504-0.042,0.728h2.744c0.429,0,0.821-0.014,1.176-0.042
		c0.354-0.028,0.709-0.088,1.064-0.182l-0.308,3.584c-0.038,0.523-0.108,0.948-0.21,1.274c-0.103,0.327-0.294,0.593-0.574,0.798
		c-0.28,0.206-0.682,0.364-1.204,0.476c-0.523,0.112-1.214,0.196-2.072,0.252c-0.038-0.336-0.103-0.611-0.196-0.826
		c-0.094-0.214-0.252-0.48-0.476-0.798c1.157,0.094,1.983,0.066,2.478-0.084c0.494-0.149,0.76-0.466,0.798-0.952l0.224-2.324H46.096
		z M45.956,186.398c0.261-0.616,0.448-1.148,0.56-1.596s0.186-0.886,0.224-1.316c0.504,0.28,1.045,0.486,1.624,0.616
		c0.504,0.112,0.504,0.374,0,0.784c-0.094,0.075-0.215,0.224-0.364,0.448c-0.15,0.224-0.383,0.579-0.7,1.064h1.512
		c0.746,0,1.288-0.014,1.624-0.042c0.336-0.028,0.616-0.06,0.84-0.098c-0.019,0.206-0.038,0.392-0.056,0.56
		c-0.019,0.168-0.033,0.332-0.042,0.49c-0.01,0.159-0.019,0.336-0.028,0.532c-0.01,0.196-0.014,0.425-0.014,0.686v2.66
		c0,0.486,0.009,0.91,0.028,1.274c0.018,0.364,0.046,0.686,0.084,0.966c0.877-1.68,1.54-3.262,1.988-4.746s0.765-3.056,0.952-4.718
		c0.373,0.206,0.69,0.346,0.952,0.42c0.261,0.075,0.55,0.131,0.868,0.168c0.224,0.019,0.345,0.094,0.364,0.224
		c0.018,0.131-0.084,0.271-0.308,0.42c-0.224,0.15-0.551,1.018-0.98,2.604c-0.075,0.224-0.14,0.453-0.196,0.686
		c-0.056,0.234-0.131,0.472-0.224,0.714h3.08c0.616,0,1.157-0.009,1.624-0.028c0.466-0.018,0.858-0.046,1.176-0.084v1.568
		c-0.262-0.037-0.565-0.06-0.91-0.07c-0.346-0.009-0.733-0.023-1.162-0.042c-0.094,1.083-0.192,2.054-0.294,2.912
		c-0.103,0.859-0.22,1.634-0.35,2.324c-0.131,0.691-0.276,1.312-0.434,1.862c-0.159,0.551-0.341,1.069-0.546,1.554
		c0.522,0.71,1.05,1.447,1.582,2.212c0.532,0.766,1.115,1.615,1.75,2.548l-1.4,0.896c-0.411-0.728-0.836-1.446-1.274-2.156
		c-0.439-0.709-0.892-1.4-1.358-2.072c-0.28,0.504-0.593,0.985-0.938,1.442c-0.346,0.458-0.728,0.91-1.148,1.358
		c-0.42,0.448-0.887,0.896-1.4,1.344c-0.514,0.448-1.097,0.924-1.75,1.428c-0.187-0.317-0.402-0.569-0.644-0.756
		c-0.243-0.186-0.588-0.345-1.036-0.476c0.746-0.392,1.409-0.784,1.988-1.176c0.578-0.392,1.101-0.812,1.568-1.26
		c0.466-0.448,0.891-0.942,1.274-1.484c0.382-0.541,0.742-1.157,1.078-1.848c-0.411-0.597-0.808-1.148-1.19-1.652
		c-0.383-0.504-0.742-0.961-1.078-1.372l0.98-0.84c0.336,0.43,0.662,0.845,0.98,1.246c0.317,0.402,0.634,0.808,0.952,1.218
		c0.112-0.336,0.224-0.723,0.336-1.162c0.112-0.438,0.214-0.947,0.308-1.526c0.093-0.578,0.186-1.241,0.28-1.988
		c0.093-0.746,0.177-1.605,0.252-2.576h-2.772c-0.206,0.542-0.43,1.125-0.672,1.75c-0.243,0.626-0.523,1.34-0.84,2.142
		c-0.43-0.41-0.971-0.616-1.624-0.616c0.037-0.037,0.06-0.079,0.07-0.126c0.009-0.046,0.032-0.088,0.07-0.126
		c-0.15-0.037-0.308-0.065-0.476-0.084c-0.168-0.018-0.388-0.037-0.658-0.056c-0.271-0.018-0.616-0.028-1.036-0.028
		c-0.42,0-0.957,0-1.61,0c-1.251,0-2.18,0.014-2.786,0.042c-0.607,0.028-1.05,0.08-1.33,0.154c0.037-0.317,0.065-0.648,0.084-0.994
		c0.018-0.345,0.028-0.816,0.028-1.414v-2.66c0-0.541-0.01-0.97-0.028-1.288c-0.019-0.317-0.047-0.644-0.084-0.98
		c0.224,0.038,0.541,0.07,0.952,0.098C44.658,186.384,45.228,186.398,45.956,186.398z M49.764,187.518h-4.956v1.848h4.956V187.518z
		 M49.764,190.486h-4.956v1.764h4.956V190.486z M68.748,204.794c0.578-0.466,1.092-0.905,1.54-1.316
		c0.448-0.41,0.858-0.849,1.232-1.316c0.056,0.336,0.149,0.654,0.28,0.952c0.13,0.299,0.28,0.551,0.448,0.756l-2.94,2.604
		c-0.318,0.28-0.579,0.518-0.784,0.714c-0.206,0.196-0.383,0.373-0.532,0.532c-0.15,0.158-0.271,0.303-0.364,0.434
		c-0.094,0.13-0.187,0.261-0.28,0.392c-0.187-0.318-0.392-0.584-0.616-0.798c-0.224-0.215-0.504-0.434-0.84-0.658
		c0.448-0.486,0.76-0.994,0.938-1.526c0.177-0.532,0.266-1.152,0.266-1.862v-9.464c-0.859,0.019-1.554,0.066-2.086,0.14
		c-0.532,0.075-1.078,0.215-1.638,0.42v-2.072c0.186,0.038,0.354,0.061,0.504,0.07c0.149,0.01,0.331,0.024,0.546,0.042
		c0.214,0.019,0.466,0.028,0.756,0.028c0.289,0,0.667,0,1.134,0c0.634,0,1.185-0.014,1.652-0.042c0.466-0.028,0.886-0.06,1.26-0.098
		c-0.15,0.318-0.266,0.798-0.35,1.442c-0.084,0.644-0.126,1.284-0.126,1.918V204.794z M69.14,189.702
		c-0.56-0.784-1.162-1.535-1.806-2.254c-0.644-0.718-1.386-1.442-2.226-2.17l1.176-1.148c0.84,0.747,1.582,1.461,2.226,2.142
		c0.644,0.682,1.274,1.405,1.89,2.17L69.14,189.702z M79.164,187.742c-0.803,0-1.522,0.005-2.156,0.014
		c-0.635,0.01-1.214,0.019-1.736,0.028c-0.523,0.01-1.008,0.028-1.456,0.056s-0.887,0.061-1.316,0.098v-1.624
		c0.429,0.038,0.868,0.07,1.316,0.098c0.448,0.028,0.928,0.047,1.442,0.056c0.513,0.01,1.087,0.019,1.722,0.028
		c0.634,0.01,1.353,0.014,2.156,0.014c-0.019-0.485-0.047-0.98-0.084-1.484c-0.038-0.504-0.075-0.886-0.112-1.148
		c0.354,0.038,0.69,0.07,1.008,0.098c0.317,0.028,0.681,0.042,1.092,0.042c0.242,0,0.378,0.052,0.406,0.154
		c0.028,0.103-0.042,0.22-0.21,0.35c-0.262,0.224-0.392,0.588-0.392,1.092v0.896c0.802,0,1.516-0.004,2.142-0.014
		c0.625-0.009,1.194-0.018,1.708-0.028c0.513-0.009,0.984-0.028,1.414-0.056c0.429-0.028,0.858-0.06,1.288-0.098v1.624
		c-0.43-0.037-0.859-0.07-1.288-0.098c-0.43-0.028-0.901-0.046-1.414-0.056c-0.514-0.009-1.083-0.018-1.708-0.028
		c-0.626-0.009-1.34-0.014-2.142-0.014v2.072c0.634,0,1.204,0,1.708,0s0.97-0.009,1.4-0.028c0.429-0.018,0.835-0.032,1.218-0.042
		c0.382-0.009,0.779-0.032,1.19-0.07v1.54c-0.411-0.018-0.808-0.037-1.19-0.056c-0.383-0.018-0.789-0.037-1.218-0.056
		c-0.43-0.018-0.896-0.028-1.4-0.028s-1.074,0-1.708,0v2.1c1.026,0,1.904,0,2.632,0c0.728,0,1.386-0.009,1.974-0.028
		c0.588-0.018,1.129-0.037,1.624-0.056c0.494-0.018,1.012-0.046,1.554-0.084v1.54c-0.579-0.037-1.134-0.065-1.666-0.084
		c-0.532-0.018-1.116-0.037-1.75-0.056c-0.635-0.018-1.368-0.028-2.198-0.028c-0.831,0-1.844,0-3.038,0c-1.214,0-2.217,0-3.01,0
		c-0.794,0-1.484,0.01-2.072,0.028c-0.588,0.019-1.12,0.038-1.596,0.056c-0.476,0.019-1.004,0.047-1.582,0.084v-1.54
		c0.541,0.038,1.04,0.066,1.498,0.084c0.457,0.019,0.952,0.038,1.484,0.056c0.532,0.019,1.148,0.028,1.848,0.028
		c0.7,0,1.572,0,2.618,0v-2.1c-1.12,0-2.124,0.014-3.01,0.042c-0.887,0.028-1.713,0.061-2.478,0.098v-1.54
		c0.765,0.038,1.586,0.07,2.464,0.098c0.877,0.028,1.885,0.042,3.024,0.042V187.742z M75.58,209.274h-1.932
		c0.093-0.747,0.158-1.386,0.196-1.918c0.037-0.532,0.056-1.078,0.056-1.638v-6.496c0-0.672-0.019-1.274-0.056-1.806
		c-0.038-0.532-0.084-0.994-0.14-1.386c0.97,0.075,1.946,0.126,2.926,0.154c0.98,0.028,2.104,0.042,3.374,0.042
		c0.634,0,1.213-0.004,1.736-0.014c0.522-0.009,1.031-0.018,1.526-0.028c0.494-0.009,0.984-0.028,1.47-0.056
		c0.485-0.028,1.008-0.06,1.568-0.098c-0.038,0.598-0.066,1.162-0.084,1.694c-0.019,0.532-0.028,1.041-0.028,1.526v7.336
		c0,0.466-0.038,0.854-0.112,1.162c-0.075,0.308-0.243,0.56-0.504,0.756c-0.262,0.196-0.64,0.354-1.134,0.476
		c-0.495,0.121-1.172,0.219-2.03,0.294c0.037-0.392,0-0.742-0.112-1.05s-0.308-0.63-0.588-0.966
		c0.634,0.074,1.134,0.116,1.498,0.126c0.364,0.009,0.644-0.024,0.84-0.098c0.196-0.075,0.322-0.192,0.378-0.35
		c0.056-0.159,0.084-0.368,0.084-0.63v-1.904H75.58V209.274z M84.512,197.458H75.58v2.268h8.932V197.458z M84.512,200.986H75.58
		v2.156h8.932V200.986z M96.832,204.234l3.92-3.64c0.056,0.318,0.144,0.626,0.266,0.924c0.121,0.299,0.266,0.551,0.434,0.756
		l-4.06,3.5c-0.374,0.336-0.696,0.668-0.966,0.994c-0.271,0.326-0.537,0.714-0.798,1.162c-0.187-0.318-0.425-0.616-0.714-0.896
		c-0.29-0.28-0.621-0.522-0.994-0.728c0.41-0.429,0.728-0.882,0.952-1.358s0.336-1.022,0.336-1.638v-9.632
		c-0.504,0-0.934,0.005-1.288,0.014c-0.355,0.01-0.682,0.028-0.98,0.056c-0.299,0.028-0.574,0.066-0.826,0.112
		c-0.252,0.047-0.518,0.098-0.798,0.154v-1.848c0.168,0.038,0.336,0.061,0.504,0.07c0.168,0.01,0.359,0.024,0.574,0.042
		c0.214,0.019,0.471,0.028,0.77,0.028c0.298,0,0.662,0,1.092,0c0.578,0,1.143-0.014,1.694-0.042c0.55-0.028,0.994-0.06,1.33-0.098
		c-0.131,0.318-0.238,0.798-0.322,1.442c-0.084,0.644-0.126,1.284-0.126,1.918V204.234z M97.196,190.822
		c-0.654-1.008-1.33-1.922-2.03-2.744c-0.7-0.821-1.526-1.652-2.478-2.492l1.316-1.092c0.373,0.355,0.765,0.747,1.176,1.176
		c0.41,0.43,0.826,0.878,1.246,1.344c0.42,0.467,0.826,0.934,1.218,1.4c0.392,0.467,0.746,0.906,1.064,1.316L97.196,190.822z
		 M104.28,189.898c-0.84,0-1.671,0.014-2.492,0.042c-0.822,0.028-1.634,0.08-2.436,0.154v-1.764c0.541,0.038,1.078,0.07,1.61,0.098
		c0.532,0.028,1.11,0.047,1.736,0.056c0.625,0.01,1.311,0.019,2.058,0.028c0.746,0.01,1.596,0.014,2.548,0.014
		c-0.803-1.456-1.634-2.688-2.492-3.696l1.736-0.924c0.373,0.598,0.765,1.298,1.176,2.1c0.41,0.803,0.802,1.643,1.176,2.52
		c1.68,0,3.145-0.014,4.396-0.042c1.25-0.028,2.37-0.079,3.36-0.154v1.764c-0.542-0.037-1.139-0.07-1.792-0.098
		c-0.654-0.028-1.405-0.046-2.254-0.056c-0.85-0.009-1.82-0.018-2.912-0.028c-1.092-0.009-2.348-0.014-3.766-0.014v4.928h5.516
		c0.709,0,1.297-0.018,1.764-0.056c0.466-0.037,0.858-0.084,1.176-0.14l-1.064,10.892c-0.056,0.486-0.164,0.906-0.322,1.26
		c-0.159,0.354-0.448,0.653-0.868,0.896c-0.42,0.242-0.99,0.434-1.708,0.574c-0.719,0.14-1.666,0.238-2.842,0.294
		c-0.075-0.392-0.192-0.761-0.35-1.106c-0.159-0.346-0.397-0.705-0.714-1.078c1.138,0.112,2.048,0.173,2.73,0.182
		c0.681,0.01,1.199-0.051,1.554-0.182c0.354-0.13,0.592-0.331,0.714-0.602c0.121-0.27,0.2-0.62,0.238-1.05l0.812-8.54h-6.636
		c-0.019,1.475-0.112,2.81-0.28,4.004c-0.168,1.195-0.448,2.31-0.84,3.346c-0.392,1.036-0.91,2.016-1.554,2.94
		c-0.644,0.924-1.442,1.843-2.394,2.758c-0.243-0.262-0.528-0.504-0.854-0.728c-0.327-0.224-0.658-0.383-0.994-0.476
		c1.008-0.766,1.852-1.563,2.534-2.394c0.681-0.83,1.222-1.731,1.624-2.702c0.401-0.97,0.686-2.034,0.854-3.192
		c0.168-1.157,0.252-2.445,0.252-3.864V189.898z M127.716,193.426c1.512,1.102,3.052,2.044,4.62,2.828
		c0.802-0.504,1.563-1.096,2.282-1.778c0.718-0.681,1.348-1.376,1.89-2.086h-9.296c-0.598,0.822-1.242,1.601-1.932,2.338
		c-0.691,0.738-1.503,1.498-2.436,2.282c-0.243-0.354-0.5-0.63-0.77-0.826c-0.271-0.196-0.593-0.34-0.966-0.434
		c0.653-0.28,1.339-0.709,2.058-1.288c0.718-0.578,1.395-1.222,2.03-1.932c0.634-0.709,1.19-1.451,1.666-2.226
		c0.476-0.774,0.807-1.498,0.994-2.17c0.578,0.43,1.082,0.7,1.512,0.812c0.354,0.094,0.527,0.21,0.518,0.35
		c-0.01,0.14-0.154,0.285-0.434,0.434c-0.112,0.056-0.271,0.182-0.476,0.378c-0.206,0.196-0.495,0.528-0.868,0.994h5.824
		c1.194,0,2.324-0.042,3.388-0.126c1.064-0.084,1.894-0.191,2.492-0.322c-1.064,1.456-2.105,2.712-3.122,3.766
		c-1.018,1.055-1.984,1.89-2.898,2.506c1.568,0.672,3.243,1.214,5.026,1.624c1.782,0.411,3.812,0.728,6.09,0.952
		c-0.28,0.318-0.481,0.626-0.602,0.924c-0.122,0.299-0.22,0.607-0.294,0.924c-1.438-0.317-2.726-0.611-3.864-0.882
		c-1.139-0.27-2.17-0.541-3.094-0.812c-0.924-0.27-1.769-0.55-2.534-0.84c-0.766-0.289-1.512-0.611-2.24-0.966
		c-1.83,0.99-3.743,1.788-5.74,2.394c-1.998,0.607-4.126,1.153-6.384,1.638c-0.094-0.653-0.448-1.222-1.064-1.708
		c2.24-0.317,4.354-0.723,6.342-1.218c1.988-0.494,3.784-1.124,5.39-1.89c-0.616-0.354-1.246-0.742-1.89-1.162
		c-0.644-0.42-1.349-0.891-2.114-1.414L127.716,193.426L127.716,193.426z M133.12,186.678c2.576,0.019,4.648,0.005,6.216-0.042
		c1.568-0.046,2.781-0.116,3.64-0.21c-0.075,0.467-0.126,0.896-0.154,1.288c-0.028,0.392-0.042,0.85-0.042,1.372
		c0,0.56,0.014,1.032,0.042,1.414c0.028,0.383,0.06,0.761,0.098,1.134h-1.792v-3.612h-18.592v3.5h-1.764
		c0.056-0.429,0.098-0.826,0.126-1.19c0.028-0.364,0.042-0.816,0.042-1.358c0-0.466-0.014-0.933-0.042-1.4
		c-0.028-0.466-0.07-0.849-0.126-1.148c0.448,0.038,0.975,0.07,1.582,0.098c0.606,0.028,1.33,0.052,2.17,0.07
		c0.84,0.019,1.824,0.038,2.954,0.056c1.129,0.019,2.431,0.028,3.906,0.028c-0.43-0.728-1.102-1.493-2.016-2.296l1.596-1.008
		c0.429,0.486,0.812,0.985,1.148,1.498C132.448,185.386,132.784,185.988,133.12,186.678z M126.96,209.414h-1.848
		c0.074-0.448,0.121-0.864,0.14-1.246c0.018-0.383,0.028-0.808,0.028-1.274v-4.312c0-0.354-0.014-0.644-0.042-0.868
		c-0.028-0.224-0.061-0.438-0.098-0.644c0.448,0,0.872,0.005,1.274,0.014c0.401,0.01,0.872,0.019,1.414,0.028
		c0.541,0.01,1.194,0.014,1.96,0.014c0.765,0,1.736,0,2.912,0c1.176,0,2.118,0,2.828,0c0.709,0,1.302-0.004,1.778-0.014
		c0.476-0.009,0.886-0.018,1.232-0.028c0.345-0.009,0.742-0.014,1.19-0.014c-0.038,0.206-0.061,0.406-0.07,0.602
		c-0.01,0.196-0.014,0.5-0.014,0.91v4.144c0,0.485,0.009,0.886,0.028,1.204c0.018,0.317,0.065,0.709,0.14,1.176h-1.904v-1.316
		H126.96V209.414z M137.908,202.526H126.96v3.92h10.948V202.526z"/>
	<circle fill="none" stroke="#FFFFFF" stroke-width="4" stroke-miterlimit="10" cx="90" cy="80.586" r="70"/>
	<g>
		<defs>
			<path id="SVGID_5_" d="M79.698,103.871c-1.512,1.539-4.098,0.448-4.098-1.728v-7.13h12.8L79.698,103.871z M100.4,69.386H79.6
				c-1.325,0-2.4,1.075-2.4,2.4c0,1.326,1.075,2.4,2.4,2.4h20.8c1.325,0,2.4-1.074,2.4-2.4
				C102.8,70.461,101.725,69.386,100.4,69.386z M79.6,83.786h9.6c1.325,0,2.4-1.074,2.4-2.4c0-1.325-1.075-2.4-2.4-2.4h-9.6
				c-1.325,0-2.4,1.075-2.4,2.4C77.2,82.712,78.275,83.786,79.6,83.786z M107.6,94.986H72.4c-3.534,0-6.4-2.866-6.4-6.4v-25.6
				c0-3.534,2.866-6.4,6.4-6.4h35.2c3.534,0,6.4,2.866,6.4,6.4v25.6C114,92.12,111.134,94.986,107.6,94.986z"/>
		</defs>
		<clipPath id="SVGID_2_">
			<use xlink:href="#SVGID_5_"  overflow="visible"/>
		</clipPath>
		<rect x="61" y="51.586" clip-path="url(#SVGID_2_)" fill="#FFFFFE" width="58" height="58.005"/>
	</g>
</g>
</svg>
