<?xml version="1.0" encoding="utf-8"?>
<!-- Generator: Adobe Illustrator 17.0.0, SVG Export Plug-In . SVG Version: 6.00 Build 0)  -->
<!DOCTYPE svg PUBLIC "-//W3C//DTD SVG 1.1//EN" "http://www.w3.org/Graphics/SVG/1.1/DTD/svg11.dtd">
<svg version="1.1" id="Layer_1" xmlns="http://www.w3.org/2000/svg" xmlns:xlink="http://www.w3.org/1999/xlink" x="0px" y="0px"
	 width="180px" height="220px" viewBox="0 0 180 220" enable-background="new 0 0 180 220" xml:space="preserve">
<g>
	<path fill="#FFFFFF" d="M28.064,187.882c-0.56,0.112-1.158,0.224-1.792,0.336c-0.635,0.112-1.391,0.243-2.268,0.392
		c-0.038-0.28-0.154-0.602-0.35-0.966s-0.434-0.686-0.714-0.966c1.437,0.094,2.977,0.014,4.62-0.238
		c1.642-0.252,3.397-0.704,5.264-1.358c0.205,0.299,0.378,0.542,0.518,0.728c0.14,0.187,0.312,0.383,0.518,0.588
		c0.205,0.206,0.275,0.364,0.21,0.476c-0.066,0.112-0.276,0.15-0.63,0.112c-0.206-0.018-0.593,0.014-1.162,0.098
		c-0.57,0.084-1.414,0.229-2.534,0.434v4.508h6.048c-0.038-1.306-0.075-2.403-0.112-3.29c-0.038-0.886-0.075-1.628-0.112-2.226
		c-0.038-0.597-0.075-1.073-0.112-1.428c-0.038-0.354-0.075-0.662-0.112-0.924c0.28,0.094,0.588,0.159,0.924,0.196
		c0.336,0.038,0.69,0.038,1.064,0c0.317-0.037,0.494,0.005,0.532,0.126c0.037,0.122-0.066,0.294-0.308,0.518
		c-0.075,0.056-0.136,0.206-0.182,0.448c-0.047,0.243-0.08,0.63-0.098,1.162c-0.019,0.532-0.019,1.237,0,2.114
		c0.018,0.878,0.056,1.979,0.112,3.304c2.072,0,3.794-0.023,5.166-0.07c1.372-0.046,2.534-0.116,3.486-0.21v1.764
		c-0.56-0.037-1.116-0.07-1.666-0.098c-0.551-0.028-1.153-0.046-1.806-0.056c-0.654-0.009-1.391-0.018-2.212-0.028
		c-0.822-0.009-1.792-0.014-2.912-0.014c0.056,0.784,0.112,1.47,0.168,2.058c0.056,0.588,0.13,1.134,0.224,1.638
		c0.093,0.504,0.205,0.999,0.336,1.484c0.13,0.486,0.289,1.018,0.476,1.596c0.13,0.43,0.28,0.85,0.448,1.26
		c0.392-0.485,0.765-1.026,1.12-1.624c0.354-0.597,0.681-1.213,0.98-1.848c0.298-0.634,0.55-1.274,0.756-1.918
		c0.205-0.644,0.354-1.246,0.448-1.806c0.317,0.15,0.616,0.262,0.896,0.336c0.28,0.075,0.578,0.131,0.896,0.168
		c0.186,0.038,0.294,0.094,0.322,0.168c0.028,0.075-0.033,0.159-0.182,0.252c-0.056,0.038-0.117,0.098-0.182,0.182
		c-0.066,0.084-0.154,0.243-0.266,0.476c-0.112,0.234-0.266,0.56-0.462,0.98c-0.196,0.42-0.453,0.994-0.77,1.722
		c-0.336,0.766-0.747,1.508-1.232,2.226c-0.486,0.719-1.027,1.433-1.624,2.142c0.448,0.84,0.924,1.54,1.428,2.1
		c0.504,0.56,0.97,1.008,1.4,1.344c0.317,0.243,0.578,0.406,0.784,0.49c0.205,0.084,0.387,0.056,0.546-0.084
		c0.158-0.14,0.294-0.415,0.406-0.826c0.112-0.41,0.233-0.998,0.364-1.764c0.224,0.374,0.485,0.649,0.784,0.826
		c0.298,0.178,0.634,0.294,1.008,0.35c-0.262,0.952-0.528,1.694-0.798,2.226c-0.271,0.532-0.56,0.905-0.868,1.12
		c-0.308,0.214-0.649,0.284-1.022,0.21c-0.374-0.075-0.803-0.252-1.288-0.532c-0.784-0.448-1.498-1.032-2.142-1.75
		c-0.644-0.718-1.228-1.535-1.75-2.45c-0.896,0.934-1.858,1.811-2.884,2.632c-1.027,0.821-2.063,1.568-3.108,2.24
		c-0.15-0.355-0.35-0.672-0.602-0.952c-0.252-0.28-0.556-0.476-0.91-0.588c1.474-0.635,2.744-1.33,3.808-2.086
		s2.062-1.638,2.996-2.646c-0.411-0.858-0.738-1.736-0.98-2.632c-0.262-0.858-0.486-1.806-0.672-2.842
		c-0.187-1.036-0.327-2.328-0.42-3.878h-6.132v4.676c0.84-0.354,1.619-0.704,2.338-1.05c0.718-0.345,1.348-0.676,1.89-0.994
		c0.056,0.579,0.186,1.148,0.392,1.708c-0.616,0.224-1.316,0.495-2.1,0.812c-0.784,0.318-1.624,0.672-2.52,1.064v6.916
		c0,0.336-0.052,0.63-0.154,0.882c-0.103,0.252-0.336,0.476-0.7,0.672c-0.364,0.196-0.892,0.354-1.582,0.476
		c-0.691,0.121-1.624,0.21-2.8,0.266c0.056-0.43,0.028-0.794-0.084-1.092c-0.112-0.299-0.327-0.635-0.644-1.008
		c0.858,0.149,1.568,0.228,2.128,0.238c0.56,0.009,0.998-0.042,1.316-0.154c0.317-0.112,0.536-0.275,0.658-0.49
		c0.121-0.214,0.182-0.471,0.182-0.77v-5.208c-1.046,0.43-2.058,0.873-3.038,1.33c-0.98,0.458-1.862,0.873-2.646,1.246
		c-0.131-0.429-0.266-0.788-0.406-1.078c-0.14-0.289-0.313-0.574-0.518-0.854c1.008-0.261,2.081-0.588,3.22-0.98
		c1.138-0.392,2.268-0.812,3.388-1.26v-5.348c-0.766,0-1.447,0.005-2.044,0.014c-0.598,0.01-1.144,0.019-1.638,0.028
		c-0.495,0.01-0.957,0.028-1.386,0.056c-0.43,0.028-0.868,0.061-1.316,0.098v-1.764c0.802,0.056,1.698,0.103,2.688,0.14
		c0.989,0.038,2.221,0.075,3.696,0.112V187.882z M42.848,190.514c-0.206-0.336-0.476-0.7-0.812-1.092s-0.705-0.779-1.106-1.162
		c-0.402-0.382-0.808-0.737-1.218-1.064c-0.411-0.326-0.794-0.592-1.148-0.798l1.12-1.148c0.298,0.206,0.653,0.481,1.064,0.826
		c0.41,0.346,0.826,0.71,1.246,1.092c0.42,0.383,0.821,0.766,1.204,1.148c0.382,0.383,0.695,0.714,0.938,0.994L42.848,190.514z
		 M53.796,189.31c0.317-0.989,0.564-1.969,0.742-2.94c0.177-0.97,0.284-1.82,0.322-2.548c0.429,0.15,0.798,0.262,1.106,0.336
		c0.308,0.075,0.676,0.159,1.106,0.252c0.392,0.094,0.42,0.308,0.084,0.644c-0.206,0.206-0.453,0.621-0.742,1.246
		c-0.29,0.626-0.64,1.629-1.05,3.01c0.97,0,1.913-0.018,2.828-0.056c0.914-0.037,1.698-0.093,2.352-0.168
		c-0.075,0.374-0.126,0.789-0.154,1.246c-0.028,0.458-0.042,0.892-0.042,1.302v13.384c0,0.392,0,0.747,0,1.064
		c0,0.318,0.009,0.63,0.028,0.938c0.018,0.308,0.042,0.63,0.07,0.966c0.028,0.336,0.06,0.709,0.098,1.12H58.64v-2.576h-5.936v2.8
		h-1.96c0.037-0.411,0.07-0.784,0.098-1.12c0.028-0.336,0.051-0.658,0.07-0.966c0.018-0.308,0.032-0.621,0.042-0.938
		c0.009-0.317,0.014-0.672,0.014-1.064v-13.608c0-0.429-0.019-0.872-0.056-1.33c-0.038-0.457-0.084-0.863-0.14-1.218
		c0.466,0.075,0.938,0.126,1.414,0.154C52.662,189.268,53.198,189.292,53.796,189.31z M58.64,197.29v-6.524h-5.936v6.524H58.64z
		 M52.704,198.69v6.496h5.936v-6.496H52.704z M65.192,190.374c-0.15,0.336-0.322,0.724-0.518,1.162
		c-0.196,0.439-0.406,0.892-0.63,1.358c-0.224,0.467-0.467,0.929-0.728,1.386c-0.262,0.458-0.514,0.882-0.756,1.274
		c-0.28-0.186-0.556-0.345-0.826-0.476c-0.271-0.13-0.574-0.242-0.91-0.336c0.504-0.728,0.947-1.418,1.33-2.072
		c0.382-0.653,0.732-1.372,1.05-2.156c0.317-0.784,0.62-1.689,0.91-2.716c0.289-1.026,0.592-2.277,0.91-3.752
		c0.728,0.355,1.409,0.57,2.044,0.644c0.261,0.038,0.396,0.117,0.406,0.238c0.009,0.122-0.117,0.285-0.378,0.49
		c-0.056,0.038-0.122,0.112-0.196,0.224c-0.075,0.112-0.164,0.294-0.266,0.546c-0.103,0.252-0.229,0.593-0.378,1.022
		c-0.15,0.43-0.336,0.98-0.56,1.652h4.452c0.522,0,1.087-0.023,1.694-0.07c0.606-0.046,1.078-0.098,1.414-0.154
		c-0.056,0.43-0.094,0.878-0.112,1.344c-0.019,0.467-0.047,0.943-0.084,1.428l-0.28,14.28c0,0.486-0.08,0.933-0.238,1.344
		c-0.159,0.41-0.458,0.76-0.896,1.05c-0.439,0.289-1.06,0.518-1.862,0.686c-0.803,0.168-1.858,0.252-3.164,0.252
		c-0.038-0.243-0.075-0.453-0.112-0.63c-0.038-0.178-0.084-0.341-0.14-0.49c-0.056-0.15-0.131-0.304-0.224-0.462
		c-0.094-0.159-0.215-0.36-0.364-0.602c1.176,0.056,2.104,0.065,2.786,0.028c0.681-0.038,1.199-0.173,1.554-0.406
		c0.354-0.233,0.588-0.606,0.7-1.12c0.112-0.513,0.168-1.218,0.168-2.114l0.14-12.852H65.192z M67.096,201.994
		c-0.224-0.522-0.462-1.073-0.714-1.652c-0.252-0.578-0.518-1.143-0.798-1.694c-0.28-0.55-0.56-1.078-0.84-1.582
		c-0.28-0.504-0.551-0.942-0.812-1.316l1.54-1.036c0.242,0.411,0.504,0.873,0.784,1.386c0.28,0.514,0.56,1.05,0.84,1.61
		c0.28,0.56,0.555,1.13,0.826,1.708c0.27,0.579,0.518,1.13,0.742,1.652L67.096,201.994z M80.984,192.95
		c-0.299,0.579-0.607,1.144-0.924,1.694c-0.318,0.551-0.635,1.069-0.952,1.554c-0.224-0.261-0.528-0.471-0.91-0.63
		c-0.383-0.158-0.798-0.228-1.246-0.21c0.84-0.802,1.596-1.675,2.268-2.618c0.672-0.942,1.278-2.03,1.82-3.262
		c0.168-0.41,0.345-0.863,0.532-1.358c0.186-0.494,0.368-1.008,0.546-1.54c0.177-0.532,0.34-1.068,0.49-1.61
		c0.149-0.541,0.28-1.054,0.392-1.54c0.373,0.224,0.7,0.392,0.98,0.504s0.55,0.159,0.812,0.14c0.261-0.018,0.41,0.07,0.448,0.266
		c0.037,0.196-0.103,0.406-0.42,0.63c-0.206,0.15-0.5,0.593-0.882,1.33c-0.383,0.738-0.864,1.825-1.442,3.262v19.852h-1.82
		c0.093-0.803,0.168-1.722,0.224-2.758c0.056-1.036,0.084-2.058,0.084-3.066V192.95z M95.488,204.822
		c0,0.43,0.014,0.775,0.042,1.036c0.028,0.262,0.126,0.467,0.294,0.616s0.424,0.252,0.77,0.308c0.345,0.056,0.835,0.074,1.47,0.056
		c0.672-0.019,1.194-0.061,1.568-0.126c0.373-0.066,0.658-0.21,0.854-0.434c0.196-0.224,0.326-0.541,0.392-0.952
		c0.065-0.41,0.116-0.961,0.154-1.652c0.224,0.318,0.508,0.542,0.854,0.672c0.345,0.131,0.723,0.187,1.134,0.168
		c-0.206,0.803-0.406,1.461-0.602,1.974c-0.196,0.513-0.467,0.914-0.812,1.204c-0.346,0.289-0.803,0.485-1.372,0.588
		c-0.57,0.102-1.34,0.154-2.31,0.154c-0.952,0-1.699-0.042-2.24-0.126c-0.542-0.084-0.952-0.224-1.232-0.42
		s-0.458-0.467-0.532-0.812c-0.075-0.346-0.112-0.77-0.112-1.274V193.09h-2.212c-0.056,1.736-0.229,3.323-0.518,4.76
		c-0.29,1.438-0.7,2.777-1.232,4.018c-0.532,1.242-1.195,2.413-1.988,3.514c-0.794,1.102-1.732,2.174-2.814,3.22
		c-0.187-0.374-0.434-0.663-0.742-0.868c-0.308-0.206-0.761-0.355-1.358-0.448c1.008-0.542,1.927-1.25,2.758-2.128
		c0.83-0.877,1.554-1.913,2.17-3.108c0.616-1.194,1.106-2.538,1.47-4.032c0.364-1.493,0.583-3.136,0.658-4.928
		c-1.419,0.019-2.623,0.042-3.612,0.07c-0.99,0.028-1.895,0.08-2.716,0.154v-1.764c0.84,0.075,1.754,0.126,2.744,0.154
		c0.989,0.028,2.193,0.052,3.612,0.07c0.018-0.84,0.018-1.656,0-2.45c-0.019-0.793-0.042-1.526-0.07-2.198
		c-0.028-0.672-0.061-1.264-0.098-1.778c-0.038-0.513-0.075-0.9-0.112-1.162c0.448,0.131,0.816,0.21,1.106,0.238
		c0.289,0.028,0.648,0.033,1.078,0.014c0.261-0.018,0.406,0.052,0.434,0.21c0.028,0.159-0.089,0.341-0.35,0.546
		c-0.056,0.038-0.103,0.15-0.14,0.336c-0.038,0.187-0.07,0.523-0.098,1.008c-0.028,0.486-0.052,1.148-0.07,1.988
		c-0.019,0.84-0.038,1.923-0.056,3.248c2.184,0,4.19-0.014,6.02-0.042c1.829-0.028,3.304-0.088,4.424-0.182v1.764
		c-0.803-0.056-1.75-0.098-2.842-0.126s-2.348-0.051-3.766-0.07V204.822z M98.54,189.954c-0.374-0.56-0.892-1.143-1.554-1.75
		c-0.663-0.606-1.489-1.255-2.478-1.946l0.98-1.148c0.896,0.672,1.703,1.316,2.422,1.932c0.718,0.616,1.339,1.186,1.862,1.708
		L98.54,189.954z M110.692,202.694c-0.224,0.318-0.486,0.677-0.784,1.078c-0.299,0.402-0.616,0.817-0.952,1.246
		c-0.336,0.43-0.686,0.859-1.05,1.288c-0.364,0.429-0.714,0.83-1.05,1.204l-1.428-1.064c0.28-0.224,0.606-0.541,0.98-0.952
		c0.373-0.41,0.746-0.849,1.12-1.316c0.373-0.466,0.718-0.924,1.036-1.372c0.317-0.448,0.55-0.821,0.7-1.12L110.692,202.694z
		 M116.964,188.134c-1.214,0-2.301,0.005-3.262,0.014c-0.962,0.01-1.844,0.028-2.646,0.056c-0.803,0.028-1.54,0.056-2.212,0.084
		s-1.335,0.07-1.988,0.126v-1.792c0.653,0.056,1.316,0.098,1.988,0.126s1.409,0.056,2.212,0.084
		c0.802,0.028,1.684,0.047,2.646,0.056c0.961,0.01,2.048,0.014,3.262,0.014c-0.019-0.746-0.047-1.367-0.084-1.862
		c-0.038-0.494-0.084-0.91-0.14-1.246c0.392,0.094,0.76,0.154,1.106,0.182c0.345,0.028,0.704,0.042,1.078,0.042
		c0.261,0,0.401,0.052,0.42,0.154c0.018,0.103-0.084,0.22-0.308,0.35c-0.243,0.131-0.364,0.355-0.364,0.672v1.708
		c1.4,0,2.608-0.004,3.626-0.014c1.017-0.009,1.927-0.028,2.73-0.056c0.802-0.028,1.53-0.056,2.184-0.084
		c0.653-0.028,1.316-0.07,1.988-0.126v1.792c-0.672-0.056-1.335-0.098-1.988-0.126c-0.654-0.028-1.382-0.056-2.184-0.084
		c-0.803-0.028-1.713-0.046-2.73-0.056c-1.018-0.009-2.226-0.014-3.626-0.014v1.456c1.605,0,3.089-0.018,4.452-0.056
		c1.362-0.037,2.697-0.102,4.004-0.196c-0.038,0.411-0.066,0.78-0.084,1.106c-0.019,0.327-0.033,0.644-0.042,0.952
		c-0.01,0.308-0.019,0.607-0.028,0.896c-0.01,0.29-0.014,0.602-0.014,0.938c0,0.691,0.014,1.335,0.042,1.932
		c0.028,0.598,0.06,1.158,0.098,1.68c-0.635-0.056-1.228-0.098-1.778-0.126c-0.551-0.028-1.134-0.051-1.75-0.07
		c-0.616-0.018-1.316-0.032-2.1-0.042c-0.784-0.009-1.718-0.014-2.8-0.014v2.296c1.082-0.056,2.198-0.102,3.346-0.14
		c1.148-0.037,2.142-0.074,2.982-0.112c-0.168-0.205-0.336-0.392-0.504-0.56s-0.346-0.345-0.532-0.532l1.148-0.784
		c0.784,0.766,1.493,1.503,2.128,2.212c0.634,0.71,1.222,1.41,1.764,2.1l-1.344,0.952c-0.262-0.373-0.523-0.737-0.784-1.092
		c-0.262-0.354-0.523-0.7-0.784-1.036c-0.523,0.019-1.176,0.042-1.96,0.07c-0.784,0.028-1.568,0.056-2.352,0.084
		s-1.512,0.056-2.184,0.084s-1.158,0.052-1.456,0.07c-1.419,0.075-2.693,0.145-3.822,0.21c-1.13,0.066-2.142,0.126-3.038,0.182
		s-1.685,0.108-2.366,0.154c-0.682,0.047-1.274,0.098-1.778,0.154c-0.038-0.354-0.094-0.709-0.168-1.064
		c-0.075-0.354-0.178-0.681-0.308-0.98c0.616,0.056,1.325,0.098,2.128,0.126c0.802,0.028,1.652,0.042,2.548,0.042
		s1.824-0.004,2.786-0.014c0.961-0.009,1.908-0.032,2.842-0.07v-2.352c-1.139,0-2.082,0.005-2.828,0.014
		c-0.747,0.01-1.405,0.024-1.974,0.042c-0.57,0.019-1.106,0.042-1.61,0.07s-1.083,0.07-1.736,0.126
		c0.037-0.653,0.065-1.269,0.084-1.848c0.018-0.578,0.028-1.166,0.028-1.764c0-0.784-0.01-1.474-0.028-2.072
		c-0.019-0.597-0.047-1.204-0.084-1.82c1.306,0.075,2.599,0.131,3.878,0.168c1.278,0.038,2.702,0.066,4.27,0.084V188.134z
		 M116.964,190.878h-6.356v1.596h6.356V190.878z M116.964,193.734h-6.356v1.596h6.356V193.734z M123.74,204.318
		c0.522,0.616,1.148,0.962,1.876,1.036c-0.206,0.598-0.425,1.088-0.658,1.47c-0.234,0.382-0.509,0.69-0.826,0.924
		c-0.318,0.233-0.686,0.401-1.106,0.504c-0.42,0.102-0.92,0.163-1.498,0.182c-1.139,0.037-2.315,0.056-3.528,0.056
		c-1.214,0-2.296-0.019-3.248-0.056c-0.934-0.019-1.559-0.182-1.876-0.49c-0.318-0.308-0.476-0.854-0.476-1.638v-3.416
		c0-0.354-0.014-0.648-0.042-0.882c-0.028-0.233-0.07-0.452-0.126-0.658c0.448,0.094,0.821,0.154,1.12,0.182
		c0.298,0.028,0.606,0.024,0.924-0.014c0.261-0.037,0.424,0.019,0.49,0.168c0.065,0.15-0.024,0.299-0.266,0.448
		c-0.094,0.075-0.196,0.178-0.308,0.308c-0.112,0.131-0.168,0.271-0.168,0.42v3.164c0,0.318,0.13,0.551,0.392,0.7
		c0.261,0.149,0.774,0.233,1.54,0.252c0.746,0.018,1.521,0.028,2.324,0.028c0.802,0,1.708-0.01,2.716-0.028
		c0.41,0,0.774-0.042,1.092-0.126c0.317-0.084,0.588-0.224,0.812-0.42s0.406-0.466,0.546-0.812
		C123.586,205.275,123.684,204.841,123.74,204.318L123.74,204.318z M119.932,205.074c-0.187-0.242-0.444-0.527-0.77-0.854
		c-0.327-0.326-0.672-0.648-1.036-0.966c-0.364-0.317-0.724-0.62-1.078-0.91c-0.355-0.289-0.672-0.527-0.952-0.714l1.092-1.064
		c0.242,0.15,0.541,0.355,0.896,0.616c0.354,0.262,0.723,0.551,1.106,0.868c0.382,0.318,0.756,0.635,1.12,0.952
		c0.364,0.318,0.686,0.607,0.966,0.868L119.932,205.074z M118.672,192.474h6.58v-1.596h-6.58V192.474z M118.672,195.33h6.58v-1.596
		h-6.58V195.33z M129.144,207.482c-0.616-0.747-1.312-1.507-2.086-2.282c-0.775-0.774-1.554-1.47-2.338-2.086l1.148-1.176
		c0.392,0.318,0.802,0.668,1.232,1.05c0.429,0.383,0.849,0.766,1.26,1.148c0.41,0.383,0.802,0.761,1.176,1.134
		c0.373,0.374,0.709,0.71,1.008,1.008L129.144,207.482z M141.408,194.378c0.634-0.896,1.232-1.969,1.792-3.22
		c-1.699,0-3.169,0.019-4.41,0.056c-1.242,0.038-2.17,0.084-2.786,0.14v-1.708c0.653,0.056,1.628,0.103,2.926,0.14
		c1.297,0.038,2.907,0.056,4.83,0.056c0.373-0.952,0.704-2.006,0.994-3.164c0.289-1.157,0.48-2.184,0.574-3.08
		c0.765,0.318,1.456,0.495,2.072,0.532c0.317,0.019,0.49,0.094,0.518,0.224c0.028,0.131-0.089,0.262-0.35,0.392
		c-0.094,0.056-0.192,0.15-0.294,0.28c-0.103,0.131-0.229,0.378-0.378,0.742c-0.15,0.364-0.346,0.868-0.588,1.512
		c-0.243,0.644-0.551,1.498-0.924,2.562c1.754,0,3.257-0.004,4.508-0.014c1.25-0.009,2.3-0.023,3.15-0.042
		c0.849-0.018,1.54-0.037,2.072-0.056c0.532-0.018,0.956-0.046,1.274-0.084v1.708c-0.336-0.018-0.77-0.042-1.302-0.07
		s-1.242-0.051-2.128-0.07c-0.887-0.018-1.979-0.032-3.276-0.042c-1.298-0.009-2.88-0.014-4.746-0.014
		c-0.43,1.12-0.962,2.194-1.596,3.22c2.37,0,4.442-0.004,6.216-0.014c1.773-0.009,3.29-0.023,4.55-0.042
		c1.26-0.018,2.268-0.037,3.024-0.056c0.756-0.018,1.292-0.046,1.61-0.084v1.708c-0.206-0.018-0.551-0.037-1.036-0.056
		c-0.486-0.018-1.055-0.037-1.708-0.056c-0.654-0.018-1.368-0.032-2.142-0.042c-0.775-0.009-1.545-0.014-2.31-0.014
		c0.448,0.467,0.924,0.906,1.428,1.316c0.504,0.411,1.054,0.794,1.652,1.148c0.597,0.355,1.26,0.682,1.988,0.98
		c0.728,0.299,1.53,0.57,2.408,0.812c-0.56,0.56-0.971,1.158-1.232,1.792c-0.934-0.466-1.778-0.924-2.534-1.372
		s-1.456-0.914-2.1-1.4c-0.644-0.485-1.237-0.994-1.778-1.526c-0.542-0.532-1.046-1.115-1.512-1.75h-7.476
		c-0.952,1.251-2.077,2.404-3.374,3.458c-1.298,1.055-2.786,2.049-4.466,2.982c-0.168-0.336-0.364-0.606-0.588-0.812
		c-0.224-0.205-0.56-0.382-1.008-0.532c1.68-0.784,3.112-1.572,4.298-2.366c1.185-0.793,2.226-1.703,3.122-2.73
		c-0.672,0-1.34,0.005-2.002,0.014c-0.663,0.01-1.284,0.024-1.862,0.042c-0.579,0.019-1.083,0.038-1.512,0.056
		c-0.43,0.019-0.747,0.038-0.952,0.056v-1.708c0.298,0.038,0.709,0.066,1.232,0.084c0.522,0.019,1.106,0.038,1.75,0.056
		c0.644,0.019,1.339,0.033,2.086,0.042C139.858,194.374,140.624,194.378,141.408,194.378L141.408,194.378z M143.284,200.79
		c-1.643,0-3.052,0.056-4.228,0.168v-1.708c0.373,0.038,0.723,0.066,1.05,0.084c0.326,0.019,0.732,0.038,1.218,0.056
		c0.485,0.019,1.106,0.028,1.862,0.028s1.75,0,2.982,0c1.064,0,1.96,0,2.688,0c0.728,0,1.353-0.009,1.876-0.028
		c0.522-0.018,0.98-0.042,1.372-0.07s0.774-0.06,1.148-0.098c-0.038,0.112-0.07,0.248-0.098,0.406
		c-0.028,0.159-0.056,0.36-0.084,0.602c-0.028,0.243-0.061,0.546-0.098,0.91c-0.038,0.364-0.084,0.808-0.14,1.33l-0.252,2.828
		c-0.056,0.598-0.173,1.092-0.35,1.484c-0.178,0.392-0.458,0.718-0.84,0.98c-0.383,0.261-0.892,0.462-1.526,0.602
		c-0.635,0.14-1.438,0.238-2.408,0.294c0-0.374-0.066-0.733-0.196-1.078c-0.131-0.346-0.355-0.696-0.672-1.05
		c0.877,0.074,1.586,0.112,2.128,0.112c0.541,0,0.966-0.052,1.274-0.154c0.308-0.102,0.522-0.27,0.644-0.504
		c0.121-0.233,0.2-0.536,0.238-0.91l0.42-4.284h-6.468c-0.094,1.046-0.276,1.984-0.546,2.814c-0.271,0.831-0.691,1.582-1.26,2.254
		c-0.57,0.672-1.33,1.288-2.282,1.848c-0.952,0.56-2.138,1.101-3.556,1.624c-0.15-0.28-0.374-0.56-0.672-0.84
		c-0.299-0.28-0.607-0.514-0.924-0.7c1.493-0.411,2.725-0.85,3.696-1.316c0.97-0.466,1.74-0.975,2.31-1.526
		c0.569-0.55,0.98-1.166,1.232-1.848C143.074,202.419,143.228,201.649,143.284,200.79z M141.156,189.282
		c-0.486-0.597-1.102-1.19-1.848-1.778c-0.747-0.588-1.466-1.068-2.156-1.442l1.008-1.26c0.354,0.224,0.742,0.486,1.162,0.784
		c0.42,0.299,0.826,0.602,1.218,0.91s0.756,0.602,1.092,0.882c0.336,0.28,0.606,0.514,0.812,0.7L141.156,189.282z M153.728,186.23
		c-0.075,0.019-0.192,0.08-0.35,0.182c-0.159,0.103-0.388,0.276-0.686,0.518c-0.299,0.243-0.686,0.574-1.162,0.994
		s-1.06,0.948-1.75,1.582l-1.232-0.952c0.952-0.728,1.75-1.423,2.394-2.086c0.644-0.662,1.152-1.311,1.526-1.946
		c0.242,0.224,0.476,0.416,0.7,0.574c0.224,0.159,0.476,0.294,0.756,0.406c0.261,0.112,0.387,0.238,0.378,0.378
		C154.292,186.02,154.101,186.137,153.728,186.23z"/>
	<circle fill="none" stroke="#FFFFFF" stroke-width="4" stroke-miterlimit="10" cx="90" cy="80.586" r="70"/>
	<g>
		<defs>
			<path id="SVGID_7_" d="M101.623,68.822c-1.579-1.575-1.76-4.017-0.532-5.786c0.153-0.227,0.331-0.441,0.532-0.642
				c1.517-1.51,3.834-1.734,5.591-0.674c0.306,0.184,0.599,0.411,0.866,0.674c0.293,0.294,0.539,0.616,0.734,0.959
				c0.999,1.734,0.757,3.984-0.734,5.469c-0.204,0.202-0.423,0.382-0.65,0.536C105.651,70.571,103.203,70.393,101.623,68.822z
				 M113.937,81.172c0,0,0.001-0.001,0.005-0.005l0.178-0.176l0.005-0.005c0.921-0.965,1.397-2.198,1.425-3.436h0.003l0.429-11.641
				L116,65.37c-0.02-1.301-0.524-2.59-1.521-3.581l-5.715-5.691c-1.046-1.04-2.422-1.544-3.794-1.51h-0.008l-0.487,0.034
				L93.18,55.41h-0.029l-0.218,0.014l-0.003,0.001c-1.014,0.098-2.005,0.49-2.831,1.181l-0.628,0.624L65.229,81.219l-0.359,0.359
				c-1.215,1.382-1.156,3.482,0.165,4.801L84.37,105.63c1.379,1.371,3.618,1.371,5,0h0.005c0-0.005,0-0.005,0.001-0.005
				L113.937,81.172z"/>
		</defs>
		<clipPath id="SVGID_2_">
			<use xlink:href="#SVGID_7_"  overflow="visible"/>
		</clipPath>
		<rect x="59" y="49.586" clip-path="url(#SVGID_2_)" fill="#FFFFFE" width="62" height="62.072"/>
	</g>
</g>
</svg>
