<?xml version="1.0" encoding="utf-8"?>
<!-- Generator: Adobe Illustrator 17.0.0, SVG Export Plug-In . SVG Version: 6.00 Build 0)  -->
<!DOCTYPE svg PUBLIC "-//W3C//DTD SVG 1.1//EN" "http://www.w3.org/Graphics/SVG/1.1/DTD/svg11.dtd">
<svg version="1.1" id="Layer_1" xmlns="http://www.w3.org/2000/svg" xmlns:xlink="http://www.w3.org/1999/xlink" x="0px" y="0px"
	 width="180px" height="220px" viewBox="0 0 180 220" enable-background="new 0 0 180 220" xml:space="preserve">
<g>
	<path fill="#FFFFFF" d="M28.064,187.826c-0.56,0.112-1.158,0.224-1.792,0.336c-0.635,0.112-1.391,0.243-2.268,0.392
		c-0.038-0.28-0.154-0.602-0.35-0.966c-0.196-0.364-0.434-0.686-0.714-0.966c1.437,0.094,2.977,0.014,4.62-0.238
		c1.642-0.252,3.397-0.704,5.264-1.358c0.205,0.299,0.378,0.542,0.518,0.728c0.14,0.187,0.312,0.383,0.518,0.588
		c0.205,0.206,0.275,0.364,0.21,0.476c-0.066,0.112-0.276,0.15-0.63,0.112c-0.206-0.018-0.593,0.014-1.162,0.098
		c-0.57,0.084-1.414,0.229-2.534,0.434v4.508h6.048c-0.038-1.306-0.075-2.403-0.112-3.29c-0.038-0.886-0.075-1.628-0.112-2.226
		c-0.038-0.597-0.075-1.073-0.112-1.428c-0.038-0.354-0.075-0.662-0.112-0.924c0.28,0.094,0.588,0.159,0.924,0.196
		c0.336,0.038,0.69,0.038,1.064,0c0.317-0.037,0.494,0.005,0.532,0.126c0.037,0.122-0.066,0.294-0.308,0.518
		c-0.075,0.056-0.136,0.206-0.182,0.448c-0.047,0.243-0.08,0.63-0.098,1.162c-0.019,0.532-0.019,1.237,0,2.114
		c0.018,0.878,0.056,1.979,0.112,3.304c2.072,0,3.794-0.023,5.166-0.07c1.372-0.046,2.534-0.116,3.486-0.21v1.764
		c-0.56-0.037-1.116-0.07-1.666-0.098c-0.551-0.028-1.153-0.046-1.806-0.056c-0.654-0.009-1.391-0.018-2.212-0.028
		c-0.822-0.009-1.792-0.014-2.912-0.014c0.056,0.784,0.112,1.47,0.168,2.058c0.056,0.588,0.13,1.134,0.224,1.638
		c0.093,0.504,0.205,0.999,0.336,1.484c0.13,0.486,0.289,1.018,0.476,1.596c0.13,0.43,0.28,0.85,0.448,1.26
		c0.392-0.485,0.765-1.026,1.12-1.624c0.354-0.597,0.681-1.213,0.98-1.848c0.298-0.634,0.55-1.274,0.756-1.918
		c0.205-0.644,0.354-1.246,0.448-1.806c0.317,0.15,0.616,0.262,0.896,0.336c0.28,0.075,0.578,0.131,0.896,0.168
		c0.186,0.038,0.294,0.094,0.322,0.168c0.028,0.075-0.033,0.159-0.182,0.252c-0.056,0.038-0.117,0.098-0.182,0.182
		c-0.066,0.084-0.154,0.243-0.266,0.476c-0.112,0.234-0.266,0.56-0.462,0.98c-0.196,0.42-0.453,0.994-0.77,1.722
		c-0.336,0.766-0.747,1.508-1.232,2.226c-0.486,0.719-1.027,1.433-1.624,2.142c0.448,0.84,0.924,1.54,1.428,2.1
		c0.504,0.56,0.97,1.008,1.4,1.344c0.317,0.243,0.578,0.406,0.784,0.49c0.205,0.084,0.387,0.056,0.546-0.084
		c0.158-0.14,0.294-0.415,0.406-0.826c0.112-0.41,0.233-0.998,0.364-1.764c0.224,0.374,0.485,0.649,0.784,0.826
		c0.298,0.178,0.634,0.294,1.008,0.35c-0.262,0.952-0.528,1.694-0.798,2.226c-0.271,0.532-0.56,0.905-0.868,1.12
		c-0.308,0.214-0.649,0.284-1.022,0.21c-0.374-0.075-0.803-0.252-1.288-0.532c-0.784-0.448-1.498-1.032-2.142-1.75
		c-0.644-0.718-1.228-1.535-1.75-2.45c-0.896,0.934-1.858,1.811-2.884,2.632c-1.027,0.821-2.063,1.568-3.108,2.24
		c-0.15-0.355-0.35-0.672-0.602-0.952c-0.252-0.28-0.556-0.476-0.91-0.588c1.474-0.635,2.744-1.33,3.808-2.086
		s2.062-1.638,2.996-2.646c-0.411-0.858-0.738-1.736-0.98-2.632c-0.262-0.858-0.486-1.806-0.672-2.842
		c-0.187-1.036-0.327-2.328-0.42-3.878h-6.132v4.676c0.84-0.354,1.619-0.704,2.338-1.05c0.718-0.345,1.348-0.676,1.89-0.994
		c0.056,0.579,0.186,1.148,0.392,1.708c-0.616,0.224-1.316,0.495-2.1,0.812c-0.784,0.318-1.624,0.672-2.52,1.064v6.916
		c0,0.336-0.052,0.63-0.154,0.882c-0.103,0.252-0.336,0.476-0.7,0.672c-0.364,0.196-0.892,0.354-1.582,0.476
		c-0.691,0.121-1.624,0.21-2.8,0.266c0.056-0.43,0.028-0.794-0.084-1.092c-0.112-0.299-0.327-0.635-0.644-1.008
		c0.858,0.149,1.568,0.228,2.128,0.238c0.56,0.009,0.998-0.042,1.316-0.154c0.317-0.112,0.536-0.275,0.658-0.49
		c0.121-0.214,0.182-0.471,0.182-0.77v-5.208c-1.046,0.43-2.058,0.873-3.038,1.33c-0.98,0.458-1.862,0.873-2.646,1.246
		c-0.131-0.429-0.266-0.788-0.406-1.078c-0.14-0.289-0.313-0.574-0.518-0.854c1.008-0.261,2.081-0.588,3.22-0.98
		c1.138-0.392,2.268-0.812,3.388-1.26v-5.348c-0.766,0-1.447,0.005-2.044,0.014c-0.598,0.01-1.144,0.019-1.638,0.028
		c-0.495,0.01-0.957,0.028-1.386,0.056c-0.43,0.028-0.868,0.061-1.316,0.098v-1.764c0.802,0.056,1.698,0.103,2.688,0.14
		c0.989,0.038,2.221,0.075,3.696,0.112V187.826z M42.848,190.458c-0.206-0.336-0.476-0.7-0.812-1.092
		c-0.336-0.392-0.705-0.779-1.106-1.162c-0.402-0.382-0.808-0.737-1.218-1.064c-0.411-0.326-0.794-0.592-1.148-0.798l1.12-1.148
		c0.298,0.206,0.653,0.481,1.064,0.826c0.41,0.346,0.826,0.71,1.246,1.092c0.42,0.383,0.821,0.766,1.204,1.148
		c0.382,0.383,0.695,0.714,0.938,0.994L42.848,190.458z M53.796,189.254c0.317-0.989,0.564-1.969,0.742-2.94
		c0.177-0.97,0.284-1.82,0.322-2.548c0.429,0.15,0.798,0.262,1.106,0.336c0.308,0.075,0.676,0.159,1.106,0.252
		c0.392,0.094,0.42,0.308,0.084,0.644c-0.206,0.206-0.453,0.621-0.742,1.246c-0.29,0.626-0.64,1.629-1.05,3.01
		c0.97,0,1.913-0.018,2.828-0.056c0.914-0.037,1.698-0.093,2.352-0.168c-0.075,0.374-0.126,0.789-0.154,1.246
		c-0.028,0.458-0.042,0.892-0.042,1.302v13.384c0,0.392,0,0.747,0,1.064c0,0.318,0.009,0.63,0.028,0.938
		c0.018,0.308,0.042,0.63,0.07,0.966s0.06,0.709,0.098,1.12H58.64v-2.576h-5.936v2.8h-1.96c0.037-0.411,0.07-0.784,0.098-1.12
		c0.028-0.336,0.051-0.658,0.07-0.966c0.018-0.308,0.032-0.621,0.042-0.938c0.009-0.317,0.014-0.672,0.014-1.064v-13.608
		c0-0.429-0.019-0.872-0.056-1.33c-0.038-0.457-0.084-0.863-0.14-1.218c0.466,0.075,0.938,0.126,1.414,0.154
		C52.662,189.212,53.198,189.236,53.796,189.254z M58.64,197.234v-6.524h-5.936v6.524H58.64z M52.704,198.634v6.496h5.936v-6.496
		H52.704z M65.192,190.318c-0.15,0.336-0.322,0.724-0.518,1.162c-0.196,0.439-0.406,0.892-0.63,1.358
		c-0.224,0.467-0.467,0.929-0.728,1.386c-0.262,0.458-0.514,0.882-0.756,1.274c-0.28-0.186-0.556-0.345-0.826-0.476
		c-0.271-0.13-0.574-0.242-0.91-0.336c0.504-0.728,0.947-1.418,1.33-2.072c0.382-0.653,0.732-1.372,1.05-2.156
		c0.317-0.784,0.62-1.689,0.91-2.716c0.289-1.026,0.592-2.277,0.91-3.752c0.728,0.355,1.409,0.57,2.044,0.644
		c0.261,0.038,0.396,0.117,0.406,0.238c0.009,0.122-0.117,0.285-0.378,0.49c-0.056,0.038-0.122,0.112-0.196,0.224
		c-0.075,0.112-0.164,0.294-0.266,0.546c-0.103,0.252-0.229,0.593-0.378,1.022c-0.15,0.43-0.336,0.98-0.56,1.652h4.452
		c0.522,0,1.087-0.023,1.694-0.07c0.606-0.046,1.078-0.098,1.414-0.154c-0.056,0.43-0.094,0.878-0.112,1.344
		c-0.019,0.467-0.047,0.943-0.084,1.428l-0.28,14.28c0,0.486-0.08,0.933-0.238,1.344c-0.159,0.41-0.458,0.76-0.896,1.05
		c-0.439,0.289-1.06,0.518-1.862,0.686c-0.803,0.168-1.858,0.252-3.164,0.252c-0.038-0.243-0.075-0.453-0.112-0.63
		c-0.038-0.178-0.084-0.341-0.14-0.49c-0.056-0.15-0.131-0.304-0.224-0.462c-0.094-0.159-0.215-0.36-0.364-0.602
		c1.176,0.056,2.104,0.065,2.786,0.028c0.681-0.038,1.199-0.173,1.554-0.406c0.354-0.233,0.588-0.606,0.7-1.12
		c0.112-0.513,0.168-1.218,0.168-2.114l0.14-12.852H65.192z M67.096,201.938c-0.224-0.522-0.462-1.073-0.714-1.652
		c-0.252-0.578-0.518-1.143-0.798-1.694c-0.28-0.55-0.56-1.078-0.84-1.582s-0.551-0.942-0.812-1.316l1.54-1.036
		c0.242,0.411,0.504,0.873,0.784,1.386c0.28,0.514,0.56,1.05,0.84,1.61s0.555,1.13,0.826,1.708c0.27,0.579,0.518,1.13,0.742,1.652
		L67.096,201.938z M81.544,188.75c0.728-0.037,0.812,0.187,0.252,0.672c-0.112,0.075-0.206,0.294-0.28,0.658
		c-0.075,0.364-0.112,0.761-0.112,1.19v17.948h-1.988c0.093-0.579,0.163-1.228,0.21-1.946c0.046-0.719,0.07-1.33,0.07-1.834v-13.58
		c0-0.672-0.014-1.316-0.042-1.932s-0.061-1.11-0.098-1.484c0.41,0.131,0.77,0.22,1.078,0.266
		C80.942,188.755,81.245,188.769,81.544,188.75L81.544,188.75z M84.624,188.834c-0.504-0.616-1.13-1.269-1.876-1.96
		c-0.747-0.69-1.54-1.353-2.38-1.988l1.12-1.288c0.84,0.654,1.619,1.298,2.338,1.932c0.718,0.635,1.432,1.288,2.142,1.96
		L84.624,188.834z M100.556,185.81c-0.075,0.374-0.126,0.794-0.154,1.26c-0.028,0.467-0.042,1.055-0.042,1.764v17.164
		c0,0.653-0.056,1.185-0.168,1.596c-0.112,0.41-0.341,0.732-0.686,0.966c-0.346,0.233-0.831,0.396-1.456,0.49
		c-0.626,0.093-1.452,0.168-2.478,0.224c0.037-0.411-0.005-0.775-0.126-1.092c-0.122-0.318-0.341-0.644-0.658-0.98
		c0.802,0.093,1.456,0.144,1.96,0.154c0.504,0.009,0.896-0.033,1.176-0.126c0.28-0.094,0.471-0.234,0.574-0.42
		c0.102-0.187,0.154-0.429,0.154-0.728V187.49h-5.04c-1.96,0-3.622,0.056-4.984,0.168l-0.028-1.82
		c0.354,0.038,0.728,0.066,1.12,0.084c0.392,0.019,0.826,0.033,1.302,0.042c0.476,0.01,1.022,0.019,1.638,0.028
		c0.616,0.01,1.334,0.014,2.156,0.014c0.877,0,1.605-0.004,2.184-0.014c0.578-0.009,1.078-0.018,1.498-0.028
		c0.42-0.009,0.784-0.028,1.092-0.056C99.898,185.88,100.22,185.848,100.556,185.81z M111.672,188.442
		c-1.232,0-2.254,0.024-3.066,0.07c-0.812,0.047-1.554,0.117-2.226,0.21v-1.82c0.336,0.056,0.681,0.098,1.036,0.126
		c0.354,0.028,0.742,0.056,1.162,0.084c0.42,0.028,0.882,0.047,1.386,0.056c0.504,0.01,1.073,0.014,1.708,0.014
		c0-0.802-0.014-1.47-0.042-2.002c-0.028-0.532-0.07-0.966-0.126-1.302c0.317,0.038,0.63,0.07,0.938,0.098
		c0.308,0.028,0.62,0.042,0.938,0.042c0.261,0,0.401,0.042,0.42,0.126c0.018,0.084-0.075,0.192-0.28,0.322
		c-0.094,0.075-0.164,0.206-0.21,0.392c-0.047,0.187-0.07,0.402-0.07,0.644v1.68c0.896-0.018,1.652-0.046,2.268-0.084
		c0.616-0.037,1.194-0.102,1.736-0.196v1.82c-0.56-0.093-1.139-0.158-1.736-0.196c-0.598-0.037-1.354-0.065-2.268-0.084v0.728
		c0.858,0.542,1.624,1.055,2.296,1.54c0.672,0.486,1.306,0.98,1.904,1.484l-1.176,1.148c-0.486-0.541-0.957-1.022-1.414-1.442
		c-0.458-0.42-0.994-0.844-1.61-1.274v2.464c0,0.392,0.014,0.831,0.042,1.316c0.028,0.486,0.06,0.971,0.098,1.456h-1.82
		c0.037-0.466,0.065-0.919,0.084-1.358c0.018-0.438,0.028-0.91,0.028-1.414v-2.128c-0.71,1.008-1.447,1.918-2.212,2.73
		c-0.766,0.812-1.596,1.582-2.492,2.31c-0.224-0.261-0.448-0.476-0.672-0.644s-0.532-0.317-0.924-0.448
		c1.194-0.653,2.347-1.54,3.458-2.66c1.11-1.12,2.058-2.333,2.842-3.64V188.442z M113.268,203.898
		c0.504,0.336,0.476,0.56-0.084,0.672c-0.206,0.056-0.448,0.159-0.728,0.308c-0.28,0.15-0.635,0.392-1.064,0.728
		c-1.064,0.803-2.511,1.689-4.34,2.66c-0.262-0.411-0.49-0.714-0.686-0.91s-0.444-0.406-0.742-0.63
		c0.69-0.205,1.334-0.424,1.932-0.658c0.597-0.233,1.152-0.504,1.666-0.812c0.513-0.308,1.003-0.662,1.47-1.064
		c0.466-0.401,0.924-0.863,1.372-1.386c0.205,0.224,0.41,0.43,0.616,0.616C112.885,203.609,113.081,203.768,113.268,203.898
		L113.268,203.898z M117.216,201.826c-1.214,0-2.329,0.01-3.346,0.028c-1.018,0.019-1.96,0.042-2.828,0.07
		c-0.868,0.028-1.676,0.066-2.422,0.112c-0.747,0.047-1.456,0.098-2.128,0.154v-2.016c0.709,0.056,1.456,0.108,2.24,0.154
		c0.784,0.047,1.638,0.084,2.562,0.112c0.924,0.028,1.932,0.052,3.024,0.07c1.092,0.019,2.3,0.028,3.626,0.028
		c1.306,0,2.506-0.009,3.598-0.028c1.092-0.018,2.095-0.042,3.01-0.07c0.914-0.028,1.759-0.065,2.534-0.112
		c0.774-0.046,1.516-0.098,2.226-0.154v2.016c-0.654-0.056-1.34-0.102-2.058-0.14c-0.719-0.037-1.498-0.07-2.338-0.098
		s-1.746-0.056-2.716-0.084c-0.971-0.028-2.035-0.042-3.192-0.042v5.236c0,0.429-0.038,0.779-0.112,1.05
		c-0.075,0.27-0.262,0.494-0.56,0.672c-0.299,0.177-0.742,0.317-1.33,0.42c-0.588,0.102-1.396,0.191-2.422,0.266
		c-0.038-0.467-0.103-0.84-0.196-1.12c-0.094-0.28-0.299-0.607-0.616-0.98c0.746,0.112,1.348,0.182,1.806,0.21
		c0.457,0.028,0.807,0,1.05-0.084c0.242-0.084,0.401-0.243,0.476-0.476c0.074-0.234,0.112-0.546,0.112-0.938V201.826z
		 M126.484,198.466c-1.008-0.093-2.184-0.172-3.528-0.238c-1.344-0.065-3.024-0.098-5.04-0.098c-1.158,0-2.161,0.005-3.01,0.014
		c-0.85,0.01-1.601,0.028-2.254,0.056c-0.654,0.028-1.246,0.061-1.778,0.098c-0.532,0.038-1.05,0.084-1.554,0.14v-1.932
		c0.504,0.056,1.022,0.103,1.554,0.14c0.532,0.038,1.124,0.07,1.778,0.098c0.653,0.028,1.404,0.047,2.254,0.056
		c0.849,0.01,1.852,0.014,3.01,0.014c1.138,0,2.132-0.004,2.982-0.014c0.849-0.009,1.605-0.028,2.268-0.056
		c0.662-0.028,1.255-0.056,1.778-0.084c0.522-0.028,1.036-0.07,1.54-0.126V198.466z M122.34,188.47c-0.523,0-0.98,0.01-1.372,0.028
		c-0.392,0.019-0.756,0.038-1.092,0.056c-0.336,0.019-0.654,0.047-0.952,0.084c-0.299,0.038-0.607,0.075-0.924,0.112v-1.82
		c0.336,0.038,0.653,0.075,0.952,0.112c0.298,0.038,0.62,0.066,0.966,0.084c0.345,0.019,0.718,0.038,1.12,0.056
		c0.401,0.019,0.872,0.028,1.414,0.028c0-0.784-0.014-1.442-0.042-1.974c-0.028-0.532-0.07-0.966-0.126-1.302
		c0.317,0.038,0.63,0.07,0.938,0.098c0.308,0.028,0.62,0.042,0.938,0.042c0.261,0,0.406,0.042,0.434,0.126
		c0.028,0.084-0.061,0.192-0.266,0.322c-0.112,0.075-0.192,0.206-0.238,0.392c-0.047,0.187-0.07,0.402-0.07,0.644v1.652
		c0.634,0,1.208-0.004,1.722-0.014c0.513-0.009,0.984-0.028,1.414-0.056c0.429-0.028,0.826-0.056,1.19-0.084
		c0.364-0.028,0.723-0.07,1.078-0.126v1.82c-0.355-0.056-0.714-0.098-1.078-0.126c-0.364-0.028-0.761-0.056-1.19-0.084
		c-0.43-0.028-0.901-0.046-1.414-0.056c-0.514-0.009-1.088-0.014-1.722-0.014v0.224c0.616,0.635,1.176,1.195,1.68,1.68
		c0.504,0.486,1.008,0.934,1.512,1.344c0.504,0.411,1.031,0.794,1.582,1.148c0.55,0.355,1.162,0.71,1.834,1.064
		c-0.374,0.206-0.64,0.402-0.798,0.588c-0.159,0.187-0.341,0.448-0.546,0.784c-0.654-0.522-1.214-0.975-1.68-1.358
		c-0.467-0.382-0.896-0.751-1.288-1.106c-0.392-0.354-0.77-0.714-1.134-1.078c-0.364-0.364-0.752-0.788-1.162-1.274v2.66
		c0,0.392,0.014,0.831,0.042,1.316c0.028,0.486,0.06,0.971,0.098,1.456h-1.82c0.037-0.485,0.065-0.942,0.084-1.372
		c0.018-0.429,0.028-0.896,0.028-1.4v-2.576c-0.616,0.859-1.354,1.741-2.212,2.646c-0.859,0.906-1.876,1.806-3.052,2.702
		c-0.187-0.28-0.364-0.504-0.532-0.672s-0.439-0.326-0.812-0.476c1.232-0.709,2.403-1.586,3.514-2.632
		C120.468,191.093,121.462,189.87,122.34,188.47z M128.36,208.098c-0.859-0.691-1.806-1.298-2.842-1.82
		c-1.036-0.522-2.18-0.998-3.43-1.428l0.784-1.484c1.306,0.523,2.496,1.036,3.57,1.54c1.073,0.504,2.076,1.018,3.01,1.54
		L128.36,208.098z M143.48,195.33c-1.158,0-2.194,0.01-3.108,0.028c-0.915,0.019-1.75,0.038-2.506,0.056
		c-0.756,0.019-1.461,0.042-2.114,0.07c-0.654,0.028-1.307,0.061-1.96,0.098v-1.96c0.634,0.038,1.278,0.075,1.932,0.112
		c0.653,0.038,1.348,0.066,2.086,0.084c0.737,0.019,1.554,0.038,2.45,0.056c0.896,0.019,1.904,0.028,3.024,0.028v-6.552
		c0-0.336-0.01-0.686-0.028-1.05c-0.019-0.364-0.042-0.723-0.07-1.078c-0.028-0.354-0.056-0.676-0.084-0.966
		c-0.028-0.289-0.061-0.518-0.098-0.686c0.485,0.094,0.905,0.154,1.26,0.182c0.354,0.028,0.672,0.033,0.952,0.014
		c0.298-0.018,0.462,0.019,0.49,0.112c0.028,0.094-0.061,0.206-0.266,0.336c-0.206,0.15-0.341,0.369-0.406,0.658
		c-0.066,0.29-0.098,0.696-0.098,1.218v1.764c2.688,0,4.825-0.023,6.412-0.07c1.586-0.046,2.688-0.126,3.304-0.238v2.044
		c-0.635-0.093-1.736-0.163-3.304-0.21c-1.568-0.046-3.706-0.07-6.412-0.07v4.592c1.848,0,3.439-0.004,4.774-0.014
		c1.334-0.009,2.501-0.028,3.5-0.056c0.998-0.028,1.89-0.056,2.674-0.084c0.784-0.028,1.558-0.07,2.324-0.126v1.96
		c-0.766-0.037-1.536-0.074-2.31-0.112c-0.775-0.037-1.657-0.065-2.646-0.084c-0.99-0.018-2.138-0.032-3.444-0.042
		c-1.307-0.009-2.866-0.014-4.676-0.014v9.352c0,0.672,0.018,1.419,0.056,2.24c0.037,0.821,0.102,1.642,0.196,2.464h-2.156
		c0.093-0.822,0.158-1.643,0.196-2.464c0.037-0.821,0.056-1.568,0.056-2.24V195.33z M147.372,197.038
		c1.288,0.896,2.608,1.881,3.962,2.954c1.353,1.074,2.655,2.152,3.906,3.234l-1.4,1.26c-0.952-1.026-2.077-2.086-3.374-3.178
		c-1.298-1.092-2.646-2.095-4.046-3.01L147.372,197.038z"/>
	<circle fill="none" stroke="#FFFFFF" stroke-width="4" stroke-miterlimit="10" cx="90" cy="80.53" r="70"/>
	<g>
		<defs>
			<path id="SVGID_1_" d="M106.218,82.784h4.655V78.13h-4.655V82.784z M92.255,96.748h4.655v-4.655h-4.655v-6.982H87.6v23.273h9.309
				v-4.654h-4.655V96.748z M96.909,82.784h4.655V78.13h-4.655v2.327h-4.655v4.654h4.655V82.784z M96.909,87.439v4.655h13.964v-4.655
				h-4.655v-4.655h-4.655v4.655H96.909z M96.909,103.73h4.655v-4.655h-4.655V103.73z M113.2,82.784h4.655V78.13H113.2V82.784z
				 M101.564,99.076h4.655v-4.655h-4.655V99.076z M113.2,103.73h-2.327v-4.655h-4.655v4.655h-4.655v4.654h16.291V96.748H113.2
				V103.73z M113.2,92.094h4.655v-4.655H113.2V92.094z M99.236,57.185H113.2v13.964H99.236V57.185z M94.582,75.803h23.273V52.53
				H94.582V75.803z M66.655,57.185h13.964v13.964H66.655V57.185z M62,75.803h23.273V52.53H62V75.803z M87.6,57.185h4.655V52.53H87.6
				V57.185z M87.6,64.166h4.655v-4.655H87.6V64.166z M62,82.784h4.655V78.13H62V82.784z M87.6,75.803h4.655v-9.309H87.6V75.803z
				 M71.309,82.784h13.964V78.13H71.309V82.784z M66.655,89.766h13.964v13.964H66.655V89.766z M62,108.384h23.273V85.112H62V108.384
				z"/>
		</defs>
		<clipPath id="SVGID_2_">
			<use xlink:href="#SVGID_1_"  overflow="visible"/>
		</clipPath>
		<rect x="57" y="47.53" clip-path="url(#SVGID_2_)" fill="#FFFFFF" width="65.854" height="65.854"/>
	</g>
</g>
</svg>
