<?xml version="1.0" encoding="utf-8"?>
<!-- Generator: Adobe Illustrator 17.0.0, SVG Export Plug-In . SVG Version: 6.00 Build 0)  -->
<!DOCTYPE svg PUBLIC "-//W3C//DTD SVG 1.1//EN" "http://www.w3.org/Graphics/SVG/1.1/DTD/svg11.dtd">
<svg version="1.1" id="Layer_1" xmlns="http://www.w3.org/2000/svg" xmlns:xlink="http://www.w3.org/1999/xlink" x="0px" y="0px"
	 width="180px" height="220px" viewBox="0 0 180 220" enable-background="new 0 0 180 220" xml:space="preserve">
<g>
	<path fill="#FFFFFF" d="M39.6,196.408c-0.896,0.934-1.988,1.886-3.276,2.856c-0.168-0.373-0.336-0.662-0.504-0.868
		c-0.168-0.205-0.411-0.41-0.728-0.616c0.784-0.41,1.554-0.914,2.31-1.512c0.756-0.597,1.474-1.26,2.156-1.988
		c0.681-0.728,1.297-1.498,1.848-2.31c0.55-0.812,1.012-1.656,1.386-2.534H39.88c-1.886,0-3.211,0.112-3.976,0.336v-1.932
		c0.28,0.056,0.546,0.098,0.798,0.126c0.252,0.028,0.546,0.052,0.882,0.07c0.336,0.019,0.732,0.033,1.19,0.042
		c0.457,0.01,1.022,0.014,1.694,0.014c0.672,0,1.246-0.004,1.722-0.014c0.476-0.009,0.891-0.023,1.246-0.042
		c0.354-0.018,0.667-0.042,0.938-0.07c0.27-0.028,0.546-0.07,0.826-0.126c-0.224,0.523-0.453,1.027-0.686,1.512
		c-0.234,0.486-0.528,1.027-0.882,1.624c-0.374,0.654-0.756,1.274-1.148,1.862c-0.392,0.588-0.812,1.162-1.26,1.722v1.344
		c0.149,0.075,0.284,0.145,0.406,0.21c0.121,0.066,0.247,0.136,0.378,0.21c0.298-0.317,0.55-0.602,0.756-0.854
		c0.205-0.252,0.392-0.499,0.56-0.742c0.168-0.242,0.312-0.49,0.434-0.742c0.121-0.252,0.247-0.527,0.378-0.826
		c0.392,0.392,0.83,0.71,1.316,0.952c0.224,0.112,0.331,0.257,0.322,0.434c-0.01,0.178-0.136,0.285-0.378,0.322
		c-0.206,0.038-0.49,0.196-0.854,0.476c-0.364,0.28-0.864,0.803-1.498,1.568c0.578,0.336,1.11,0.686,1.596,1.05
		c0.485,0.364,0.942,0.733,1.372,1.106l-1.064,1.372c-0.374-0.429-0.71-0.798-1.008-1.106c-0.299-0.308-0.588-0.578-0.868-0.812
		c-0.28-0.233-0.565-0.448-0.854-0.644c-0.29-0.196-0.621-0.406-0.994-0.63v6.272c0,0.84,0.018,1.671,0.056,2.492
		c0.037,0.821,0.102,1.736,0.196,2.744h-2.128c0.093-0.99,0.158-1.9,0.196-2.73c0.037-0.83,0.056-1.666,0.056-2.506V196.408z
		 M41.336,187.644c-0.374-0.765-0.756-1.404-1.148-1.918c-0.392-0.513-0.878-1.059-1.456-1.638l1.176-0.924
		c0.578,0.598,1.078,1.153,1.498,1.666c0.42,0.514,0.854,1.134,1.302,1.862L41.336,187.644z M48.392,195.848
		c0,1.606-0.07,3.006-0.21,4.2c-0.14,1.195-0.364,2.282-0.672,3.262c-0.308,0.98-0.714,1.9-1.218,2.758
		c-0.504,0.858-1.12,1.764-1.848,2.716c-0.299-0.262-0.546-0.453-0.742-0.574c-0.196-0.122-0.481-0.229-0.854-0.322
		c1.25-1.27,2.202-2.818,2.856-4.648c0.653-1.829,1.017-3.929,1.092-6.3c0.037-1.194,0.065-2.249,0.084-3.164
		c0.018-0.914,0.018-1.736,0-2.464c-0.019-0.728-0.047-1.395-0.084-2.002c-0.038-0.606-0.094-1.208-0.168-1.806
		c0.392,0.038,1.124,0.07,2.198,0.098c1.073,0.028,2.328,0.042,3.766,0.042v-1.204c0-0.672-0.014-1.194-0.042-1.568
		c-0.028-0.373-0.089-0.746-0.182-1.12c0.373,0.075,0.709,0.122,1.008,0.14c0.298,0.019,0.625,0.019,0.98,0
		c0.205-0.018,0.336,0.047,0.392,0.196c0.056,0.15-0.019,0.299-0.224,0.448c-0.206,0.168-0.308,0.654-0.308,1.456v1.652
		c0.877,0,1.652-0.004,2.324-0.014c0.672-0.009,1.264-0.018,1.778-0.028c0.513-0.009,0.966-0.023,1.358-0.042
		c0.392-0.018,0.746-0.046,1.064-0.084l-1.988,5.32l-1.512-0.504l1.176-3.304h-4.2v5.544c1.064,0,2.053-0.018,2.968-0.056
		c0.914-0.037,1.577-0.084,1.988-0.14c-0.56,1.886-1.158,3.561-1.792,5.026c-0.635,1.466-1.41,2.805-2.324,4.018
		c0.821,0.766,1.703,1.452,2.646,2.058c0.942,0.607,2.002,1.143,3.178,1.61c-0.336,0.298-0.602,0.569-0.798,0.812
		c-0.196,0.242-0.397,0.532-0.602,0.868c-1.083-0.654-2.058-1.321-2.926-2.002s-1.704-1.414-2.506-2.198
		c-0.728,0.822-1.559,1.578-2.492,2.268c-0.934,0.69-2.035,1.372-3.304,2.044c-0.224-0.355-0.434-0.621-0.63-0.798
		c-0.196-0.178-0.481-0.388-0.854-0.63c1.344-0.542,2.538-1.124,3.584-1.75c1.045-0.625,1.941-1.339,2.688-2.142
		c-0.336-0.429-0.677-0.938-1.022-1.526c-0.346-0.588-0.677-1.222-0.994-1.904c-0.318-0.681-0.616-1.381-0.896-2.1
		c-0.28-0.718-0.523-1.432-0.728-2.142H48.392z M52.592,188.988h-4.004c0,0.336-0.005,0.724-0.014,1.162
		c-0.01,0.439-0.024,0.906-0.042,1.4c-0.019,0.495-0.033,0.999-0.042,1.512c-0.01,0.514-0.024,1.004-0.042,1.47h4.144V188.988z
		 M50.828,195.848c0.186,0.654,0.406,1.298,0.658,1.932c0.252,0.635,0.513,1.237,0.784,1.806c0.27,0.57,0.555,1.088,0.854,1.554
		c0.298,0.467,0.597,0.868,0.896,1.204c0.672-0.896,1.25-1.876,1.736-2.94c0.485-1.064,0.942-2.249,1.372-3.556H50.828z
		 M68.832,204.192l3.92-3.64c0.056,0.318,0.144,0.626,0.266,0.924c0.121,0.299,0.266,0.551,0.434,0.756l-4.06,3.5
		c-0.374,0.336-0.696,0.668-0.966,0.994c-0.271,0.326-0.537,0.714-0.798,1.162c-0.187-0.318-0.425-0.616-0.714-0.896
		c-0.29-0.28-0.621-0.522-0.994-0.728c0.41-0.429,0.728-0.882,0.952-1.358c0.224-0.476,0.336-1.022,0.336-1.638v-9.632
		c-0.504,0-0.934,0.005-1.288,0.014c-0.355,0.01-0.682,0.028-0.98,0.056c-0.299,0.028-0.574,0.066-0.826,0.112
		c-0.252,0.047-0.518,0.098-0.798,0.154v-1.848c0.168,0.038,0.336,0.061,0.504,0.07c0.168,0.01,0.359,0.024,0.574,0.042
		c0.214,0.019,0.471,0.028,0.77,0.028c0.298,0,0.662,0,1.092,0c0.578,0,1.143-0.014,1.694-0.042c0.55-0.028,0.994-0.06,1.33-0.098
		c-0.131,0.318-0.238,0.798-0.322,1.442c-0.084,0.644-0.126,1.284-0.126,1.918V204.192z M69.196,190.78
		c-0.654-1.008-1.33-1.922-2.03-2.744c-0.7-0.821-1.526-1.652-2.478-2.492l1.316-1.092c0.373,0.355,0.765,0.747,1.176,1.176
		c0.41,0.43,0.826,0.878,1.246,1.344c0.42,0.467,0.826,0.934,1.218,1.4c0.392,0.467,0.746,0.906,1.064,1.316L69.196,190.78z
		 M76.28,189.856c-0.84,0-1.671,0.014-2.492,0.042c-0.822,0.028-1.634,0.08-2.436,0.154v-1.764c0.541,0.038,1.078,0.07,1.61,0.098
		c0.532,0.028,1.11,0.047,1.736,0.056c0.625,0.01,1.311,0.019,2.058,0.028c0.746,0.01,1.596,0.014,2.548,0.014
		c-0.803-1.456-1.634-2.688-2.492-3.696l1.736-0.924c0.373,0.598,0.765,1.298,1.176,2.1c0.41,0.803,0.802,1.643,1.176,2.52
		c1.68,0,3.145-0.014,4.396-0.042c1.25-0.028,2.37-0.079,3.36-0.154v1.764c-0.542-0.037-1.139-0.07-1.792-0.098
		c-0.654-0.028-1.405-0.046-2.254-0.056c-0.85-0.009-1.82-0.018-2.912-0.028c-1.092-0.009-2.348-0.014-3.766-0.014v4.928h5.516
		c0.709,0,1.297-0.018,1.764-0.056c0.466-0.037,0.858-0.084,1.176-0.14l-1.064,10.892c-0.056,0.486-0.164,0.906-0.322,1.26
		c-0.159,0.354-0.448,0.653-0.868,0.896c-0.42,0.242-0.99,0.434-1.708,0.574c-0.719,0.14-1.666,0.238-2.842,0.294
		c-0.075-0.392-0.192-0.761-0.35-1.106c-0.159-0.346-0.397-0.705-0.714-1.078c1.138,0.112,2.048,0.173,2.73,0.182
		c0.681,0.01,1.199-0.051,1.554-0.182c0.354-0.13,0.592-0.331,0.714-0.602c0.121-0.27,0.2-0.62,0.238-1.05l0.812-8.54h-6.636
		c-0.019,1.475-0.112,2.81-0.28,4.004c-0.168,1.195-0.448,2.31-0.84,3.346c-0.392,1.036-0.91,2.016-1.554,2.94
		c-0.644,0.924-1.442,1.843-2.394,2.758c-0.243-0.262-0.528-0.504-0.854-0.728c-0.327-0.224-0.658-0.383-0.994-0.476
		c1.008-0.766,1.852-1.563,2.534-2.394c0.681-0.83,1.222-1.731,1.624-2.702c0.401-0.97,0.686-2.034,0.854-3.192
		c0.168-1.157,0.252-2.445,0.252-3.864V189.856z M96.804,204.444l3.5-3.668c0.112,0.374,0.242,0.705,0.392,0.994
		c0.149,0.29,0.326,0.528,0.532,0.714l-2.8,2.604c-0.654,0.616-1.181,1.186-1.582,1.708c-0.402,0.522-0.714,1.008-0.938,1.456
		c-0.486-0.654-1.064-1.148-1.736-1.484c0.634-0.746,0.952-1.698,0.952-2.856v-10.164c-0.691,0-1.349,0.019-1.974,0.056
		c-0.626,0.038-1.228,0.103-1.806,0.196v-1.848c0.373,0.038,0.779,0.07,1.218,0.098c0.438,0.028,0.928,0.042,1.47,0.042
		c0.634,0,1.222-0.014,1.764-0.042c0.541-0.028,0.998-0.06,1.372-0.098c-0.112,0.318-0.201,0.798-0.266,1.442
		c-0.066,0.644-0.098,1.284-0.098,1.918V204.444z M97.924,190.164c-0.635-0.784-1.363-1.535-2.184-2.254
		c-0.822-0.718-1.708-1.404-2.66-2.058l1.12-1.316c0.952,0.71,1.857,1.428,2.716,2.156c0.858,0.728,1.624,1.428,2.296,2.1
		L97.924,190.164z M112.176,187.308h-6.888c-0.336,0-0.724,0.01-1.162,0.028c-0.439,0.019-0.878,0.047-1.316,0.084
		c-0.439,0.038-0.845,0.08-1.218,0.126c-0.374,0.047-0.663,0.098-0.868,0.154v-2.212c0.541,0.15,1.348,0.248,2.422,0.294
		c1.073,0.047,2.496,0.07,4.27,0.07c1.754,0,3.14-0.028,4.158-0.084c1.017-0.056,1.824-0.149,2.422-0.28
		c-0.056,0.374-0.094,0.756-0.112,1.148c-0.019,0.392-0.028,0.85-0.028,1.372v5.264c0,0.803,0.014,1.554,0.042,2.254
		s0.06,1.442,0.098,2.226h-1.82v-1.876h-7.98v9.352c0,0.28,0.046,0.518,0.14,0.714c0.093,0.196,0.298,0.355,0.616,0.476
		c0.317,0.122,0.77,0.214,1.358,0.28c0.588,0.065,1.386,0.098,2.394,0.098c1.269,0,2.286-0.042,3.052-0.126
		c0.765-0.084,1.358-0.261,1.778-0.532c0.42-0.27,0.718-0.653,0.896-1.148c0.177-0.494,0.322-1.162,0.434-2.002
		c0.186,0.262,0.35,0.481,0.49,0.658c0.14,0.178,0.275,0.327,0.406,0.448c0.13,0.122,0.266,0.22,0.406,0.294
		c0.14,0.075,0.303,0.14,0.49,0.196c-0.299,0.878-0.593,1.568-0.882,2.072c-0.29,0.504-0.686,0.886-1.19,1.148
		c-0.504,0.261-1.172,0.429-2.002,0.504c-0.831,0.074-1.937,0.112-3.318,0.112c-1.568,0-2.805-0.038-3.71-0.112
		c-0.906-0.075-1.587-0.215-2.044-0.42c-0.458-0.206-0.747-0.476-0.868-0.812c-0.122-0.336-0.182-0.774-0.182-1.316v-8.988
		c0-0.634-0.01-1.124-0.028-1.47c-0.019-0.345-0.056-0.676-0.112-0.994c0.205,0.038,0.415,0.066,0.63,0.084
		c0.214,0.019,0.471,0.038,0.77,0.056c0.298,0.019,0.644,0.028,1.036,0.028c0.392,0,0.877,0,1.456,0h5.964V187.308z M129.312,199.6
		c0.093,0.355,0.182,0.64,0.266,0.854c0.084,0.215,0.219,0.453,0.406,0.714c-0.336,0.187-0.91,0.532-1.722,1.036
		c-0.812,0.504-1.708,1.064-2.688,1.68c-0.98,0.616-1.951,1.232-2.912,1.848c-0.962,0.616-1.76,1.129-2.394,1.54
		c-0.206-0.43-0.388-0.77-0.546-1.022c-0.159-0.252-0.388-0.536-0.686-0.854c1.698-0.578,3.378-1.33,5.04-2.254
		C125.737,202.218,127.482,201.038,129.312,199.6z M138.076,186.888c-2.576,0-4.751,0.01-6.524,0.028
		c-1.774,0.019-3.253,0.042-4.438,0.07c-1.186,0.028-2.128,0.056-2.828,0.084c-0.7,0.028-1.256,0.061-1.666,0.098v-1.82
		c0.84,0.094,1.974,0.159,3.402,0.196c1.428,0.038,3.262,0.056,5.502,0.056c2.034,0,3.766-0.023,5.194-0.07
		c1.428-0.046,2.543-0.107,3.346-0.182c-0.094,0.56-0.159,1.088-0.196,1.582c-0.038,0.495-0.056,1.069-0.056,1.722v5.068
		c0.933,0,1.773-0.018,2.52-0.056c0.746-0.037,1.353-0.093,1.82-0.168v1.82c-0.299-0.037-0.714-0.074-1.246-0.112
		c-0.532-0.037-1.246-0.065-2.142-0.084c-0.896-0.018-1.998-0.032-3.304-0.042c-1.307-0.009-2.884-0.014-4.732-0.014v3.36
		c0.56,0.654,1.166,1.26,1.82,1.82c1.568-1.026,2.772-1.894,3.612-2.604c0.84-0.709,1.446-1.334,1.82-1.876
		c0.28,0.411,0.522,0.728,0.728,0.952c0.205,0.224,0.42,0.411,0.644,0.56c0.242,0.15,0.336,0.308,0.28,0.476
		s-0.271,0.234-0.644,0.196c-0.206-0.037-0.425,0-0.658,0.112c-0.234,0.112-0.593,0.336-1.078,0.672
		c-0.318,0.224-0.607,0.42-0.868,0.588c-0.262,0.168-0.528,0.341-0.798,0.518c-0.271,0.178-0.565,0.364-0.882,0.56
		c-0.318,0.196-0.691,0.434-1.12,0.714c1.418,1.139,2.926,2.119,4.522,2.94c1.596,0.822,3.206,1.475,4.83,1.96
		c-0.318,0.299-0.579,0.588-0.784,0.868c-0.206,0.28-0.411,0.616-0.616,1.008c-1.344-0.672-2.544-1.307-3.598-1.904
		c-1.055-0.597-2.007-1.194-2.856-1.792c-0.85-0.597-1.629-1.213-2.338-1.848c-0.71-0.634-1.382-1.325-2.016-2.072v5.432
		c0,0.691-0.042,1.255-0.126,1.694c-0.084,0.438-0.29,0.793-0.616,1.064c-0.327,0.27-0.822,0.476-1.484,0.616
		c-0.663,0.14-1.564,0.266-2.702,0.378c-0.056-0.374-0.154-0.728-0.294-1.064s-0.369-0.672-0.686-1.008
		c0.952,0.074,1.703,0.093,2.254,0.056c0.55-0.038,0.966-0.145,1.246-0.322c0.28-0.178,0.462-0.439,0.546-0.784
		s0.126-0.798,0.126-1.358v-9.912c-1.736,0-3.244,0.005-4.522,0.014c-1.279,0.01-2.376,0.024-3.29,0.042
		c-0.915,0.019-1.671,0.047-2.268,0.084c-0.598,0.038-1.092,0.075-1.484,0.112v-1.82c0.373,0.038,0.854,0.07,1.442,0.098
		c0.588,0.028,1.213,0.052,1.876,0.07c0.662,0.019,1.33,0.038,2.002,0.056c0.672,0.019,1.278,0.028,1.82,0.028h11.508v-2.744
		c-2.24,0-4.163,0.005-5.768,0.014c-1.606,0.01-2.973,0.024-4.102,0.042c-1.13,0.019-2.058,0.042-2.786,0.07
		c-0.728,0.028-1.335,0.061-1.82,0.098v-1.792c0.504,0.038,1.12,0.07,1.848,0.098c0.728,0.028,1.652,0.052,2.772,0.07
		c1.12,0.019,2.482,0.033,4.088,0.042c1.605,0.01,3.528,0.014,5.768,0.014V186.888z M122.116,196.296
		c0.466,0.224,0.914,0.444,1.344,0.658c0.429,0.215,0.854,0.444,1.274,0.686c0.42,0.243,0.849,0.504,1.288,0.784
		c0.438,0.28,0.91,0.588,1.414,0.924l-1.064,1.4c-1.512-1.232-3.164-2.277-4.956-3.136L122.116,196.296z"/>
	<circle fill="none" stroke="#FFFFFF" stroke-width="4" stroke-miterlimit="10" cx="90" cy="80.544" r="70"/>
	<g>
		<defs>
			<path id="SVGID_3_" d="M79.376,68.216c-0.835,0-1.603-0.157-2.305-0.469c-0.703-0.312-1.328-0.728-1.875-1.249
				c-0.547-0.52-0.977-1.145-1.289-1.876c-0.312-0.728-0.468-1.484-0.468-2.265c0-0.832,0.156-1.601,0.468-2.304
				c0.312-0.704,0.743-1.329,1.289-1.875c0.547-0.548,1.172-0.977,1.875-1.289c0.703-0.313,1.471-0.469,2.305-0.469h0.235
				c0.051,0,0.089,0.013,0.116,0.039c0.025,0.027,0.065,0.04,0.117,0.04H80c0.157,0,0.3,0.039,0.431,0.117
				c0.129,0.077,0.247,0.183,0.351,0.312c0.104,0.131,0.183,0.261,0.235,0.391c0.052,0.131,0.079,0.273,0.079,0.429v0.117v0.079
				c0,0.027-0.013,0.052-0.04,0.077c-0.027,0.027-0.039,0.067-0.039,0.117v0.156c-0.105,0.209-0.183,0.444-0.235,0.704
				c-0.052,0.261-0.104,0.507-0.156,0.741c-0.052,0.235-0.091,0.483-0.117,0.743c-0.027,0.261-0.039,0.521-0.039,0.781
				c0,0.417,0.039,0.833,0.117,1.249c0.077,0.417,0.168,0.821,0.273,1.211c0.104,0.392,0.235,0.769,0.391,1.133
				c0.156,0.365,0.339,0.731,0.547,1.093v0.079l0.079,0.079c0,0.052,0.012,0.105,0.039,0.156c0.025,0.052,0.039,0.091,0.039,0.117
				s0.012,0.077,0.04,0.156c0.025,0.077,0.039,0.144,0.039,0.195c0,0.105-0.027,0.223-0.079,0.352
				c-0.052,0.131-0.116,0.261-0.195,0.391c-0.079,0.131-0.183,0.235-0.313,0.312c-0.129,0.079-0.248,0.144-0.351,0.196h-0.117
				h-0.079c-0.027,0-0.065,0.027-0.117,0.077c-0.156,0-0.287,0.015-0.391,0.04c-0.104,0.027-0.221,0.052-0.351,0.077
				c-0.131,0.027-0.248,0.04-0.352,0.04H79.376z M82.344,98.84v0.157c0,0.156-0.027,0.312-0.077,0.468
				c-0.053,0.156-0.144,0.3-0.273,0.429c-0.131,0.131-0.275,0.223-0.431,0.273c-0.156,0.053-0.339,0.079-0.547,0.079h-3.905
				c-0.261,0-0.483-0.025-0.665-0.079c-0.183-0.051-0.351-0.143-0.507-0.273c-0.157-0.129-0.288-0.285-0.391-0.468
				c-0.105-0.183-0.157-0.377-0.157-0.587l-0.077-0.235l-0.86-11.561v-0.157c-0.052-0.156-0.104-0.285-0.156-0.389
				c-0.052-0.104-0.131-0.208-0.235-0.313c-0.105-0.104-0.221-0.181-0.351-0.235c-0.131-0.051-0.248-0.077-0.352-0.077h-0.703
				c-0.209,0-0.405-0.039-0.587-0.117c-0.183-0.079-0.352-0.168-0.508-0.273c-0.156-0.104-0.287-0.247-0.391-0.429
				c-0.104-0.183-0.156-0.377-0.156-0.587l-0.077-0.312L70,73.137c0-0.364,0.065-0.715,0.196-1.055
				c0.129-0.339,0.312-0.625,0.547-0.86c0.235-0.233,0.52-0.416,0.86-0.547c0.337-0.129,0.689-0.195,1.055-0.195h2.812
				c0.156,0,0.312,0.027,0.469,0.079c0.156,0.052,0.299,0.143,0.429,0.273c0.129,0.129,0.235,0.273,0.312,0.429
				c0.079,0.156,0.117,0.339,0.117,0.547v0.079l-0.079,0.077v0.079V72.2c-0.052,0.156-0.091,0.287-0.116,0.391
				c-0.027,0.105-0.04,0.208-0.04,0.312c0,0.105-0.013,0.209-0.039,0.313c-0.027,0.104-0.039,0.208-0.039,0.312v0.117
				c0,0.027,0.012,0.039,0.039,0.039c0.025,0,0.039,0.027,0.039,0.079l1.095,12.579l0.077,0.389v0.079v0.156
				c0.104,0.417,0.247,0.82,0.429,1.212c0.183,0.389,0.404,0.729,0.665,1.015c0.26,0.287,0.559,0.547,0.897,0.781
				c0.339,0.235,0.691,0.404,1.055,0.508c0.052,0,0.079,0.013,0.079,0.039c0,0.027,0.025,0.04,0.077,0.04
				c0.104,0.052,0.208,0.104,0.313,0.156c0.104,0.052,0.181,0.129,0.235,0.233c0.051,0.105,0.104,0.209,0.156,0.313
				c0.051,0.105,0.104,0.208,0.156,0.312v0.156L82.344,98.84z M89.844,67.981c-0.573,0-1.12-0.065-1.64-0.196
				c-0.521-0.129-1.004-0.312-1.445-0.547c-0.443-0.235-0.86-0.52-1.251-0.859c-0.391-0.339-0.741-0.716-1.055-1.133
				c-0.208-0.26-0.391-0.547-0.547-0.859c-0.156-0.313-0.3-0.637-0.429-0.977c-0.131-0.337-0.223-0.689-0.273-1.055
				c-0.053-0.364-0.079-0.729-0.079-1.093c0-0.26,0.012-0.508,0.039-0.743c0.027-0.235,0.065-0.468,0.117-0.703
				c0.052-0.235,0.117-0.469,0.196-0.704c0.079-0.233,0.168-0.455,0.273-0.664c0.26-0.572,0.599-1.093,1.016-1.561
				c0.416-0.469,0.884-0.872,1.405-1.212c0.52-0.337,1.095-0.611,1.719-0.82c0.625-0.207,1.276-0.312,1.953-0.312
				s1.315,0.105,1.915,0.312c0.599,0.209,1.159,0.483,1.679,0.82c0.521,0.34,0.989,0.743,1.407,1.212
				c0.417,0.468,0.781,0.989,1.093,1.561c0.052,0.209,0.119,0.431,0.196,0.664c0.079,0.235,0.156,0.469,0.235,0.704
				c0.077,0.235,0.129,0.468,0.156,0.703c0.025,0.235,0.039,0.483,0.039,0.743c0,0.364-0.039,0.729-0.117,1.093
				c-0.077,0.365-0.169,0.717-0.273,1.055c-0.104,0.34-0.235,0.664-0.391,0.977c-0.156,0.312-0.339,0.599-0.547,0.859
				c-0.312,0.417-0.664,0.795-1.055,1.133s-0.82,0.624-1.289,0.859c-0.468,0.235-0.964,0.417-1.484,0.547
				C90.885,67.916,90.364,67.981,89.844,67.981z M97.423,88.137h-0.781c-0.105,0-0.209,0.013-0.312,0.04
				c-0.105,0.027-0.209,0.077-0.313,0.156c-0.105,0.077-0.195,0.155-0.273,0.233c-0.079,0.079-0.144,0.171-0.195,0.273
				c0,0.053-0.013,0.092-0.04,0.117c-0.027,0.027-0.039,0.053-0.039,0.079v0.195v0.157l-1.093,13.124v0.391
				c-0.053,0.261-0.144,0.483-0.273,0.664c-0.131,0.184-0.273,0.352-0.431,0.508c-0.156,0.156-0.339,0.273-0.547,0.352
				c-0.208,0.077-0.443,0.117-0.703,0.117h-5.156c-0.261,0-0.496-0.04-0.704-0.117c-0.208-0.079-0.404-0.196-0.585-0.352
				c-0.183-0.156-0.327-0.337-0.429-0.547c-0.105-0.208-0.184-0.416-0.235-0.625v-0.312l-1.095-13.203v-0.157v-0.117
				c0-0.025-0.013-0.051-0.039-0.077c-0.027-0.025-0.039-0.052-0.039-0.079V88.84c-0.052-0.103-0.117-0.195-0.196-0.273
				c-0.077-0.079-0.169-0.156-0.273-0.233c-0.104-0.079-0.208-0.129-0.312-0.156c-0.105-0.027-0.235-0.04-0.391-0.04h-0.703
				c-0.261,0-0.496-0.039-0.704-0.117c-0.208-0.077-0.404-0.195-0.585-0.352c-0.183-0.156-0.327-0.324-0.429-0.507
				c-0.105-0.183-0.184-0.404-0.235-0.664v-0.391l-1.172-12.579c0-0.416,0.077-0.807,0.235-1.172
				c0.156-0.364,0.376-0.676,0.664-0.937c0.285-0.26,0.611-0.469,0.976-0.625c0.364-0.156,0.755-0.233,1.172-0.233H97.5
				c0.417,0,0.808,0.077,1.172,0.233c0.364,0.156,0.676,0.365,0.937,0.625c0.26,0.261,0.469,0.573,0.625,0.937
				c0.156,0.365,0.235,0.756,0.235,1.172l-1.093,12.735v0.156c-0.053,0.261-0.131,0.496-0.235,0.704
				c-0.105,0.208-0.248,0.377-0.429,0.507c-0.183,0.131-0.391,0.248-0.625,0.352C97.852,88.087,97.631,88.137,97.423,88.137z
				 M98.595,67.981c-0.157-0.052-0.287-0.117-0.391-0.196c-0.105-0.077-0.196-0.181-0.273-0.312
				c-0.079-0.129-0.144-0.26-0.196-0.391c-0.052-0.129-0.077-0.247-0.077-0.352v-0.233c0-0.052,0.012-0.104,0.039-0.157
				c0.025-0.051,0.039-0.089,0.039-0.117c0-0.025,0.027-0.064,0.079-0.116v-0.079l0.077-0.079c0.208-0.363,0.392-0.728,0.547-1.093
				c0.157-0.364,0.287-0.741,0.392-1.133c0.103-0.389,0.181-0.793,0.233-1.211c0.052-0.416,0.079-0.832,0.079-1.249
				c0-0.26-0.013-0.52-0.039-0.781c-0.027-0.26-0.053-0.508-0.079-0.743c-0.027-0.235-0.079-0.48-0.156-0.741
				c-0.079-0.26-0.144-0.495-0.196-0.704c0-0.051-0.013-0.077-0.039-0.077c-0.027,0-0.039-0.025-0.039-0.079V58.02v-0.077v-0.079
				v-0.117c0-0.156,0.025-0.299,0.077-0.429c0.052-0.129,0.131-0.26,0.235-0.391c0.104-0.129,0.221-0.235,0.352-0.312
				c0.129-0.079,0.273-0.117,0.429-0.117h0.156c0.104-0.052,0.183-0.079,0.235-0.079h0.117h0.117c0.832,0,1.601,0.156,2.304,0.469
				c0.704,0.312,1.315,0.741,1.836,1.289c0.52,0.545,0.937,1.171,1.251,1.875c0.312,0.703,0.468,1.472,0.468,2.304
				c0,0.781-0.156,1.537-0.468,2.265c-0.313,0.731-0.731,1.356-1.251,1.876c-0.521,0.521-1.132,0.937-1.836,1.249
				c-0.703,0.312-1.472,0.469-2.304,0.469h-0.352c-0.131,0-0.261-0.013-0.391-0.04c-0.131-0.025-0.261-0.051-0.391-0.077
				c-0.131-0.025-0.248-0.04-0.351-0.04c0-0.051-0.015-0.077-0.04-0.077h-0.077H98.595z M107.032,70.481
				c0.364,0,0.703,0.065,1.016,0.195c0.312,0.131,0.597,0.313,0.859,0.547c0.26,0.235,0.455,0.521,0.587,0.86
				c0.128,0.34,0.195,0.691,0.195,1.055l-1.016,11.093v0.156c-0.052,0.209-0.131,0.405-0.235,0.587
				c-0.104,0.184-0.221,0.34-0.351,0.468c-0.131,0.132-0.3,0.235-0.508,0.313c-0.209,0.079-0.417,0.117-0.625,0.117h-0.624
				c-0.157,0-0.301,0.027-0.431,0.077c-0.129,0.053-0.235,0.131-0.312,0.235c-0.079,0.105-0.156,0.209-0.235,0.313
				c-0.077,0.104-0.117,0.233-0.117,0.389v0.079l-0.937,11.563v0.312c-0.052,0.209-0.131,0.404-0.235,0.587
				c-0.104,0.183-0.233,0.339-0.391,0.468c-0.156,0.131-0.325,0.223-0.508,0.273c-0.183,0.053-0.377,0.079-0.585,0.079h-3.984
				c-0.157,0-0.327-0.025-0.508-0.079c-0.184-0.051-0.325-0.143-0.429-0.273c-0.105-0.129-0.196-0.273-0.273-0.429
				c-0.079-0.156-0.117-0.312-0.117-0.468V98.84l0.624-7.109v-0.156c0-0.104,0.027-0.22,0.079-0.351
				c0.052-0.129,0.117-0.235,0.195-0.313c0.079-0.079,0.169-0.156,0.273-0.235c0.104-0.077,0.208-0.116,0.313-0.116v-0.079h0.079
				c0.156-0.052,0.299-0.104,0.429-0.156c0.129-0.052,0.26-0.117,0.391-0.196c0.129-0.077,0.26-0.156,0.391-0.235
				c0.129-0.077,0.247-0.168,0.351-0.273c0.208-0.207,0.404-0.416,0.587-0.624c0.181-0.208,0.337-0.417,0.468-0.625
				c0.131-0.208,0.235-0.441,0.313-0.704c0.079-0.259,0.143-0.519,0.195-0.781v-0.468l1.172-12.656v-0.079v-0.156v-0.312
				c0-0.104-0.013-0.208-0.039-0.313c-0.027-0.104-0.052-0.22-0.079-0.351c-0.027-0.129-0.039-0.247-0.039-0.352v-0.117
				c0-0.025-0.013-0.039-0.039-0.039c-0.028,0-0.04-0.027-0.04-0.079v-0.156c0-0.208,0.04-0.391,0.117-0.547
				c0.079-0.156,0.169-0.3,0.273-0.429c0.104-0.131,0.235-0.221,0.391-0.273c0.157-0.052,0.339-0.079,0.547-0.079H107.032z"/>
		</defs>
		<clipPath id="SVGID_2_">
			<use xlink:href="#SVGID_3_"  overflow="visible"/>
		</clipPath>
		<rect x="65" y="49.544" clip-path="url(#SVGID_2_)" fill="#FFFFFE" width="49.688" height="60"/>
	</g>
</g>
</svg>
