<?xml version="1.0" encoding="UTF-8" standalone="no"?>
<svg width="170px" height="70px" viewBox="0 0 170 70" version="1.1" xmlns="http://www.w3.org/2000/svg" xmlns:xlink="http://www.w3.org/1999/xlink" xmlns:sketch="http://www.bohemiancoding.com/sketch/ns">
    <!-- Generator: Sketch 3.3.2 (12043) - http://www.bohemiancoding.com/sketch -->
    <title>logo</title>
    <desc>Created with Sketch.</desc>
    <defs></defs>
    <g id="Page-1" stroke="none" stroke-width="1" fill="none" fill-rule="evenodd" sketch:type="MSPage">
        <g id="菜单" sketch:type="MSArtboardGroup" transform="translate(-190.000000, -92.000000)" fill="#FFFFFF">
            <g id="logo" sketch:type="MSLayerGroup" transform="translate(190.000000, 91.861529)">
                <g id="text" transform="translate(95.000000, 17.000000)" sketch:type="MSShapeGroup">
                    <path d="M34.8485409,0.605551601 C34.302242,0.0568327402 33.7474733,0.152419929 33.7474733,0.152419929 L23.6491103,0.152419929 C23.6491103,0.152419929 21.3538078,0.120355872 19.9387544,1.53843416 C18.524911,2.95651246 18.6846263,5.78177936 18.6846263,5.78177936 L18.6846263,29.1244128 L21.756726,30.7397153 L21.756726,5.88825623 C21.756726,5.88825623 21.7409964,4.70551601 22.4572954,3.97953737 C23.1802491,3.26565836 23.931637,3.22270463 23.931637,3.22270463 L31.6717794,3.22270463 C31.6717794,3.22330961 31.9192171,3.20153025 32.1037367,3.38846975 C32.2204982,3.49978648 32.2338078,3.84160142 32.2338078,3.84160142 L32.2338078,19.8597153 C32.2338078,19.8597153 32.2713167,20.1797509 32.0874021,20.3346263 C31.855694,20.5258007 31.4769751,20.2965125 31.4769751,20.2965125 L28.4708185,18.6927046 L28.4708185,22.1731673 L33.8515302,25.0516726 C33.8515302,25.0516726 34.3954093,25.3874377 34.9235587,25.0468327 C35.2992527,24.8066548 35.3046975,24.0123132 35.3046975,24.0123132 L35.3046975,1.71992883 C35.3046975,1.71992883 35.3978648,1.15487544 34.8485409,0.605551601" id="Fill-11"></path>
                    <path d="M17.3337011,7.29544484 L17.3228114,7.29544484 L17.3228114,1.9758363 C17.3228114,1.9758363 17.3917794,0.914697509 16.9174733,0.499074733 C16.4486121,0.0888967972 15.3935231,0.152419929 15.3935231,0.152419929 L6.0513879,0.152419929 C6.0513879,0.152419929 3.12992883,-0.0980427046 1.73362989,1.30370107 C0.33975089,2.70060498 0.653736655,5.80295374 0.653736655,5.80295374 L0.653736655,16.7622064 C0.653736655,16.7622064 0.584768683,17.8179004 0.995551601,18.2819217 C1.41661922,18.7562278 2.4747331,18.6927046 2.4747331,18.6927046 L11.8537722,18.6927046 C11.8537722,18.6927046 14.5774021,18.7459431 16.0015302,17.3278648 C17.4159786,15.9097865 17.3228114,13.1643772 17.3228114,13.1643772 L17.3337011,7.29544484 L17.3337011,7.29544484 Z M13.562242,14.9666192 C12.78121,15.7446263 11.4938078,15.6218149 11.4938078,15.6218149 L4.34836299,15.6218149 C4.34836299,15.6218149 4.06039146,15.6647687 3.88192171,15.4778292 C3.67380783,15.2751601 3.72462633,14.9823488 3.72462633,14.9823488 L3.72462633,5.6002847 C3.72462633,5.6002847 3.62843416,4.43266904 4.28967972,3.77747331 C4.9533452,3.11683274 6.24619217,3.22270463 6.24619217,3.22270463 L13.6179004,3.22270463 C13.6179004,3.22330961 13.9088968,3.18035587 14.1164057,3.37758007 C14.2979004,3.56391459 14.2555516,3.8524911 14.2555516,3.8524911 L14.2555516,13.1540925 C14.2555516,13.1540925 14.342669,14.1831673 13.562242,14.9666192 L13.562242,14.9666192 Z" id="Fill-12"></path>
                    <path d="M74.1560498,0.605551601 C73.607331,0.0568327402 73.0525623,0.152419929 73.0525623,0.152419929 L62.9487544,0.152419929 C62.9487544,0.152419929 60.6619217,0.120355872 59.2492883,1.53843416 C57.83121,2.95651246 57.9885053,5.78177936 57.9885053,5.78177936 L57.9885053,29.1244128 L61.05879,30.7397153 L61.05879,5.88825623 C61.05879,5.88825623 61.0460854,4.70551601 61.7623843,3.97953737 C62.4829181,3.26565836 63.234306,3.22270463 63.234306,3.22270463 L70.9690036,3.22270463 C70.9690036,3.22330961 71.2218861,3.20153025 71.4058007,3.38846975 C71.5231673,3.49978648 71.5340569,3.84160142 71.5340569,3.84160142 L71.5340569,19.8597153 C71.5340569,19.8597153 71.5794306,20.1797509 71.3894662,20.3346263 C71.1632028,20.5258007 70.7772242,20.2965125 70.7772242,20.2965125 L67.7728826,18.6927046 L67.7728826,22.1731673 L73.1511744,25.0516726 C73.1511744,25.0516726 73.6980783,25.3874377 74.2201779,25.0468327 C74.6013167,24.8066548 74.6013167,24.0123132 74.6013167,24.0123132 L74.6013167,1.71992883 C74.6013167,1.71992883 74.6975089,1.15487544 74.1560498,0.605551601" id="Fill-13"></path>
                    <path d="M56.6321352,7.29544484 L56.6321352,1.9758363 C56.6321352,1.9758363 56.6986833,0.914697509 56.2213523,0.499074733 C55.754911,0.0888967972 54.6967972,0.152419929 54.6967972,0.152419929 L45.3607117,0.152419929 C45.3607117,0.152419929 42.4368327,-0.0980427046 41.0429537,1.30370107 C39.6460498,2.70060498 39.9606406,5.80295374 39.9606406,5.80295374 L39.9606406,16.7622064 C39.9606406,16.7622064 39.8916726,17.8179004 40.3042705,18.2819217 C40.7229181,18.7562278 41.7786121,18.6927046 41.7786121,18.6927046 L51.1576512,18.6927046 C51.1576512,18.6927046 53.884306,18.7459431 55.3017794,17.3278648 C56.7198577,15.9097865 56.6321352,13.1643772 56.6321352,13.1643772 L56.6321352,7.29544484 L56.6321352,7.29544484 Z M52.8630961,14.9666192 C52.085089,15.7446263 50.7976868,15.6218149 50.7976868,15.6218149 L43.6552669,15.6218149 C43.6552669,15.6218149 43.3697153,15.6647687 43.1858007,15.4778292 C42.9831317,15.2751601 43.0279004,14.9823488 43.0279004,14.9823488 L43.0279004,5.6002847 C43.0279004,5.6002847 42.937758,4.43266904 43.6014235,3.77747331 C44.2602491,3.11683274 45.5494662,3.22270463 45.5494662,3.22270463 L52.9272242,3.22270463 C52.9272242,3.22330961 53.2121708,3.18035587 53.4233096,3.37758007 C53.6017794,3.56391459 53.5594306,3.8524911 53.5594306,3.8524911 L53.5594306,7.54106762 L53.5642705,7.54106762 L53.5594306,13.1540925 C53.5594306,13.1540925 53.647153,14.1831673 52.8630961,14.9666192 L52.8630961,14.9666192 Z" id="Fill-14"></path>
                    <path d="M0.859430605,52.1209964 L0.859430605,39.3486121 L2.06395018,39.3486121 L2.06395018,45.9634875 L8.61046263,39.3486121 L9.97711744,39.3486121 L4.94003559,44.4389324 L10.8646263,52.1209964 L9.39088968,52.1209964 L4.06825623,45.1854804 L2.06395018,47.1897865 L2.06395018,52.1209964 L0.859430605,52.1209964" id="Fill-15"></path>
                    <path d="M12.1229893,45.7505338 C12.1229893,44.8176512 12.2482206,43.943452 12.5041281,43.127331 C12.7570107,42.3124199 13.1327046,41.5979359 13.63121,40.9899288 C14.1272954,40.3825267 14.7425623,39.8979359 15.4758007,39.5452313 C16.2084342,39.1888968 17.0535943,39.012847 18.0137011,39.012847 C19.0046619,39.012847 19.8776512,39.1888968 20.6290391,39.5349466 C21.381032,39.8870463 22.0071886,40.3613523 22.5105338,40.9741993 C23.0114591,41.5822064 23.3901779,42.2960854 23.6460854,43.1170463 C23.899573,43.943452 24.0272242,44.8176512 24.0272242,45.7505338 C24.0272242,46.6785765 23.899573,47.5412811 23.6460854,48.3519573 C23.3901779,49.1620285 23.0175089,49.8710676 22.5190036,50.4790747 C22.0235231,51.0913167 21.4022064,51.5710676 20.6556584,51.9286121 C19.9121352,52.2801068 19.0476157,52.4561566 18.0669395,52.4561566 C17.0832384,52.4561566 16.2193238,52.2801068 15.4758007,51.9286121 C14.7298577,51.5710676 14.1085409,51.0913167 13.6124555,50.4790747 C13.1169751,49.8710676 12.744306,49.1620285 12.4962633,48.3519573 C12.2451957,47.5412811 12.1229893,46.6785765 12.1229893,45.7505338 L12.1229893,45.7505338 Z M18.082669,51.4276868 C18.9114947,51.4276868 19.6247687,51.2728114 20.2212811,50.9588256 C20.8183986,50.6496797 21.3090391,50.2280071 21.6956228,49.7113523 C22.0791815,49.1886477 22.3617082,48.5866904 22.5456228,47.8988256 C22.7295374,47.2164057 22.8202847,46.4970819 22.8202847,45.7505338 C22.8202847,44.8654448 22.7107829,44.0717082 22.4923843,43.3675089 C22.2739858,42.6645196 21.9563701,42.0619573 21.5437722,41.5658719 C21.1305694,41.0703915 20.6266192,40.6916726 20.0349466,40.4303203 C19.443274,40.169573 18.7808185,40.0413167 18.0475801,40.0413167 C17.232669,40.0413167 16.5236299,40.201637 15.9259075,40.5210676 C15.329395,40.8411032 14.8393594,41.2615658 14.4551957,41.7897153 C14.071032,42.3124199 13.7860854,42.9198221 13.6051957,43.6070819 C13.4212811,44.2949466 13.3281139,45.0100356 13.3281139,45.7505338 C13.3281139,46.5128114 13.4212811,47.2321352 13.6051957,47.92 C13.7860854,48.6024199 14.071032,49.2043772 14.4551957,49.7270819 C14.8393594,50.2497865 15.329395,50.6599644 15.9259075,50.9691103 C16.5236299,51.2782562 17.2429537,51.4276868 18.082669,51.4276868 L18.082669,51.4276868 Z" id="Fill-16"></path>
                    <path d="M26.4925267,52.1209964 L26.4925267,39.3486121 L27.6970463,39.3486121 L27.6970463,45.9634875 L34.2435587,39.3486121 L35.6108185,39.3486121 L30.5731317,44.4389324 L36.4983274,52.1209964 L35.0245907,52.1209964 L29.7019573,45.1854804 L27.6970463,47.1897865 L27.6970463,52.1209964 L26.4925267,52.1209964" id="Fill-17"></path>
                    <path d="M37.7591103,45.7505338 C37.7591103,44.8176512 37.8843416,43.943452 38.1402491,43.127331 C38.3931317,42.3124199 38.7688256,41.5979359 39.267331,40.9899288 C39.7634164,40.3825267 40.3786833,39.8979359 41.1119217,39.5452313 C41.8445552,39.1888968 42.6903203,39.012847 43.6498221,39.012847 C44.6407829,39.012847 45.5125623,39.1888968 46.2639502,39.5349466 C47.0153381,39.8870463 47.6420996,40.3613523 48.1454448,40.9741993 C48.6463701,41.5822064 49.025089,42.2960854 49.2809964,43.1170463 C49.534484,43.943452 49.6621352,44.8176512 49.6621352,45.7505338 C49.6621352,46.6785765 49.534484,47.5412811 49.2809964,48.3519573 C49.025089,49.1620285 48.6518149,49.8710676 48.1539146,50.4790747 C47.6584342,51.0913167 47.0365125,51.5710676 46.2905694,51.9286121 C45.5470463,52.2801068 44.6837367,52.4561566 43.7030605,52.4561566 C42.7193594,52.4561566 41.8554448,52.2801068 41.1119217,51.9286121 C40.3659786,51.5710676 39.7452669,51.0913167 39.2485765,50.4790747 C38.7530961,49.8710676 38.380427,49.1620285 38.1323843,48.3519573 C37.8813167,47.5412811 37.7591103,46.6785765 37.7591103,45.7505338 L37.7591103,45.7505338 Z M43.71879,51.4276868 C44.5476157,51.4276868 45.2590747,51.2728114 45.8561922,50.9588256 C46.4533096,50.6496797 46.9439502,50.2280071 47.3305338,49.7113523 C47.7140925,49.1886477 47.9966192,48.5866904 48.1805338,47.8988256 C48.3644484,47.2164057 48.4551957,46.4970819 48.4551957,45.7505338 C48.4551957,44.8654448 48.345694,44.0717082 48.1272954,43.3675089 C47.9088968,42.6645196 47.5912811,42.0619573 47.1786833,41.5658719 C46.7648754,41.0703915 46.2615302,40.6916726 45.6698577,40.4303203 C45.0781851,40.169573 44.4169395,40.0413167 43.6837011,40.0413167 C42.86879,40.0413167 42.1597509,40.201637 41.5620285,40.5210676 C40.965516,40.8411032 40.4754804,41.2615658 40.0913167,41.7897153 C39.707153,42.3124199 39.4222064,42.9198221 39.2413167,43.6070819 C39.0574021,44.2949466 38.9642349,45.0100356 38.9642349,45.7505338 C38.9642349,46.5128114 39.0574021,47.2321352 39.2413167,47.92 C39.4222064,48.6024199 39.707153,49.2043772 40.0913167,49.7270819 C40.4754804,50.2497865 40.965516,50.6599644 41.5620285,50.9691103 C42.1597509,51.2782562 42.8790747,51.4276868 43.71879,51.4276868 L43.71879,51.4276868 Z" id="Fill-18"></path>
                </g>
                <g id="icon" transform="translate(0.000000, 0.335838)" sketch:type="MSShapeGroup">
                    <path d="M30.5275185,7.43788889 C31.6225185,5.96166667 31.8820741,3.139 30.2436296,1.45188889 C28.5484074,-0.289296296 25.3445185,-0.135185185 23.5438519,0.551555556 C20.294,1.78444444 17.4253704,3.39855556 14.7054444,5.42633333 C6.21311111,11.7584074 0.740814815,21.7053333 0.740814815,32.895963 C0.740814815,52.0165556 16.7142963,67.5168889 36.4161852,67.5168889 C56.1234815,67.5168889 72.096963,52.0165556 72.096963,32.895963 C72.096963,26.8234444 70.4774444,21.1186296 67.6466667,16.1573333 C67.3384444,15.4949259 66.3624074,15.7112222 66.530037,16.2844074 C69.0931481,23.6438889 68.0387037,32.5742222 62.9665556,40.1094444 C54.9176296,52.076037 39.8012222,55.991 29.2054074,48.8586296 C18.6095926,41.7262593 16.5412593,26.2502593 24.5928889,14.2863704 C26.0853333,12.0693333 29.1648519,9.26559259 30.5275185,7.43788889" id="Fill-1" fill-opacity="0.5"></path>
                    <path d="M66.5543704,16.2222222 C66.5138148,16.3033333 66.4948889,16.4033704 66.530037,16.5196296 C69.0931481,23.8818148 68.0387037,32.8121481 62.9665556,40.3473704 C54.9176296,52.313963 39.8012222,56.2289259 29.2054074,49.0965556 C18.6095926,41.9641852 16.5412593,26.4854815 24.5928889,14.5242963 C26.0853333,12.309963 29.1648519,9.50351852 30.5275185,7.67311111 C31.6225185,6.2022963 31.8820741,3.37962963 30.2436296,1.69251852 C28.935037,0.348777778 26.7342222,0.135185185 24.9687037,0.419074074 C15.7788148,4.97751852 8.88437037,14.0917037 7.39462963,25.2958519 C5.05592593,42.8915556 16.9224815,58.9867037 33.8963333,61.2442963 C50.8701852,63.5018889 66.530037,51.0675556 68.866037,33.4691481 C69.6771481,27.3695926 68.7795185,21.4484815 66.5543704,16.2222222" id="Fill-2" fill-opacity="0.5"></path>
                    <path d="M72.096963,33.1365926 C72.096963,27.0640741 70.4774444,21.3565556 67.6466667,16.3952593 C67.3384444,15.7355556 66.3624074,15.9491481 66.530037,16.5196296 C69.0931481,23.8818148 68.0387037,32.8121481 62.9665556,40.3473704 C54.9176296,52.313963 39.8012222,56.2289259 29.2054074,49.0965556 C18.6095926,41.9641852 16.5412593,26.4854815 24.5928889,14.5242963 C26.0042222,12.4289259 28.8295926,9.81174074 30.2841852,7.98403704 C24.8227037,11.2906667 20.0777037,16.3087407 16.8954444,22.7084074 C8.82218519,38.9522593 13.9051481,57.8998148 28.251,65.0375926 C31.4792222,66.6381852 34.9021111,67.5087778 38.3628519,67.7061481 C57.1671111,66.7247037 72.096963,51.6245185 72.096963,33.1365926" id="Fill-3" fill-opacity="0.5"></path>
                    <path d="M24.5928889,14.5242963 C24.6848148,14.3891111 24.7821481,14.2512222 24.8848889,14.1133333 C24.9146296,14.0700741 24.9524815,14.0268148 24.9822222,13.9835556 C25.0579259,13.8862222 25.1282222,13.7915926 25.2066296,13.6888519 C25.2444815,13.6374815 25.2904444,13.5861111 25.3282963,13.5374444 C25.404,13.4428148 25.477,13.3481852 25.5554074,13.2535556 C25.5986667,13.2048889 25.6446296,13.1481111 25.6905926,13.094037 C25.7662963,13.0021111 25.8474074,12.9074815 25.9285185,12.8128519 C25.9717778,12.7614815 26.0177407,12.7074074 26.0637037,12.6587407 C26.1475185,12.5587037 26.234037,12.4586667 26.3232593,12.3586296 C26.3638148,12.3180741 26.4043704,12.2694074 26.4476296,12.2207407 C26.5422593,12.1152963 26.6395926,12.0071481 26.7342222,11.899 C26.7693704,11.8638519 26.8018148,11.8314074 26.8315556,11.7935556 C26.9451111,11.6691852 27.0613704,11.5448148 27.1749259,11.4258519 C27.1857407,11.4096296 27.1965556,11.3988148 27.2073704,11.3852963 C27.9400741,10.5931111 28.6862963,9.81174074 29.3297778,9.09525926 C29.3405926,9.08985185 29.3514074,9.07633333 29.3541111,9.06822222 C29.464963,8.94925926 29.5704074,8.8302963 29.6731481,8.71403704 C29.683963,8.70051852 29.6893704,8.6897037 29.7028889,8.67888889 C29.8029259,8.56262963 29.9002593,8.45177778 29.9921852,8.34092593 C29.9975926,8.33281481 30.0084074,8.3192963 30.0138148,8.31388889 C30.1084444,8.20303704 30.1976667,8.08948148 30.2841852,7.98403704 C24.8227037,11.2906667 20.0777037,16.3087407 16.8954444,22.7084074 C12.0152593,32.5255556 11.9422593,43.3295556 15.813963,51.9165185 C20.4751481,56.8751111 26.7315185,60.2952963 33.8963333,61.2442963 C50.8701852,63.5018889 66.530037,51.0675556 68.866037,33.4691481 C69.6771481,27.3695926 68.7795185,21.4484815 66.5543704,16.2222222 C66.548963,16.2411481 66.5408519,16.2573704 66.5327407,16.2762963 C66.530037,16.2844074 66.530037,16.2898148 66.5246296,16.2952222 C66.5219259,16.3114444 66.5192222,16.3303704 66.5192222,16.3465926 C66.5138148,16.3601111 66.5138148,16.3763333 66.5138148,16.3871481 L66.5138148,16.4304074 C66.5192222,16.4574444 66.5219259,16.4898889 66.530037,16.5196296 C69.0931481,23.8818148 68.0387037,32.8121481 62.9665556,40.3473704 C54.9176296,52.313963 39.8012222,56.2289259 29.2054074,49.0965556 C18.6095926,41.9641852 16.5412593,26.4854815 24.5928889,14.5242963" id="Fill-4"></path>
                    <path d="M56.8642963,19.8316667 C55.5097407,24.1332593 49.3804444,26.033963 43.1727407,24.0737778 C36.9704444,22.119 33.041963,17.0495556 34.3965185,12.7452593 C35.7537778,8.44637037 41.8803704,6.54566667 48.0853704,8.50314815 C54.2957778,10.4606296 58.2242593,15.5327778 56.8642963,19.8316667" id="Fill-5"></path>
                    <path d="M45.8007407,32.8121481 C45.2086296,34.6858148 42.5400741,35.5104444 39.8363704,34.6587778 C37.1326667,33.8044074 35.4266296,31.5954815 36.0133333,29.7245185 C36.6027407,27.8481481 39.274,27.0235185 41.9777037,27.8751852 C44.6787037,28.7295556 46.3928519,30.9357778 45.8007407,32.8121481" id="Fill-6"></path>
                </g>
            </g>
        </g>
    </g>
</svg>