<?xml version="1.0" encoding="UTF-8" standalone="no"?>
<svg width="110px" height="213px" viewBox="0 0 110 213" version="1.1" xmlns="http://www.w3.org/2000/svg" xmlns:xlink="http://www.w3.org/1999/xlink" xmlns:sketch="http://www.bohemiancoding.com/sketch/ns">
    <!-- Generator: Sketch 3.3 (11970) - http://www.bohemiancoding.com/sketch -->
    <title>logo</title>
    <desc>Created with Sketch.</desc>
    <defs></defs>
    <g id="Page-1" stroke="none" stroke-width="1" fill="none" fill-rule="evenodd" sketch:type="MSPage">
        <g id="启动页" sketch:type="MSArtboardGroup" transform="translate(-265.000000, -233.000000)" fill="#FFFFFF">
            <g id="logo" sketch:type="MSLayerGroup" transform="translate(265.000000, 233.000000)">
                <g id="text" transform="translate(0.000000, 134.000000)" sketch:type="MSShapeGroup">
                    <path d="M50.7761566,1.48669039 C49.9693594,0.675587189 49.1469039,0.818469751 49.1469039,0.818469751 L34.1587189,0.818469751 C34.1587189,0.818469751 30.7577224,0.771103203 28.6540214,2.87088968 C26.5581495,4.97459075 26.7953737,9.16672598 26.7953737,9.16672598 L26.7953737,43.8014591 L31.3511744,46.198363 L31.3511744,9.32448399 C31.3511744,9.32448399 31.3272954,7.56879004 32.3951957,6.49736655 C33.4627046,5.43338078 34.5779715,5.373879 34.5779715,5.373879 L46.0625979,5.373879 C46.0625979,5.373879 46.4340925,5.33864769 46.7030249,5.61540925 C46.8772242,5.7813879 46.9007117,6.29145907 46.9007117,6.29145907 L46.9007117,30.0549822 C46.9007117,30.0549822 46.9562989,30.5298221 46.6795374,30.7592171 C46.3393594,31.0438078 45.7776157,30.7036299 45.7776157,30.7036299 L41.316548,28.3227758 L41.316548,33.4876868 L49.2972242,37.7588968 C49.2972242,37.7588968 50.1040214,38.2568327 50.8869395,37.7506762 C51.4486833,37.3948399 51.4565125,36.216548 51.4565125,36.216548 L51.4565125,3.1394306 C51.4565125,3.1394306 51.5911744,2.30131673 50.7761566,1.48669039" id="Fill-11"></path>
                    <path d="M24.7942349,11.4125267 L24.7781851,11.4125267 L24.7781851,3.52345196 C24.7781851,3.52345196 24.8811388,1.94900356 24.1772954,1.33245552 C23.4812811,0.723345196 21.9150534,0.818469751 21.9150534,0.818469751 L8.05035587,0.818469751 C8.05035587,0.818469751 3.71572954,0.44658363 1.64373665,2.5224911 C-0.420818505,4.59487544 0.0458007117,9.1980427 0.0458007117,9.1980427 L0.0458007117,25.4596441 C0.0458007117,25.4596441 -0.0567615658,27.0258719 0.552348754,27.7140569 C1.17672598,28.4179004 2.74295374,28.3227758 2.74295374,28.3227758 L16.6632384,28.3227758 C16.6632384,28.3227758 20.7050534,28.402242 22.8169751,26.2981495 C24.912847,24.1944484 24.7781851,20.1209253 24.7781851,20.1209253 L24.7942349,11.4125267 L24.7942349,11.4125267 Z M19.1944128,22.7941993 C18.0396085,23.949395 16.1253737,23.7673665 16.1253737,23.7673665 L5.52701068,23.7673665 C5.52701068,23.7673665 5.09992883,23.8303915 4.83099644,23.5536299 C4.52252669,23.2529893 4.60160142,22.8180783 4.60160142,22.8180783 L4.60160142,8.89740214 C4.60160142,8.89740214 4.45950178,7.16558719 5.44010676,6.19241993 C6.42071174,5.21181495 8.3427758,5.373879 8.3427758,5.373879 L19.2813167,5.373879 C19.2813167,5.373879 19.7083986,5.3069395 20.0168683,5.59975089 C20.2858007,5.88003559 20.2227758,6.30711744 20.2227758,6.30711744 L20.2227758,20.1048754 C20.2227758,20.1048754 20.3570463,21.6319573 19.1944128,22.7941993 L19.1944128,22.7941993 Z" id="Fill-12"></path>
                    <path d="M109.100036,1.48669039 C108.285409,0.675587189 107.462562,0.818469751 107.462562,0.818469751 L92.4743772,0.818469751 C92.4743772,0.818469751 89.08121,0.771103203 86.9853381,2.87088968 C84.8812456,4.97459075 85.1106406,9.16672598 85.1106406,9.16672598 L85.1106406,43.8014591 L89.6664413,46.198363 L89.6664413,9.32448399 C89.6664413,9.32448399 89.6507829,7.56879004 90.7104626,6.49736655 C91.778363,5.43338078 92.8932384,5.373879 92.8932384,5.373879 L104.370036,5.373879 C104.370036,5.373879 104.749359,5.33864769 105.018683,5.61540925 C105.192491,5.7813879 105.208149,6.29145907 105.208149,6.29145907 L105.208149,30.0549822 C105.208149,30.0549822 105.279395,30.5298221 104.994804,30.7592171 C104.662847,31.0438078 104.085053,30.7036299 104.085053,30.7036299 L99.6322064,28.3227758 L99.6322064,33.4876868 L107.612883,37.7588968 C107.612883,37.7588968 108.419288,38.2568327 109.194769,37.7506762 C109.764342,37.3948399 109.764342,36.216548 109.764342,36.216548 L109.764342,3.1394306 C109.764342,3.1394306 109.906441,2.30131673 109.100036,1.48669039" id="Fill-13"></path>
                    <path d="M83.1020641,11.4125267 L83.1020641,3.52345196 C83.1020641,3.52345196 83.1967972,1.94900356 82.4929537,1.33245552 C81.7969395,0.723345196 80.2307117,0.818469751 80.2307117,0.818469751 L66.373452,0.818469751 C66.373452,0.818469751 62.0392171,0.44658363 59.9672242,2.5224911 C57.8948399,4.59487544 58.3614591,9.1980427 58.3614591,9.1980427 L58.3614591,25.4596441 C58.3614591,25.4596441 58.2585053,27.0258719 58.8754448,27.7140569 C59.4923843,28.4179004 61.0586121,28.3227758 61.0586121,28.3227758 L74.9788968,28.3227758 C74.9788968,28.3227758 79.0207117,28.402242 81.1244128,26.2981495 C83.2285053,24.1944484 83.1020641,20.1209253 83.1020641,20.1209253 L83.1020641,11.4125267 L83.1020641,11.4125267 Z M77.5096797,22.7941993 C76.3548754,23.949395 74.4414235,23.7673665 74.4414235,23.7673665 L63.8422776,23.7673665 C63.8422776,23.7673665 63.4234164,23.8303915 63.1466548,23.5536299 C62.8460142,23.2529893 62.9172598,22.8180783 62.9172598,22.8180783 L62.9172598,8.89740214 C62.9172598,8.89740214 62.7825979,7.16558719 63.7632028,6.19241993 C64.7441993,5.21181495 66.6584342,5.373879 66.6584342,5.373879 L77.6048043,5.373879 C77.6048043,5.373879 78.0240569,5.3069395 78.3407473,5.59975089 C78.6010676,5.88003559 78.5380427,6.30711744 78.5380427,6.30711744 L78.5380427,11.7765836 L78.5458719,11.7765836 L78.5380427,20.1048754 C78.5380427,20.1048754 78.6723132,21.6319573 77.5096797,22.7941993 L77.5096797,22.7941993 Z" id="Fill-14"></path>
                    <path d="M18.6784698,77.926121 L18.6784698,58.9755872 L20.4658719,58.9755872 L20.4658719,68.791032 L30.178363,58.9755872 L32.21121,58.9755872 L24.7366904,66.52879 L33.5241637,77.926121 L31.3413879,77.926121 L23.4397865,67.6362278 L20.4658719,70.6101423 L20.4658719,77.926121 L18.6784698,77.926121" id="Fill-15"></path>
                    <path d="M35.3906406,68.4747331 C35.3906406,67.0905338 35.5804982,65.7932384 35.9602135,64.5793238 C36.3320996,63.3693238 36.893452,62.3135587 37.6290036,61.4077224 C38.3645552,60.5058007 39.2821352,59.7902135 40.365694,59.2640925 C41.4570819,58.738363 42.7070107,58.4733452 44.1303559,58.4733452 C45.6018505,58.4733452 46.8987544,58.7344484 48.0140214,59.2523488 C49.1292883,59.7702491 50.0546975,60.4783986 50.8059075,61.3842349 C51.5496797,62.2853737 52.111032,63.3493594 52.4907473,64.5671886 C52.8626335,65.7897153 53.0520996,67.0905338 53.0520996,68.4747331 C53.0520996,69.8471886 52.8626335,71.1323488 52.4907473,72.3341281 C52.111032,73.5366904 51.5575089,74.5885409 50.8141281,75.4904626 C50.0781851,76.3959075 49.1609964,77.1114947 48.0535587,77.6376157 C46.946121,78.1637367 45.6648754,78.4248399 44.2098221,78.4248399 C42.7543772,78.4248399 41.4731317,78.1637367 40.365694,77.6376157 C39.2586477,77.1114947 38.3410676,76.3959075 37.605516,75.4904626 C36.8699644,74.5885409 36.3160498,73.5366904 35.9445552,72.3341281 C35.572669,71.1323488 35.3906406,69.8471886 35.3906406,68.4747331 L35.3906406,68.4747331 Z M44.2333096,76.897758 C45.4671886,76.897758 46.5190391,76.668363 47.404911,76.2021352 C48.2907829,75.7394306 49.0185053,75.1181851 49.5959075,74.3474021 C50.1654804,73.5762278 50.5847331,72.6782206 50.8536655,71.6619929 C51.130427,70.6457651 51.2646975,69.5817794 51.2646975,68.4747331 C51.2646975,67.1617794 51.0987189,65.9791815 50.7745907,64.9355516 C50.4500712,63.8911388 49.983452,63.0013523 49.3665125,62.2658007 C48.7574021,61.5263345 48.0061922,60.9645907 47.1281495,60.5813523 C46.2501068,60.1934164 45.2695018,59.9996441 44.1859431,59.9996441 C42.9759431,59.9996441 41.9237011,60.2372598 41.0382206,60.7117082 C40.1519573,61.1861566 39.4242349,61.8109253 38.8550534,62.5938434 C38.2854804,63.3732384 37.8583986,64.2747687 37.5894662,65.2909964 C37.3205338,66.3115302 37.1784342,67.37121 37.1784342,68.4747331 C37.1784342,69.6017438 37.3205338,70.6696441 37.5894662,71.6897865 C37.8583986,72.7060142 38.2854804,73.6001068 38.8550534,74.3708897 C39.4242349,75.1463701 40.1519573,75.7590036 41.0382206,76.213879 C41.9237011,76.672669 42.9916014,76.897758 44.2333096,76.897758 L44.2333096,76.897758 Z" id="Fill-16"></path>
                    <path d="M56.7141993,77.926121 L56.7141993,58.9755872 L58.5016014,58.9755872 L58.5016014,68.791032 L68.214484,58.9755872 L70.2391103,58.9755872 L62.7649822,66.52879 L71.5598932,77.926121 L69.3692883,77.926121 L61.4759075,67.6362278 L58.5016014,70.6101423 L58.5016014,77.926121 L56.7141993,77.926121" id="Fill-17"></path>
                    <path d="M73.4267616,68.4747331 C73.4267616,67.0905338 73.6166192,65.7932384 73.9963345,64.5793238 C74.3678292,63.3693238 74.929573,62.3135587 75.6651246,61.4077224 C76.4002847,60.5058007 77.3178648,59.7902135 78.4018149,59.2640925 C79.4932028,58.738363 80.7427402,58.4733452 82.1664769,58.4733452 C83.6375801,58.4733452 84.9348754,58.7344484 86.0501423,59.2523488 C87.1654093,59.7702491 88.0908185,60.4783986 88.8420285,61.3842349 C89.5854093,62.2853737 90.147153,63.3493594 90.5264769,64.5671886 C90.8987544,65.7897153 91.0882206,67.0905338 91.0882206,68.4747331 C91.0882206,69.8471886 90.8987544,71.1323488 90.5264769,72.3341281 C90.147153,73.5366904 89.5936299,74.5885409 88.8498577,75.4904626 C88.114306,76.3959075 87.1971174,77.1114947 86.0892883,77.6376157 C84.982242,78.1637367 83.7009964,78.4248399 82.2455516,78.4248399 C80.7901068,78.4248399 79.5088612,78.1637367 78.4018149,77.6376157 C77.2943772,77.1114947 76.3767972,76.3959075 75.6412456,75.4904626 C74.905694,74.5885409 74.3521708,73.5366904 73.9802847,72.3341281 C73.60879,71.1323488 73.4267616,69.8471886 73.4267616,68.4747331 L73.4267616,68.4747331 Z M82.2694306,76.897758 C83.5033096,76.897758 84.5551601,76.668363 85.441032,76.2021352 C86.3269039,75.7394306 87.0542349,75.1181851 87.6320285,74.3474021 C88.20121,73.5762278 88.6204626,72.6782206 88.889395,71.6619929 C89.1661566,70.6457651 89.3008185,69.5817794 89.3008185,68.4747331 C89.3008185,67.1617794 89.1348399,65.9791815 88.8103203,64.9355516 C88.4861922,63.8911388 88.0191815,63.0013523 87.4026335,62.2658007 C86.7935231,61.5263345 86.0419217,60.9645907 85.1642705,60.5813523 C84.2862278,60.1934164 83.3052313,59.9996441 82.2220641,59.9996441 C81.0116726,59.9996441 79.9598221,60.2372598 79.0739502,60.7117082 C78.1880783,61.1861566 77.4607473,61.8109253 76.8907829,62.5938434 C76.32121,63.3732384 75.8945196,64.2747687 75.6255872,65.2909964 C75.3566548,66.3115302 75.2141637,67.37121 75.2141637,68.4747331 C75.2141637,69.6017438 75.3566548,70.6696441 75.6255872,71.6897865 C75.8945196,72.7060142 76.32121,73.6001068 76.8907829,74.3708897 C77.4607473,75.1463701 78.1880783,75.7590036 79.0739502,76.213879 C79.9598221,76.672669 81.0277224,76.897758 82.2694306,76.897758 L82.2694306,76.897758 Z" id="Fill-18"></path>
                </g>
                <g id="icon" transform="translate(2.000000, 0.000000)" sketch:type="MSShapeGroup">
                    <path d="M45.164,11.004 C46.784,8.82 47.168,4.644 44.744,2.148 C42.236,-0.428 37.496,-0.2 34.832,0.816 C30.024,2.64 25.78,5.028 21.756,8.028 C9.192,17.396 1.096,32.112 1.096,48.668 C1.096,76.956 24.728,99.888 53.876,99.888 C83.032,99.888 106.664,76.956 106.664,48.668 C106.664,39.684 104.268,31.244 100.08,23.904 C99.624,22.924 98.18,23.244 98.428,24.092 C102.22,34.98 100.66,48.192 93.156,59.34 C81.248,77.044 58.884,82.836 43.208,72.284 C27.532,61.732 24.472,38.836 36.384,21.136 C38.592,17.856 43.148,13.708 45.164,11.004" id="Fill-1" fill-opacity="0.5"></path>
                    <path d="M98.464,24 C98.404,24.12 98.376,24.268 98.428,24.44 C102.22,35.332 100.66,48.544 93.156,59.692 C81.248,77.396 58.884,83.188 43.208,72.636 C27.532,62.084 24.472,39.184 36.384,21.488 C38.592,18.212 43.148,14.06 45.164,11.352 C46.784,9.176 47.168,5 44.744,2.504 C42.808,0.516 39.552,0.2 36.94,0.62 C23.344,7.364 13.144,20.848 10.94,37.424 C7.48,63.456 25.036,87.268 50.148,90.608 C75.26,93.948 98.428,75.552 101.884,49.516 C103.084,40.492 101.756,31.732 98.464,24" id="Fill-2" fill-opacity="0.5"></path>
                    <path d="M106.664,49.024 C106.664,40.04 104.268,31.596 100.08,24.256 C99.624,23.28 98.18,23.596 98.428,24.44 C102.22,35.332 100.66,48.544 93.156,59.692 C81.248,77.396 58.884,83.188 43.208,72.636 C27.532,62.084 24.472,39.184 36.384,21.488 C38.472,18.388 42.652,14.516 44.804,11.812 C36.724,16.704 29.704,24.128 24.996,33.596 C13.052,57.628 20.572,85.66 41.796,96.22 C46.572,98.588 51.636,99.876 56.756,100.168 C84.576,98.716 106.664,76.376 106.664,49.024" id="Fill-3" fill-opacity="0.5"></path>
                    <path d="M36.384,21.488 C36.52,21.288 36.664,21.084 36.816,20.88 C36.86,20.816 36.916,20.752 36.96,20.688 C37.072,20.544 37.176,20.404 37.292,20.252 C37.348,20.176 37.416,20.1 37.472,20.028 C37.584,19.888 37.692,19.748 37.808,19.608 C37.872,19.536 37.94,19.452 38.008,19.372 C38.12,19.236 38.24,19.096 38.36,18.956 C38.424,18.88 38.492,18.8 38.56,18.728 C38.684,18.58 38.812,18.432 38.944,18.284 C39.004,18.224 39.064,18.152 39.128,18.08 C39.268,17.924 39.412,17.764 39.552,17.604 C39.604,17.552 39.652,17.504 39.696,17.448 C39.864,17.264 40.036,17.08 40.204,16.904 C40.22,16.88 40.236,16.864 40.252,16.844 C41.336,15.672 42.44,14.516 43.392,13.456 C43.408,13.448 43.424,13.428 43.428,13.416 C43.592,13.24 43.748,13.064 43.9,12.892 C43.916,12.872 43.924,12.856 43.944,12.84 C44.092,12.668 44.236,12.504 44.372,12.34 C44.38,12.328 44.396,12.308 44.404,12.3 C44.544,12.136 44.676,11.968 44.804,11.812 C36.724,16.704 29.704,24.128 24.996,33.596 C17.776,48.12 17.668,64.104 23.396,76.808 C30.292,84.144 39.548,89.204 50.148,90.608 C75.26,93.948 98.428,75.552 101.884,49.516 C103.084,40.492 101.756,31.732 98.464,24 C98.456,24.028 98.444,24.052 98.432,24.08 C98.428,24.092 98.428,24.1 98.42,24.108 C98.416,24.132 98.412,24.16 98.412,24.184 C98.404,24.204 98.404,24.228 98.404,24.244 L98.404,24.308 C98.412,24.348 98.416,24.396 98.428,24.44 C102.22,35.332 100.66,48.544 93.156,59.692 C81.248,77.396 58.884,83.188 43.208,72.636 C27.532,62.084 24.472,39.184 36.384,21.488" id="Fill-4"></path>
                    <path d="M84.128,29.34 C82.124,35.704 73.056,38.516 63.872,35.616 C54.696,32.724 48.884,25.224 50.888,18.856 C52.896,12.496 61.96,9.684 71.14,12.58 C80.328,15.476 86.14,22.98 84.128,29.34" id="Fill-5"></path>
                    <path d="M67.76,48.544 C66.884,51.316 62.936,52.536 58.936,51.276 C54.936,50.012 52.412,46.744 53.28,43.976 C54.152,41.2 58.104,39.98 62.104,41.24 C66.1,42.504 68.636,45.768 67.76,48.544" id="Fill-6"></path>
                </g>
            </g>
        </g>
    </g>
</svg>