<?xml version="1.0" encoding="UTF-8" standalone="no"?>
<svg width="30px" height="35px" viewBox="0 0 30 35" version="1.1" xmlns="http://www.w3.org/2000/svg" xmlns:xlink="http://www.w3.org/1999/xlink" xmlns:sketch="http://www.bohemiancoding.com/sketch/ns">
    <!-- Generator: Sketch 3.3 (11970) - http://www.bohemiancoding.com/sketch -->
    <title>umbrella</title>
    <desc>Created with Sketch.</desc>
    <defs></defs>
    <g id="Page-1" stroke="none" stroke-width="1" fill="none" fill-rule="evenodd" sketch:type="MSPage">
        <g id="菜单" sketch:type="MSArtboardGroup" transform="translate(-149.000000, -881.000000)" fill="#FFFFFF">
            <g id="main" sketch:type="MSLayerGroup" transform="translate(30.000000, 301.000000)">
                <g id="menu" transform="translate(0.000000, 0.500000)" sketch:type="MSShapeGroup">
                    <g id="大楼环境监测" transform="translate(49.000000, 503.000000)">
                        <path d="M99.7017822,93.9965347 C99.6765347,86.0747525 93.4160396,79.5932673 85.580396,79.2121782 L85.580396,78.1657426 C85.580396,77.7623762 85.2536634,77.4356436 84.8511881,77.4356436 C84.4478218,77.4356436 84.1210891,77.7626733 84.1210891,78.1657426 L84.1210891,79.2118812 C76.27,79.5938614 70,86.1 70,94.0443564 C70,94.4468317 70.3270297,94.7741584 70.729802,94.7741584 C71.1322772,94.7741584 71.4593069,94.4468317 71.4593069,94.0443564 C71.4593069,91.8513861 73.2435644,90.0671287 75.4365347,90.0671287 C77.629802,90.0671287 79.4140594,91.8510891 79.4140594,94.0443564 C79.4140594,94.4468317 79.7407921,94.7741584 80.1438614,94.7741584 C80.5469307,94.7741584 80.8739604,94.4468317 80.8739604,94.0443564 C80.8739604,92.1008911 82.2759406,90.4814851 84.1210891,90.1372277 L84.1210891,107.624554 C84.1210891,108.489505 83.4171287,109.193762 82.5521782,109.193762 C81.6869307,109.193762 80.9829703,108.489802 80.9829703,107.624554 C80.9829703,107.220891 80.6565347,106.89505 80.2534653,106.89505 C79.8506931,106.89505 79.5236634,107.220891 79.5236634,107.624554 C79.5236634,109.294455 80.8819802,110.653069 82.5521782,110.653069 C84.2223762,110.653069 85.5806931,109.294455 85.5806931,107.624554 L85.5806931,90.1372277 C87.4255446,90.4814851 88.8278218,92.1008911 88.8278218,94.0443564 C88.8278218,94.4468317 89.1542574,94.7741584 89.5573267,94.7741584 C89.9606931,94.7741584 90.2871287,94.4468317 90.2871287,94.0443564 C90.2871287,91.8513861 92.0713861,90.0671287 94.2646535,90.0671287 C96.4585149,90.0671287 98.2427723,91.8510891 98.2427723,94.0443564 C98.2427723,94.4468317 98.5706931,94.7741584 98.9725743,94.7741584 L98.9737624,94.7741584 C99.3756436,94.7741584 99.7035644,94.4468317 99.7035644,94.0443564 C99.7032673,94.0283168 99.7026733,94.0125743 99.7017822,93.9965347" id="umbrella"></path>
                    </g>
                </g>
            </g>
        </g>
    </g>
</svg>