<?xml version="1.0" encoding="UTF-8" standalone="no"?>
<svg width="26px" height="26px" viewBox="0 0 26 26" version="1.1" xmlns="http://www.w3.org/2000/svg" xmlns:xlink="http://www.w3.org/1999/xlink" xmlns:sketch="http://www.bohemiancoding.com/sketch/ns">
    <!-- Generator: Sketch 3.3.2 (12043) - http://www.bohemiancoding.com/sketch -->
    <title>Imported Layers Copy</title>
    <desc>Created with Sketch.</desc>
    <defs></defs>
    <g id="Page-1" stroke="none" stroke-width="1" fill="none" fill-rule="evenodd" sketch:type="MSPage">
        <g id="菜单" sketch:type="MSArtboardGroup" transform="translate(-82.000000, -308.000000)" fill="#FFFFFF">
            <g id="main" sketch:type="MSLayerGroup" transform="translate(30.000000, 301.000000)">
                <g id="menu" transform="translate(0.000000, 0.500000)" sketch:type="MSShapeGroup">
                    <g id="门禁卡" transform="translate(52.000000, 0.000000)">
                        <path d="M0,32.4324675 L10.8051948,32.4324675 L10.8051948,21.6272727 L0,21.6272727 L0,32.4324675 Z M2.16103896,23.7883117 L8.64415584,23.7883117 L8.64415584,30.2714286 L2.16103896,30.2714286 L2.16103896,23.7883117 Z M4.32207792,20.5467532 L10.8051948,20.5467532 L10.8051948,18.3857143 L4.32207792,18.3857143 L4.32207792,20.5467532 Z M11.8857143,17.3051948 L14.0467532,17.3051948 L14.0467532,12.9831169 L11.8857143,12.9831169 L11.8857143,17.3051948 Z M0,20.5467532 L2.16103896,20.5467532 L2.16103896,18.3857143 L0,18.3857143 L0,20.5467532 Z M11.8857143,11.9025974 L14.0467532,11.9025974 L14.0467532,9.74155844 L11.8857143,9.74155844 L11.8857143,11.9025974 Z M11.8857143,8.66103896 L14.0467532,8.66103896 L14.0467532,6.5 L11.8857143,6.5 L11.8857143,8.66103896 Z M0,17.3051948 L10.8051948,17.3051948 L10.8051948,6.5 L0,6.5 L0,17.3051948 Z M2.16103896,8.66103896 L8.64415584,8.66103896 L8.64415584,15.1441558 L2.16103896,15.1441558 L2.16103896,8.66103896 Z M15.1272727,17.3051948 L25.9324675,17.3051948 L25.9324675,6.5 L15.1272727,6.5 L15.1272727,17.3051948 Z M17.2883117,8.66103896 L23.7714286,8.66103896 L23.7714286,15.1441558 L17.2883117,15.1441558 L17.2883117,8.66103896 Z M23.7714286,24.8688312 L25.9324675,24.8688312 L25.9324675,22.7077922 L23.7714286,22.7077922 L23.7714286,24.8688312 Z M23.7714286,30.2714286 L22.6909091,30.2714286 L22.6909091,28.1103896 L20.5298701,28.1103896 L20.5298701,30.2714286 L18.3688312,30.2714286 L18.3688312,32.4324675 L25.9324675,32.4324675 L25.9324675,27.0298701 L23.7714286,27.0298701 L23.7714286,30.2714286 L23.7714286,30.2714286 Z M18.3688312,28.1103896 L20.5298701,28.1103896 L20.5298701,25.9493506 L18.3688312,25.9493506 L18.3688312,28.1103896 Z M23.7714286,20.5467532 L25.9324675,20.5467532 L25.9324675,18.3857143 L23.7714286,18.3857143 L23.7714286,20.5467532 Z M16.2077922,30.2714286 L18.3688312,30.2714286 L18.3688312,28.1103896 L16.2077922,28.1103896 L16.2077922,30.2714286 Z M16.2077922,22.7077922 L16.2077922,24.8688312 L22.6909091,24.8688312 L22.6909091,22.7077922 L20.5298701,22.7077922 L20.5298701,20.5467532 L18.3688312,20.5467532 L18.3688312,22.7077922 L16.2077922,22.7077922 L16.2077922,22.7077922 Z M16.2077922,20.5467532 L18.3688312,20.5467532 L18.3688312,18.3857143 L16.2077922,18.3857143 L16.2077922,19.4662338 L14.0467532,19.4662338 L14.0467532,21.6272727 L16.2077922,21.6272727 L16.2077922,20.5467532 L16.2077922,20.5467532 Z M14.0467532,27.0298701 L16.2077922,27.0298701 L16.2077922,24.8688312 L14.0467532,24.8688312 L14.0467532,21.6272727 L11.8857143,21.6272727 L11.8857143,32.4324675 L16.2077922,32.4324675 L16.2077922,30.2714286 L14.0467532,30.2714286 L14.0467532,27.0298701 L14.0467532,27.0298701 Z M20.5298701,20.5467532 L22.6909091,20.5467532 L22.6909091,18.3857143 L20.5298701,18.3857143 L20.5298701,20.5467532 Z" id="Imported-Layers-Copy"></path>
                    </g>
                </g>
            </g>
        </g>
    </g>
</svg>