<?xml version="1.0" encoding="UTF-8" standalone="no"?>
<svg width="32px" height="30px" viewBox="0 0 32 30" version="1.1" xmlns="http://www.w3.org/2000/svg" xmlns:xlink="http://www.w3.org/1999/xlink" xmlns:sketch="http://www.bohemiancoding.com/sketch/ns">
    <!-- Generator: Sketch 3.3.2 (12043) - http://www.bohemiancoding.com/sketch -->
    <title>icon</title>
    <desc>Created with Sketch.</desc>
    <defs></defs>
    <g id="Page-1" stroke="none" stroke-width="1" fill="none" fill-rule="evenodd" sketch:type="MSPage">
        <g id="菜单" sketch:type="MSArtboardGroup" transform="translate(-79.000000, -705.000000)" fill="#FFFFFF">
            <g id="main" sketch:type="MSLayerGroup" transform="translate(30.000000, 301.000000)">
                <g id="menu" transform="translate(0.000000, 0.500000)" sketch:type="MSShapeGroup">
                    <g id="大楼水牌" transform="translate(49.000000, 403.000000)">
                        <path d="M25.0798517,3.14399028 L6.39755932,3.14399028 L6.39755932,1.70766043 C6.39755932,1.55473774 6.42471381,1.40181506 6.48188117,1.2474632 C6.53761934,1.09454052 6.61193691,0.970201515 6.70626305,0.874446191 C6.79916,0.778690868 6.92206982,0.692939831 7.07213413,0.615763899 C7.22219845,0.538587966 7.37226276,0.5 7.52232707,0.5 L23.955084,0.5 C24.1037191,0.5 24.2552126,0.538587966 24.4052769,0.615763899 C24.553912,0.692939831 24.6768219,0.778690868 24.771148,0.874446191 C24.864045,0.970201515 24.9397917,1.09454052 24.9955299,1.2474632 C25.051268,1.40181506 25.0798517,1.55473774 25.0798517,1.70766043 L25.0798517,3.14399028 L25.0798517,3.14399028 Z M26.2617868,9.98263542 L5.2156242,9.98263542 L5.2156242,6.13241389 C5.2156242,6.01807918 5.23420359,5.90231528 5.27136237,5.78798056 C5.30852116,5.67221666 5.36425933,5.56788624 5.44000608,5.47213091 C5.51432364,5.37637559 5.60007468,5.29062455 5.69297164,5.21344862 C5.78729778,5.13627269 5.89019902,5.07910533 6.00310455,5.04051736 C6.04026333,5.00335858 6.06741783,4.98335001 6.0874264,4.98335001 L6.17174825,4.98335001 L6.28465379,4.98335001 L6.39755932,4.98335001 L25.0798517,4.98335001 L25.1927573,4.98335001 L25.3056628,4.98335001 L25.3899846,4.98335001 C25.408564,4.98335001 25.4357185,5.00335858 25.4743065,5.04051736 C25.587212,5.07910533 25.6901133,5.13627269 25.7830102,5.21344862 C25.8773364,5.29062455 25.9616582,5.37637559 26.037405,5.47213091 C26.1117225,5.56788624 26.1674607,5.67221666 26.2060487,5.78798056 C26.2432075,5.90231528 26.2617868,6.01807918 26.2617868,6.13241389 L26.2617868,9.98263542 L26.2617868,9.98263542 Z M30.8208836,10.0983993 C30.8952012,10.251322 30.979523,10.4342575 31.0738492,10.6443476 C31.1667461,10.8544376 31.2424929,11.0659568 31.298231,11.2760469 C31.3553984,11.4875661 31.4011323,11.7162355 31.4397202,11.9663427 C31.476879,12.2150207 31.476879,12.473703 31.4397202,12.7409604 C31.4011323,12.971059 31.3268147,13.9772045 31.2139092,15.7579677 C31.1010036,17.5401601 30.9695187,19.4466914 30.8208836,21.4761326 C30.6693901,23.5084322 30.5007464,26.1710019 30.3135233,29.4652708 C30.2377766,29.5796055 30.1534547,29.7053737 30.0605577,29.8382878 C29.9662316,29.9740603 29.8533261,30.088395 29.7232703,30.1841504 C29.5917854,30.2799057 29.4502962,30.3556524 29.3002319,30.4128198 C29.1501676,30.4714163 29.0001033,30.5 28.850039,30.5 L2.62594291,30.5 C2.4758786,30.5 2.32581428,30.4714163 2.17574997,30.4128198 C2.02568566,30.3556524 1.88562563,30.2799057 1.75414071,30.1841504 C1.62265579,30.088395 1.50975026,29.9740603 1.4168533,29.8382878 C1.32252716,29.7053737 1.23820531,29.5796055 1.16388774,29.4652708 C0.975235463,26.1710019 0.806591759,23.5084322 0.656527445,21.4761326 C0.506463132,19.4466914 0.37497821,17.5401601 0.263501863,15.7579677 C0.150596332,13.9772045 0.0748495833,12.971059 0.037690801,12.7409604 C0.000532018621,12.473703 -0.00947226893,12.2150207 0.00910712224,11.9663427 C0.0276865134,11.7162355 0.0748495833,11.4875661 0.150596332,11.2760469 C0.224913897,11.0659568 0.309235749,10.8544376 0.403561889,10.6443476 C0.496458844,10.4342575 0.580780697,10.251322 0.656527445,10.0983993 C0.732274194,10.0212234 0.82517115,9.8683007 0.938076681,9.63820209 C1.05098221,9.40810347 1.18246713,9.14084608 1.33253145,8.83357153 C1.48116658,8.52772617 1.64981028,8.19186794 1.83846256,7.82742604 C2.02568566,7.46441332 2.23291733,7.08996713 2.4572992,6.70694583 C2.4572992,6.66978705 2.46587431,6.64977848 2.48588288,6.64977848 C2.50446227,6.64977848 2.51446656,6.63119909 2.51446656,6.59261112 C2.55019616,6.55402315 2.58878413,6.51543519 2.62594291,6.47684722 C2.66310169,6.43968844 2.70168966,6.41110476 2.73884844,6.39109618 C2.77600722,6.37251679 2.813166,6.36251251 2.85175397,6.36251251 L2.9646595,6.36251251 C3.07613585,6.36251251 3.1604577,6.37251679 3.21762506,6.39109618 C3.27336323,6.41110476 3.33053059,6.44826354 3.38626876,6.5054309 C3.44200694,6.56402744 3.48917001,6.63119909 3.52632879,6.70694583 C3.56348757,6.78412177 3.58349615,6.8612977 3.58349615,6.93704445 L3.58349615,11.1902958 L3.58349615,11.3046306 C3.58349615,11.4189653 3.60207554,11.5061455 3.63923432,11.5633128 C3.6763931,11.6204802 3.72355617,11.6690725 3.78072353,11.7076604 C3.8364617,11.7462484 3.90077498,11.7648278 3.97652173,11.7648278 L4.20233279,11.7648278 L27.2750783,11.7648278 C27.3493958,11.7648278 27.4251426,11.7548235 27.4994601,11.7362441 C27.5752069,11.7162355 27.6409493,11.6976561 27.6966875,11.6776476 C27.7538549,11.6590682 27.7995888,11.6204802 27.8381767,11.5633128 C27.8753355,11.5061455 27.8939149,11.4189653 27.8939149,11.3046306 L27.8939149,11.1902958 L27.8939149,6.93704445 C27.8939149,6.8612977 27.9124943,6.78412177 27.9496531,6.70694583 C27.9868119,6.63119909 28.0339749,6.56402744 28.0911423,6.5054309 C28.1468805,6.44826354 28.2040478,6.41110476 28.259786,6.39109618 C28.3155242,6.37251679 28.3812666,6.36251251 28.4570134,6.36251251 L28.6256571,6.36251251 C28.6628159,6.36251251 28.6999746,6.37251679 28.7385626,6.39109618 C28.7757214,6.41110476 28.8128802,6.43968844 28.850039,6.47684722 C28.8871977,6.51543519 28.9257857,6.55402315 28.9629445,6.59261112 C28.9629445,6.63119909 28.9715196,6.64977848 28.9915282,6.64977848 C29.0101076,6.64977848 29.0201118,6.66978705 29.0201118,6.70694583 C29.2444937,7.08996713 29.4502962,7.46441332 29.6389485,7.82742604 C29.8261716,8.19186794 29.9948153,8.52772617 30.1448796,8.83357153 C30.2949439,9.14084608 30.4264288,9.40810347 30.5393344,9.63820209 C30.6508107,9.8683007 30.7451368,10.0212234 30.8208836,10.0983993 L30.8208836,10.0983993 Z M23.3919855,17.1085465 L23.3919855,16.9942118 L23.3919855,16.9084608 C23.3919855,16.8884522 23.3819812,16.8598685 23.3634018,16.8212805 C23.3448224,16.7841218 23.3362473,16.7555381 23.3362473,16.7355295 L23.3362473,16.6497785 C23.2976594,16.5340146 23.2419212,16.4296842 23.1676036,16.3339288 C23.0918569,16.2381735 23.007535,16.1609976 22.9132089,16.1038302 C22.8188827,16.0452337 22.7259858,15.9880663 22.6316596,15.930899 C22.5387627,15.8737316 22.4158529,15.8451479 22.2657886,15.8451479 L21.8155956,15.8451479 C21.7041193,15.8451479 21.6097931,15.8651565 21.5354756,15.9023153 C21.4597288,15.9409032 21.3839821,15.9794912 21.3096645,16.01665 C21.2339178,16.055238 21.1596002,16.1038302 21.0838534,16.1609976 C21.0095359,16.2181649 20.9523685,16.2853366 20.9152097,16.3625125 C20.878051,16.4011005 20.8494673,16.4482635 20.8308879,16.5054309 C20.8123085,16.5625983 20.7937291,16.6111905 20.7751497,16.6497785 C20.7565703,16.6883664 20.7379909,16.7355295 20.7194115,16.7926969 C20.699403,16.8498642 20.6908279,16.9184651 20.6908279,16.9942118 L20.6908279,17.3958125 C20.6908279,17.6259111 20.6522399,17.8474346 20.5779223,18.0575247 C20.5021756,18.2690439 20.3906992,18.4505502 20.2406349,18.6034729 C20.0905706,18.7563956 19.9119226,18.8721595 19.7061201,18.9479062 C19.4988885,19.0250822 19.2845109,19.0822495 19.0586998,19.1208375 L12.3615439,19.1208375 C12.1743208,19.0822495 11.9770934,19.0250822 11.7712909,18.9479062 C11.5640592,18.8721595 11.3854113,18.7563956 11.2367761,18.6034729 C11.0867118,18.4505502 10.9738063,18.277619 10.8994887,18.0861083 C10.823742,17.8945977 10.7865832,17.6830785 10.7865832,17.454409 L10.7865832,16.9942118 C10.7865832,16.9184651 10.7765789,16.8498642 10.7579995,16.7926969 C10.7394201,16.7355295 10.7208407,16.6883664 10.7022613,16.6497785 C10.6822528,16.6111905 10.6636734,16.5625983 10.645094,16.5054309 C10.6265146,16.4482635 10.5979309,16.4011005 10.5607721,16.3625125 C10.5236133,16.2853366 10.4678752,16.2181649 10.3921284,16.1609976 C10.3163817,16.1038302 10.2420641,16.055238 10.1677465,16.01665 C10.0919998,15.9794912 10.0076779,15.9409032 9.91478098,15.9023153 C9.82045484,15.8651565 9.73613299,15.8451479 9.66038624,15.8451479 L9.2101933,15.8451479 C9.06012899,15.8451479 8.92864407,15.8737316 8.81716772,15.930899 C8.70426219,15.9880663 8.59993176,16.0452337 8.50703481,16.1038302 C8.41270867,16.1609976 8.3383911,16.2467486 8.28265293,16.3625125 C8.22548557,16.4768472 8.1783225,16.5926111 8.14116372,16.7069458 C8.10400494,16.7455338 8.08542554,16.7741175 8.08542554,16.7926969 L8.08542554,16.8498642 L8.08542554,16.9370444 L8.08542554,17.1671431 L8.08542554,17.2528941 L8.08542554,17.3100615 L8.08542554,17.3958125 L8.08542554,17.4829927 L8.08542554,17.5687437 C8.12258433,18.1818637 8.25406925,18.7463913 8.47845113,19.2637559 C8.70426219,19.7811205 9.0143951,20.2327426 9.40742069,20.6143347 C9.80187545,20.9987852 10.2606435,21.2960555 10.7865832,21.5061455 C11.3110937,21.7162355 11.8556128,21.8219951 12.4187112,21.8219951 L19.0586998,21.8219951 C19.6589571,21.8219951 20.2206263,21.7062312 20.746566,21.4761326 C21.2725057,21.2474632 21.7312738,20.9301844 22.1257285,20.5285837 C22.5201833,20.126983 22.828887,19.6582107 23.0546981,19.1208375 C23.27908,18.5848935 23.3919855,18.0103616 23.3919855,17.3958125 L23.3919855,17.1085465 L23.3919855,17.1085465 Z" id="icon"></path>
                    </g>
                </g>
            </g>
        </g>
    </g>
</svg>