<?xml version="1.0" encoding="UTF-8" standalone="no"?>
<svg width="30px" height="38px" viewBox="0 0 30 38" version="1.1" xmlns="http://www.w3.org/2000/svg" xmlns:xlink="http://www.w3.org/1999/xlink" xmlns:sketch="http://www.bohemiancoding.com/sketch/ns">
    <!-- Generator: Sketch 3.3 (11970) - http://www.bohemiancoding.com/sketch -->
    <title>bus</title>
    <desc>Created with Sketch.</desc>
    <defs></defs>
    <g id="Page-1" stroke="none" stroke-width="1" fill="none" fill-rule="evenodd" sketch:type="MSPage">
        <g id="菜单" sketch:type="MSArtboardGroup" transform="translate(-221.000000, -878.000000)" fill="#FFFFFF">
            <g id="main" sketch:type="MSLayerGroup" transform="translate(30.000000, 301.000000)">
                <g id="menu" transform="translate(0.000000, 0.500000)" sketch:type="MSShapeGroup">
                    <g id="大楼环境监测" transform="translate(49.000000, 503.000000)">
                        <path d="M170.54,79.6665 C170.136,77.6338333 168.840667,76.8238333 166.888333,76.0151667 C164.980333,75.2148333 160.392,74.2628333 156.999667,74.2338333 C153.601,74.2631667 149.012667,75.2148333 147.091,76.0158333 C145.153,76.8241667 143.857,77.6341667 143.459667,79.6671667 L142,90.8845 L142,106.361167 L144.515,106.361167 L144.515,108.7745 C144.505333,111.741833 148.833667,111.741833 148.835333,108.7745 L148.835333,106.361167 L165.165,106.361167 L165.165,108.7745 C165.159333,111.741833 169.488667,111.741833 169.485333,108.7745 L169.485333,106.361167 L172,106.361167 L172,90.8845 L170.54,79.6665 L170.54,79.6665 Z M150.823333,77.0708333 L163.176333,77.0708333 C164.384667,77.0675 164.384667,78.8905 163.176333,78.8965 L150.823333,78.8965 C149.609,78.8905 149.609,77.0675 150.823333,77.0708333 L150.823333,77.0708333 Z M146.665,101.5135 C145.524667,101.5075 144.594333,100.5785 144.596,99.4235 C144.594333,98.2841667 145.524667,97.3545 146.665,97.3545 C147.818,97.3545 148.748,98.2841667 148.754667,99.4235 C148.748,100.5785 147.818,101.508167 146.665,101.5135 L146.665,101.5135 Z M156.847667,92.0605 L145.833667,92.0605 C144.758,92.0708333 144.532,91.2955 144.637333,90.5191667 L145.772667,82.3648333 C145.929,81.3831667 146.264,80.7311667 147.557333,80.7218333 L166.442667,80.7218333 C167.728333,80.7311667 168.065,81.3825 168.227333,82.3648333 L169.363333,90.5191667 C169.461333,91.2958333 169.235333,92.0708333 168.166,92.0605 L156.847667,92.0605 L156.847667,92.0605 Z M167.314333,101.5135 C166.175,101.5075 165.245333,100.5785 165.245333,99.4235 C165.245333,98.2841667 166.175,97.3545 167.314333,97.3545 C168.468,97.3545 169.398333,98.2841667 169.403667,99.4235 C169.398333,100.5785 168.468,101.508167 167.314333,101.5135 L167.314333,101.5135 Z" id="bus"></path>
                    </g>
                </g>
            </g>
        </g>
    </g>
</svg>