<?xml version="1.0" encoding="UTF-8" standalone="no"?>
<svg width="31px" height="31px" viewBox="0 0 31 31" version="1.1" xmlns="http://www.w3.org/2000/svg" xmlns:xlink="http://www.w3.org/1999/xlink" xmlns:sketch="http://www.bohemiancoding.com/sketch/ns">
    <!-- Generator: Sketch 3.3.2 (12043) - http://www.bohemiancoding.com/sketch -->
    <title>icon</title>
    <desc>Created with Sketch.</desc>
    <defs></defs>
    <g id="Page-1" stroke="none" stroke-width="1" fill="none" fill-rule="evenodd" sketch:type="MSPage">
        <g id="菜单" sketch:type="MSArtboardGroup" transform="translate(-79.000000, -604.000000)" fill="#FFFFFF">
            <g id="main" sketch:type="MSLayerGroup" transform="translate(30.000000, 301.000000)">
                <g id="menu" transform="translate(0.000000, 0.500000)" sketch:type="MSShapeGroup">
                    <g id="停车位查询" transform="translate(49.000000, 301.000000)">
                        <path d="M4.88824997,6.41425003 C-0.967750032,12.27225 -0.967750032,21.77125 4.88824997,27.62925 C10.74325,33.48725 20.24125,33.48725 26.10025,27.62925 C31.95925,21.76925 31.95625,12.27425 26.10025,6.41425003 C20.24125,0.558250032 10.74725,0.556250032 4.88824997,6.41425003 L4.88824997,6.41425003 Z M24.75125,23.16625 C24.73325,23.19925 24.71225,23.22925 24.68825,23.26025 C24.65225,23.30825 24.61325,23.35525 24.56725,23.39825 C24.24525,23.72325 23.78925,23.83425 23.37625,23.73425 C23.35525,23.72725 23.33325,23.72325 23.31225,23.71825 L22.63625,23.53925 L22.63325,23.53725 L22.52825,23.51025 C22.38325,23.48625 22.22925,23.53125 22.11425,23.64425 C22.00325,23.75825 21.95825,23.91125 21.98225,24.05625 L22.00925,24.16225 L22.00925,24.16525 L22.18725,24.84125 C22.19325,24.86225 22.19925,24.88325 22.20525,24.90425 C22.30525,25.31725 22.19325,25.77325 21.87025,26.09825 C21.82525,26.14125 21.78025,26.18025 21.73125,26.21725 C21.70125,26.24125 21.67125,26.26225 21.63825,26.28125 C17.32325,29.15225 11.44425,28.68525 7.63924997,24.87825 C3.83224997,21.07225 3.36424997,15.19325 6.23624997,10.87725 C6.25424997,10.84525 6.27524997,10.81325 6.30024997,10.78325 C6.33624997,10.73525 6.37524997,10.68825 6.41724997,10.64425 C6.74324997,10.32225 7.19924997,10.21025 7.61224997,10.30925 C7.63324997,10.31625 7.65424997,10.32225 7.67524997,10.32625 L8.35124997,10.50625 L8.35424997,10.50625 L8.46024997,10.53325 C8.60524997,10.55725 8.75824997,10.51225 8.87324997,10.40025 C8.98524997,10.28625 9.03024997,10.13225 9.00624997,9.98725003 L8.97924997,9.88125003 L8.97924997,9.88025003 L8.79824997,9.20225003 C8.79524997,9.18125003 8.78924997,9.16025003 8.78324997,9.13925003 C8.68024997,8.72625003 8.79524997,8.27025003 9.11724997,7.94625003 C9.16024997,7.90225003 9.20824997,7.86325003 9.25624997,7.82625003 C9.28624997,7.80225003 9.31624997,7.78125003 9.35024997,7.76325003 C13.66725,4.89025003 19.54425,5.36025003 23.34825,9.16625003 C27.15625,12.97125 27.62325,18.85125 24.75125,23.16625 L24.75125,23.16625 Z M21.19725,10.42025 L21.09825,10.47625 L14.07725,14.53125 L14.02325,14.56425 C13.82425,14.68225 13.63725,14.82725 13.46825,14.99525 C13.29925,15.16425 13.15725,15.34725 13.03925,15.54025 L12.98825,15.62925 L8.94924997,22.62925 L8.89124997,22.72625 C8.77424997,22.97625 8.81624997,23.28525 9.02424997,23.49225 C9.23224997,23.69925 9.54024997,23.74425 9.79024997,23.62525 L9.88724997,23.56925 L16.88625,19.52725 L16.97425,19.47625 C17.17025,19.35825 17.35125,19.21725 17.52025,19.04825 C17.68925,18.87925 17.83325,18.69225 17.95125,18.49225 L17.98425,18.43825 L22.03925,11.41525 L22.09625,11.31725 C22.21425,11.06725 22.16925,10.75925 21.96425,10.55225 C21.75625,10.34625 21.44825,10.30125 21.19725,10.42025 L21.19725,10.42025 Z M16.29825,17.82725 C15.85425,18.27225 15.13325,18.27225 14.69025,17.82725 C14.24325,17.38225 14.24325,16.66125 14.69025,16.21825 C15.13325,15.77125 15.85425,15.77125 16.29825,16.21825 C16.74425,16.66125 16.74425,17.38225 16.29825,17.82725 L16.29825,17.82725 Z" id="icon"></path>
                    </g>
                </g>
            </g>
        </g>
    </g>
</svg>