<?xml version="1.0" encoding="UTF-8" standalone="no"?>
<svg width="31px" height="30px" viewBox="0 0 31 30" version="1.1" xmlns="http://www.w3.org/2000/svg" xmlns:xlink="http://www.w3.org/1999/xlink" xmlns:sketch="http://www.bohemiancoding.com/sketch/ns">
    <!-- Generator: Sketch 3.3.2 (12043) - http://www.bohemiancoding.com/sketch -->
    <title>icon</title>
    <desc>Created with Sketch.</desc>
    <defs></defs>
    <g id="Page-1" stroke="none" stroke-width="1" fill="none" fill-rule="evenodd" sketch:type="MSPage">
        <g id="菜单" sketch:type="MSArtboardGroup" transform="translate(-78.000000, -405.000000)" fill="#FFFFFF">
            <g id="main" sketch:type="MSLayerGroup" transform="translate(30.000000, 301.000000)">
                <g id="menu" transform="translate(0.000000, 0.500000)" sketch:type="MSShapeGroup">
                    <g id="优惠券" transform="translate(0.000000, 68.000000)">
                        <path d="M77.2802008,50.8019914 C77.2802008,50.8019914 77.2810834,50.8011088 77.2828485,50.7993437 L77.3852246,50.6978501 C77.3869897,50.696085 77.3878723,50.6952024 77.3878723,50.6952024 C77.9182868,50.1391939 78.1927608,49.4287385 78.2086468,48.7156355 L78.2104119,48.7156355 L78.4575268,42.0091136 L78.469,41.6984549 C78.4575268,40.9491672 78.1671668,40.2060574 77.5926246,39.6350454 L74.2998186,36.3563602 C73.6970347,35.7571066 72.9045019,35.4667466 72.1137342,35.4861627 L72.1093215,35.4861627 L71.8286695,35.5055789 L65.3216046,35.9600938 L65.3048361,35.9600938 L65.1795136,35.9680368 L65.1777485,35.9689193 C64.5934982,36.0254027 64.0224863,36.2513364 63.5467901,36.6493679 L63.1849433,37.008567 L49.2185385,50.8293505 L49.0120211,51.035868 C48.3121564,51.831931 48.3456934,53.0419114 49.1073368,53.8017898 L60.246041,64.8928361 C61.0403389,65.6827213 62.3306318,65.6827213 63.1266948,64.8928361 L63.1293424,64.8928361 C63.1293424,64.8901885 63.1293424,64.8901885 63.130225,64.8901885 L77.2802008,50.8019914 L77.2802008,50.8019914 Z M70.186238,43.6868473 C69.2763256,42.7795826 69.1721843,41.3727927 69.879992,40.3534437 C69.9682474,40.2228259 70.0706235,40.0992684 70.186238,39.9836539 C71.0599657,39.1134565 72.3952687,38.9846037 73.4075573,39.5953305 C73.5840679,39.7012369 73.7526356,39.8318548 73.9061998,39.9836539 C74.0747675,40.1531042 74.2168586,40.3384403 74.3289428,40.5361323 C74.9043675,41.5351825 74.7649241,42.8316532 73.9061998,43.6868473 C73.7888203,43.8033443 73.6626151,43.906603 73.5319973,43.9957409 C72.5064704,44.6947231 71.0961504,44.5923469 70.186238,43.6868473 L70.186238,43.6868473 Z" id="icon"></path>
                    </g>
                </g>
            </g>
        </g>
    </g>
</svg>