<?xml version="1.0" encoding="UTF-8" standalone="no"?>
<svg width="30px" height="31px" viewBox="0 0 30 31" version="1.1" xmlns="http://www.w3.org/2000/svg" xmlns:xlink="http://www.w3.org/1999/xlink" xmlns:sketch="http://www.bohemiancoding.com/sketch/ns">
    <!-- Generator: Sketch 3.3 (11970) - http://www.bohemiancoding.com/sketch -->
    <title>Shape</title>
    <desc>Created with Sketch.</desc>
    <defs></defs>
    <g id="Page-1" stroke="none" stroke-width="1" fill="none" fill-rule="evenodd" sketch:type="MSPage">
        <g id="菜单" sketch:type="MSArtboardGroup" transform="translate(-79.000000, -885.000000)" fill="#FFFFFF">
            <g id="main" sketch:type="MSLayerGroup" transform="translate(30.000000, 301.000000)">
                <g id="menu" transform="translate(0.000000, 0.500000)" sketch:type="MSShapeGroup">
                    <g id="大楼环境监测" transform="translate(49.000000, 503.000000)">
                        <path d="M25.059375,106.115625 C23.85,105.684375 22.115625,105.534375 21.009375,105.290625 C20.371875,105.15 19.44375,104.79375 19.134375,104.428125 C18.825,104.053125 19.0125,100.59375 19.0125,100.59375 C19.0125,100.59375 19.584375,99.69375 19.89375,98.90625 C20.203125,98.11875 20.540625,95.9625 20.540625,95.9625 C20.540625,95.9625 21.178125,95.9625 21.403125,94.846875 C21.646875,93.628125 22.021875,93.121875 21.975,92.2125 C21.928125,91.36875 21.4875,91.321875 21.440625,91.321875 L21.440625,91.321875 C21.440625,91.321875 21.9,90.046875 21.965625,87.346875 C22.040625,84.15 19.59375,81 15,81 C10.40625,81 7.96875,84.140625 8.034375,87.3375 C8.090625,90.028125 8.559375,91.3125 8.559375,91.3125 L8.559375,91.3125 C8.5125,91.3125 8.071875,91.359375 8.025,92.203125 C7.978125,93.1125 8.3625,93.6 8.596875,94.81875 C8.821875,95.934375 9.459375,95.94375 9.459375,95.94375 C9.459375,95.94375 9.796875,98.109375 10.10625,98.896875 C10.415625,99.69375 10.9875,100.584375 10.9875,100.584375 C10.9875,100.584375 11.175,104.04375 10.865625,104.41875 C10.55625,104.79375 9.628125,105.140625 8.990625,105.28125 C7.875,105.525 6.15,105.684375 4.940625,106.115625 C3.73125,106.546875 0,108 0,111 L15,111 L30,111 C30,108 26.26875,106.546875 25.059375,106.115625 L25.059375,106.115625 Z" id="Shape"></path>
                    </g>
                </g>
            </g>
        </g>
    </g>
</svg>