<?xml version="1.0" encoding="UTF-8" standalone="no"?>
<svg width="35px" height="31px" viewBox="0 0 35 31" version="1.1" xmlns="http://www.w3.org/2000/svg" xmlns:xlink="http://www.w3.org/1999/xlink" xmlns:sketch="http://www.bohemiancoding.com/sketch/ns">
    <!-- Generator: Sketch 3.3.2 (12043) - http://www.bohemiancoding.com/sketch -->
    <title>Fill 1</title>
    <desc>Created with Sketch.</desc>
    <defs></defs>
    <g id="Page-1" stroke="none" stroke-width="1" fill="none" fill-rule="evenodd" sketch:type="MSPage">
        <g id="菜单" sketch:type="MSArtboardGroup" transform="translate(-76.000000, -506.000000)" fill="#FFFFFF">
            <g id="main" sketch:type="MSLayerGroup" transform="translate(30.000000, 301.000000)">
                <g id="menu" transform="translate(0.000000, 0.500000)" sketch:type="MSShapeGroup">
                    <g id="周边美食" transform="translate(46.000000, 205.000000)">
                        <path d="M32.7753365,19.2591644 C32.8552054,19.2591644 32.9258587,19.2806676 32.9842245,19.3206021 C33.0456621,19.3605366 33.0948122,19.400471 33.1347467,19.4404055 C33.1746811,19.48034 33.2146156,19.5294901 33.2545501,19.5909277 C33.2944845,19.6508294 33.3144518,19.7199468 33.3144518,19.7998157 L33.3144518,19.8904362 C33.3144518,19.9104034 33.2944845,19.9411223 33.2545501,19.9795208 L33.2545501,20.0993242 C33.0149433,20.5401393 32.7753365,20.9702027 32.5357297,21.3895146 C32.2945869,21.8103625 32.0350129,22.2204587 31.7554716,22.6198034 C31.4743944,23.020684 31.1748859,23.4200287 30.8554102,23.8193733 C30.5343985,24.2202539 30.1949556,24.5996314 29.8355454,24.9590416 C29.6343371,25.1203154 29.4438804,25.2800532 29.2657112,25.4397911 C29.0844702,25.599529 28.9047651,25.7592668 28.72506,25.9190047 C28.5453549,26.0802785 28.3548982,26.2308007 28.1552259,26.3705714 C27.9540176,26.510342 27.7543453,26.6593283 27.5546729,26.8190661 C27.5147385,26.8590006 27.4840197,26.8789678 27.4655884,26.8789678 C27.4440852,26.8789678 27.4348695,26.8897194 27.4348695,26.9096867 C27.4348695,26.9311898 27.4149023,26.9388695 27.3749678,26.9388695 C27.2950989,27.0202744 27.21523,27.1108949 27.135361,27.2091952 C27.0539562,27.3105673 26.9940545,27.4104034 26.9556559,27.5102396 C26.9157215,27.6100758 26.8742511,27.7191276 26.8343166,27.838931 C26.7943821,27.9602703 26.7759508,28.0800737 26.7759508,28.1998771 L26.7759508,28.2904976 L26.7759508,28.3503993 L26.7759508,28.4394839 C26.7759508,28.4794184 26.7836306,28.5101372 26.8051337,28.5301044 C26.825101,28.5500717 26.8343166,28.5700389 26.8343166,28.5900061 L26.8343166,28.6499078 L26.8343166,28.7389924 L26.8343166,28.9202335 C26.8343166,29.0799713 26.8143494,29.219742 26.7759508,29.3395454 C26.7344804,29.4593488 26.6745787,29.5591849 26.5947098,29.6390539 C26.5148409,29.7204587 26.4150047,29.8003277 26.2952013,29.8801966 C26.1753979,29.9600655 26.0555945,30 25.9357911,30 L9.25547164,30 C9.13566824,30 9.01586484,29.9600655 8.89606144,29.8801966 C8.77625804,29.8003277 8.67488593,29.7204587 8.595017,29.6390539 C8.51514806,29.5591849 8.44603072,29.4593488 8.38612902,29.3395454 C8.32622732,29.219742 8.2955085,29.0799713 8.2955085,28.9202335 L8.2955085,28.7988941 C8.2955085,28.7604956 8.30472414,28.7389924 8.32622732,28.7389924 C8.34619455,28.7389924 8.3554102,28.7205611 8.3554102,28.6790907 L8.3554102,28.619189 L8.3554102,28.4993856 L8.3554102,28.410301 C8.3554102,28.3903338 8.36462584,28.3703666 8.38612902,28.3503993 C8.40609625,28.3304321 8.4153119,28.3104649 8.4153119,28.2904976 L8.4153119,28.1998771 C8.4153119,28.0800737 8.39534467,27.9602703 8.3554102,27.838931 C8.31547573,27.7191276 8.27554127,27.6100758 8.2356068,27.5102396 C8.19567233,27.4104034 8.13577063,27.3105673 8.0559017,27.2091952 C7.97603277,27.1108949 7.89616383,27.0202744 7.8162949,26.9388695 C7.77636043,26.9388695 7.73489003,26.9204383 7.6964915,26.8789678 C7.65655703,26.8405693 7.61508663,26.8190661 7.57515216,26.8190661 C7.37547983,26.6992627 7.18655908,26.5594921 7.00531804,26.3997542 C6.82561294,26.2400164 6.64590784,26.0802785 6.46620274,25.9190047 C6.28649764,25.7592668 6.1052566,25.599529 5.92555151,25.4397911 C5.74584641,25.2800532 5.55538972,25.1203154 5.35571739,24.9590416 C4.99630719,24.5996314 4.65532828,24.2202539 4.33585255,23.8193733 C4.01484088,23.4200287 3.71533238,23.020684 3.43579111,22.6198034 C3.15624985,22.2204587 2.88592423,21.8103625 2.62635019,21.3895146 C2.36524022,20.9702027 2.13638501,20.5401393 1.93671268,20.0993242 L1.93671268,20.0394225 C1.89524227,20.001024 1.87681098,19.9595536 1.87681098,19.9196191 L1.87681098,19.7998157 C1.87681098,19.7199468 1.88449068,19.6508294 1.90599386,19.5909277 C1.92596109,19.5294901 1.96589556,19.48034 2.02579726,19.4404055 C2.08569896,19.400471 2.14560066,19.3605366 2.20550236,19.3206021 C2.26540405,19.2806676 2.33605734,19.2591644 2.41592627,19.2591644 L32.7753365,19.2591644 L32.7753365,19.2591644 Z M34.6952627,15.1797051 C34.6952627,15.2211755 34.6845112,15.2503584 34.6645439,15.2703256 C34.6445767,15.2902929 34.635361,15.3210117 34.635361,15.3609461 L34.635361,15.4500307 L34.635361,15.5406512 C34.635361,15.5805857 34.6246095,15.6297358 34.6046422,15.6896375 C34.584675,15.7495392 34.5754593,15.8094409 34.5754593,15.8693426 C34.5754593,15.9307803 34.5647078,15.990682 34.5447405,16.0505837 C34.5247733,16.1104854 34.5155576,16.1611714 34.5155576,16.1995699 C34.4740872,16.3209093 34.4249371,16.4391767 34.3650354,16.5605161 C34.3051337,16.6803195 34.2237289,16.7801556 34.1254286,16.8600246 C34.0240565,16.9398935 33.9242204,16.9997952 33.8243842,17.0397297 C33.724548,17.0796641 33.593993,17.0996314 33.4357911,17.0996314 L1.69556994,17.0996314 C1.57576654,17.0996314 1.45596314,17.0796641 1.33615974,17.0397297 C1.21635634,16.9997952 1.11652017,16.9398935 1.03665124,16.8600246 C0.955246365,16.7801556 0.875377432,16.6910711 0.795508499,16.589699 C0.715639566,16.4913987 0.675705099,16.3593078 0.675705099,16.1995699 C0.635770633,16.1611714 0.6158034,16.1104854 0.6158034,16.0505837 C0.6158034,15.990682 0.605051812,15.9307803 0.58662052,15.8693426 C0.565117346,15.8094409 0.5559017,15.7495392 0.5559017,15.6896375 L0.5559017,15.5406512 L0.5559017,15.4500307 C0.5559017,15.4300635 0.546686054,15.4008806 0.52671882,15.3609461 C0.505215646,15.3210117 0.496,15.2902929 0.496,15.2703256 L0.496,15.1797051 C0.496,14.8202949 0.565117346,14.4900676 0.70642392,14.1905591 C0.846194553,13.8895146 1.02589965,13.6299406 1.24553922,13.410301 C1.46517878,13.1906615 1.72628876,13.020172 2.02579726,12.9003686 C2.32530575,12.7805652 2.63556584,12.7206635 2.95657751,12.7206635 L32.2346852,12.7206635 C32.554161,12.7206635 32.8644211,12.7805652 33.1654655,12.9003686 C33.464974,13.020172 33.724548,13.1906615 33.9457235,13.410301 C34.1638272,13.6299406 34.3435323,13.8895146 34.4848388,14.1905591 C34.6246095,14.4900676 34.6952627,14.8202949 34.6952627,15.1797051 L34.6952627,15.1797051 Z M24.974292,10.0204792 L31.6955699,3.30073725 C31.8153733,3.22086832 31.9244251,3.17171821 32.0242613,3.15021503 C32.1240975,3.1302478 32.2239336,3.12103215 32.3237698,3.12103215 C32.423606,3.12103215 32.5249781,3.14099939 32.6248143,3.18093385 C32.7246504,3.22086832 32.813735,3.28077002 32.8951399,3.36063895 L32.9550416,3.42054065 C33.0349105,3.50040958 33.0948122,3.5910301 33.1347467,3.69086627 C33.1746811,3.79070244 33.1946484,3.8905386 33.1946484,3.99037477 C33.1946484,4.09021094 33.1838968,4.19158304 33.1654655,4.28988327 C33.1439623,4.39125538 33.0948122,4.50030719 33.0149433,4.62011059 L26.8957542,10.7408356 L26.8343166,10.7408356 L26.8343166,10.8007373 C26.7943821,10.8406717 26.745232,10.8806062 26.6853303,10.9205407 C26.6254286,10.9604751 26.5655269,10.989658 26.5056252,11.0111612 C26.4457235,11.0311284 26.3750702,11.0510956 26.2952013,11.0710629 C26.2137964,11.0910301 26.1354634,11.1002458 26.0555945,11.1002458 L24.9159263,11.1002458 C24.8744559,11.1002458 24.8253058,11.0910301 24.7654041,11.0710629 C24.7055024,11.0510956 24.6548163,11.0203768 24.6148818,10.9804424 C24.5749474,10.9405079 24.5457645,10.8898218 24.5257973,10.8299201 C24.5042941,10.7700184 24.4950784,10.7208683 24.4950784,10.6809339 C24.4950784,10.6409994 24.5042941,10.6118165 24.5257973,10.5903133 C24.5457645,10.5703461 24.5549801,10.5519148 24.5549801,10.5304116 C24.5549801,10.5104444 24.5641958,10.4904772 24.585699,10.4705099 C24.6041302,10.4505427 24.6148818,10.4213598 24.6148818,10.3798894 L24.6747835,10.3798894 L24.974292,10.0204792 L24.974292,10.0204792 Z M21.3156805,11.1002458 C21.2342757,11.1002458 21.1651583,11.0802785 21.1052566,11.0403441 C21.0453549,11.0004096 20.9946689,10.9604751 20.9547344,10.9205407 C20.9147999,10.8806062 20.8748655,10.8207045 20.834931,10.7408356 C20.7949965,10.6609666 20.7750293,10.6010649 20.7750293,10.5595945 L20.7750293,10.4397911 C20.7750293,10.4013926 20.7949965,10.3798894 20.834931,10.3798894 L20.7750293,10.3798894 L25.4550416,0.600552939 L25.574845,0.420847839 C25.6147794,0.30104444 25.6746811,0.21042392 25.7545501,0.15052222 C25.834419,0.0906205202 25.9250395,0.0522219947 26.0248757,0.0307188204 C26.1247119,0.0107515871 26.2352996,0 26.355103,0 C26.4749064,0 26.5747426,0.0215031743 26.6546115,0.0599016998 L26.7145132,0.1198034 C26.8343166,0.161273807 26.9341528,0.221175507 27.0155576,0.30104444 C27.0954266,0.380913373 27.1553283,0.471533893 27.1952627,0.571370059 C27.2351972,0.671206226 27.2551644,0.771042392 27.2551644,0.870878558 C27.2551644,0.970714725 27.2351972,1.07976654 27.1952627,1.20110588 L22.6949556,10.6809339 C22.6550211,10.7208683 22.6150866,10.7700184 22.5751522,10.8299201 C22.5352177,10.8898218 22.4845316,10.9405079 22.4261659,10.9804424 C22.3647282,11.0203768 22.2956109,11.0510956 22.215742,11.0710629 C22.1343371,11.0910301 22.0544682,11.1002458 21.9745992,11.1002458 L21.3156805,11.1002458 L21.3156805,11.1002458 Z" id="Fill-1"></path>
                    </g>
                </g>
            </g>
        </g>
    </g>
</svg>