<?xml version="1.0" encoding="UTF-8" standalone="no"?>
<svg width="30px" height="31px" viewBox="0 0 30 31" version="1.1" xmlns="http://www.w3.org/2000/svg" xmlns:xlink="http://www.w3.org/1999/xlink" xmlns:sketch="http://www.bohemiancoding.com/sketch/ns">
    <!-- Generator: Sketch 3.3.2 (12043) - http://www.bohemiancoding.com/sketch -->
    <title>Dashboard</title>
    <desc>Created with Sketch.</desc>
    <defs></defs>
    <g id="Page-1" stroke="none" stroke-width="1" fill="none" fill-rule="evenodd" sketch:type="MSPage">
        <g id="菜单" sketch:type="MSArtboardGroup" transform="translate(-79.000000, -804.000000)" fill="#FFFFFF">
            <g id="main" sketch:type="MSLayerGroup" transform="translate(30.000000, 301.000000)">
                <g id="menu" transform="translate(0.000000, 0.500000)" sketch:type="MSShapeGroup">
                    <g id="大楼环境监测" transform="translate(49.000000, 503.000000)">
                        <path d="M15.0083333,0 C6.71916667,0 0,6.72083333 0,15.0091667 C0,23.3 6.71916667,30.0208333 15.0083333,30.0208333 C23.2975,30.0208333 30.0166667,23.3 30.0166667,15.0091667 C30.0166667,6.72083333 23.2975,0 15.0083333,0 L15.0083333,0 Z M15.0175,3.12833333 C15.7358333,3.12833333 16.32,3.71 16.32,4.43 C16.32,5.15083333 15.7358333,5.73416667 15.0175,5.73416667 C14.2966667,5.73416667 13.7141667,5.15083333 13.7141667,4.43 C13.7141667,3.71 14.2966667,3.12833333 15.0175,3.12833333 L15.0175,3.12833333 Z M7.70583333,10.79 C7.34666667,11.4125 6.54833333,11.6241667 5.92583333,11.2666667 C5.3025,10.9066667 5.08833333,10.1083333 5.44916667,9.48583333 C5.80916667,8.8625 6.60583333,8.64833333 7.22833333,9.00833333 C7.8525,9.36833333 8.06583333,10.1641667 7.70583333,10.79 L7.70583333,10.79 Z M10.7958333,7.69916667 C10.1725,8.0575 9.37583333,7.84583333 9.01583333,7.2225 C8.65583333,6.59666667 8.87,5.80166667 9.4925,5.44083333 C10.1158333,5.08083333 10.9133333,5.295 11.2725,5.91833333 C11.6325,6.54083333 11.42,7.33916667 10.7958333,7.69916667 L10.7958333,7.69916667 Z M12.5,22.4693184 C12.5,21.6910348 12.8455631,20.9955473 13.3895051,20.5333289 C13.4222127,20.5030903 13.4577645,20.4764516 13.4933163,20.4490928 C13.8147042,20.1647061 14.0194824,19.7464057 14.0194824,19.2777076 L14.0194824,15.1595002 C14.0265927,14.6108859 14.4645904,14.1666667 15.0078214,14.1666667 C15.504835,14.1666667 15.9179465,14.5432091 15.9805176,15.0313462 L15.9805176,19.2777076 C15.9805176,19.7464057 16.1838737,20.1647061 16.5066837,20.4490928 C16.5429465,20.4764516 16.5770762,20.5030903 16.6104949,20.5333289 C17.1544369,20.9955473 17.5,21.6910348 17.5,22.4693184 C17.5,23.867493 16.3808305,25 15,25 C13.6198805,25 12.5,23.867493 12.5,22.4693184 Z M21.0183333,7.2225 C20.6583333,7.84583333 19.8616667,8.0575 19.2375,7.69916667 C18.615,7.33916667 18.4008333,6.54083333 18.7608333,5.91833333 C19.1208333,5.295 19.9191667,5.08083333 20.5416667,5.44083333 C21.165,5.80166667 21.3783333,6.59666667 21.0183333,7.2225 L21.0183333,7.2225 Z M24.1091667,11.2666667 C23.4858333,11.6241667 22.6875,11.4125 22.3275,10.79 C21.9675,10.1641667 22.1816667,9.36833333 22.8041667,9.00833333 C23.4283333,8.64833333 24.2258333,8.8625 24.5858333,9.48583333 C24.9458333,10.1083333 24.7316667,10.9066667 24.1091667,11.2666667 L24.1091667,11.2666667 Z" id="Dashboard"></path>
                    </g>
                </g>
            </g>
        </g>
    </g>
</svg>