<?xml version="1.0" encoding="UTF-8" standalone="no"?>
<svg width="40px" height="8px" viewBox="0 0 40 8" version="1.1" xmlns="http://www.w3.org/2000/svg" xmlns:xlink="http://www.w3.org/1999/xlink" xmlns:sketch="http://www.bohemiancoding.com/sketch/ns">
    <!-- Generator: Sketch 3.3.2 (12043) - http://www.bohemiancoding.com/sketch -->
    <title>Group</title>
    <desc>Created with Sketch.</desc>
    <defs></defs>
    <g id="Page-1" stroke="none" stroke-width="1" fill="none" fill-rule="evenodd" sketch:type="MSPage">
        <g id="员工--进行中" sketch:type="MSArtboardGroup" transform="translate(-555.000000, -627.000000)" fill="#EEAF4B">
            <g id="main" sketch:type="MSLayerGroup" transform="translate(30.000000, 580.000000)">
                <g id="ios7-more" transform="translate(525.000000, 47.000000)" sketch:type="MSShapeGroup">
                    <g id="Group">
                        <path d="M20,0 C17.7875,0 16,1.7875 16,4 C16,6.2125 17.7875,8 20,8 C22.2125,8 24,6.2125 24,4 C24,1.7875 22.2125,0 20,0 L20,0 L20,0 Z" id="Shape"></path>
                        <path d="M4.05,0 C1.8375,0 0.05,1.7875 0.05,4 C0.05,6.2125 1.8375,8 4.05,8 C6.2625,8 8.05,6.2125 8.05,4 C8.05,1.7875 6.25,0 4.05,0 L4.05,0 L4.05,0 Z" id="Shape"></path>
                        <path d="M36,0 C33.7875,0 32,1.7875 32,4 C32,6.2125 33.7875,8 36,8 C38.2125,8 40,6.2125 40,4 C40,1.7875 38.2125,0 36,0 L36,0 L36,0 Z" id="Shape"></path>
                    </g>
                </g>
            </g>
        </g>
    </g>
</svg>