<?xml version="1.0" encoding="UTF-8" standalone="no"?>
<svg width="26px" height="26px" viewBox="0 0 26 26" version="1.1" xmlns="http://www.w3.org/2000/svg" xmlns:xlink="http://www.w3.org/1999/xlink" xmlns:sketch="http://www.bohemiancoding.com/sketch/ns">
    <!-- Generator: Sketch 3.3.2 (12043) - http://www.bohemiancoding.com/sketch -->
    <title>Imported Layers</title>
    <desc>Created with Sketch.</desc>
    <defs></defs>
    <g id="Page-1" stroke="none" stroke-width="1" fill="none" fill-rule="evenodd" sketch:type="MSPage">
        <g id="员工--进行中" sketch:type="MSArtboardGroup" transform="translate(-107.000000, -205.000000)" fill="#47A0DB">
            <g id="top" sketch:type="MSLayerGroup">
                <g id="settings-copy" transform="translate(80.000000, 178.000000)" sketch:type="MSShapeGroup">
                    <path d="M27,52.9324675 L37.8051948,52.9324675 L37.8051948,42.1272727 L27,42.1272727 L27,52.9324675 Z M29.161039,44.2883117 L35.6441558,44.2883117 L35.6441558,50.7714286 L29.161039,50.7714286 L29.161039,44.2883117 Z M31.3220779,41.0467532 L37.8051948,41.0467532 L37.8051948,38.8857143 L31.3220779,38.8857143 L31.3220779,41.0467532 Z M38.8857143,37.8051948 L41.0467532,37.8051948 L41.0467532,33.4831169 L38.8857143,33.4831169 L38.8857143,37.8051948 Z M27,41.0467532 L29.161039,41.0467532 L29.161039,38.8857143 L27,38.8857143 L27,41.0467532 Z M38.8857143,32.4025974 L41.0467532,32.4025974 L41.0467532,30.2415584 L38.8857143,30.2415584 L38.8857143,32.4025974 Z M38.8857143,29.161039 L41.0467532,29.161039 L41.0467532,27 L38.8857143,27 L38.8857143,29.161039 Z M27,37.8051948 L37.8051948,37.8051948 L37.8051948,27 L27,27 L27,37.8051948 Z M29.161039,29.161039 L35.6441558,29.161039 L35.6441558,35.6441558 L29.161039,35.6441558 L29.161039,29.161039 Z M42.1272727,37.8051948 L52.9324675,37.8051948 L52.9324675,27 L42.1272727,27 L42.1272727,37.8051948 Z M44.2883117,29.161039 L50.7714286,29.161039 L50.7714286,35.6441558 L44.2883117,35.6441558 L44.2883117,29.161039 Z M50.7714286,45.3688312 L52.9324675,45.3688312 L52.9324675,43.2077922 L50.7714286,43.2077922 L50.7714286,45.3688312 Z M50.7714286,50.7714286 L49.6909091,50.7714286 L49.6909091,48.6103896 L47.5298701,48.6103896 L47.5298701,50.7714286 L45.3688312,50.7714286 L45.3688312,52.9324675 L52.9324675,52.9324675 L52.9324675,47.5298701 L50.7714286,47.5298701 L50.7714286,50.7714286 L50.7714286,50.7714286 Z M45.3688312,48.6103896 L47.5298701,48.6103896 L47.5298701,46.4493506 L45.3688312,46.4493506 L45.3688312,48.6103896 Z M50.7714286,41.0467532 L52.9324675,41.0467532 L52.9324675,38.8857143 L50.7714286,38.8857143 L50.7714286,41.0467532 Z M43.2077922,50.7714286 L45.3688312,50.7714286 L45.3688312,48.6103896 L43.2077922,48.6103896 L43.2077922,50.7714286 Z M43.2077922,43.2077922 L43.2077922,45.3688312 L49.6909091,45.3688312 L49.6909091,43.2077922 L47.5298701,43.2077922 L47.5298701,41.0467532 L45.3688312,41.0467532 L45.3688312,43.2077922 L43.2077922,43.2077922 L43.2077922,43.2077922 Z M43.2077922,41.0467532 L45.3688312,41.0467532 L45.3688312,38.8857143 L43.2077922,38.8857143 L43.2077922,39.9662338 L41.0467532,39.9662338 L41.0467532,42.1272727 L43.2077922,42.1272727 L43.2077922,41.0467532 L43.2077922,41.0467532 Z M41.0467532,47.5298701 L43.2077922,47.5298701 L43.2077922,45.3688312 L41.0467532,45.3688312 L41.0467532,42.1272727 L38.8857143,42.1272727 L38.8857143,52.9324675 L43.2077922,52.9324675 L43.2077922,50.7714286 L41.0467532,50.7714286 L41.0467532,47.5298701 L41.0467532,47.5298701 Z M47.5298701,41.0467532 L49.6909091,41.0467532 L49.6909091,38.8857143 L47.5298701,38.8857143 L47.5298701,41.0467532 Z" id="Imported-Layers"></path>
                </g>
            </g>
        </g>
    </g>
</svg>