<?xml version="1.0" encoding="UTF-8" standalone="no"?>
<svg width="300px" height="300px" viewBox="0 0 300 300" version="1.1" xmlns="http://www.w3.org/2000/svg" xmlns:xlink="http://www.w3.org/1999/xlink" xmlns:sketch="http://www.bohemiancoding.com/sketch/ns">
    <!-- Generator: Sketch 3.3 (11970) - http://www.bohemiancoding.com/sketch -->
    <title>qr</title>
    <desc>Created with Sketch.</desc>
    <defs></defs>
    <g id="Page-1" stroke="none" stroke-width="1" fill="none" fill-rule="evenodd" sketch:type="MSPage">
        <g id="访客--门禁卡" sketch:type="MSArtboardGroup" transform="translate(-171.000000, -420.000000)" fill="#38454F">
            <g id="Card" sketch:type="MSLayerGroup" transform="translate(60.000000, 152.000000)">
                <path d="M111,567.720779 L235.675325,567.720779 L235.675325,443.045455 L111,443.045455 L111,567.720779 Z M135.935065,467.980519 L210.74026,467.980519 L210.74026,542.785714 L135.935065,542.785714 L135.935065,467.980519 Z M160.87013,430.577922 L235.675325,430.577922 L235.675325,405.642857 L160.87013,405.642857 L160.87013,430.577922 Z M248.142857,393.175325 L273.077922,393.175325 L273.077922,343.305195 L248.142857,343.305195 L248.142857,393.175325 Z M111,430.577922 L135.935065,430.577922 L135.935065,405.642857 L111,405.642857 L111,430.577922 Z M248.142857,330.837662 L273.077922,330.837662 L273.077922,305.902597 L248.142857,305.902597 L248.142857,330.837662 Z M248.142857,293.435065 L273.077922,293.435065 L273.077922,268.5 L248.142857,268.5 L248.142857,293.435065 Z M111,393.175325 L235.675325,393.175325 L235.675325,268.5 L111,268.5 L111,393.175325 Z M135.935065,293.435065 L210.74026,293.435065 L210.74026,368.24026 L135.935065,368.24026 L135.935065,293.435065 Z M285.545455,393.175325 L410.220779,393.175325 L410.220779,268.5 L285.545455,268.5 L285.545455,393.175325 Z M310.480519,293.435065 L385.285714,293.435065 L385.285714,368.24026 L310.480519,368.24026 L310.480519,293.435065 Z M385.285714,480.448052 L410.220779,480.448052 L410.220779,455.512987 L385.285714,455.512987 L385.285714,480.448052 Z M385.285714,542.785714 L372.818182,542.785714 L372.818182,517.850649 L347.883117,517.850649 L347.883117,542.785714 L322.948052,542.785714 L322.948052,567.720779 L410.220779,567.720779 L410.220779,505.383117 L385.285714,505.383117 L385.285714,542.785714 L385.285714,542.785714 Z M322.948052,517.850649 L347.883117,517.850649 L347.883117,492.915584 L322.948052,492.915584 L322.948052,517.850649 Z M385.285714,430.577922 L410.220779,430.577922 L410.220779,405.642857 L385.285714,405.642857 L385.285714,430.577922 Z M298.012987,542.785714 L322.948052,542.785714 L322.948052,517.850649 L298.012987,517.850649 L298.012987,542.785714 Z M298.012987,455.512987 L298.012987,480.448052 L372.818182,480.448052 L372.818182,455.512987 L347.883117,455.512987 L347.883117,430.577922 L322.948052,430.577922 L322.948052,455.512987 L298.012987,455.512987 L298.012987,455.512987 Z M298.012987,430.577922 L322.948052,430.577922 L322.948052,405.642857 L298.012987,405.642857 L298.012987,418.11039 L273.077922,418.11039 L273.077922,443.045455 L298.012987,443.045455 L298.012987,430.577922 L298.012987,430.577922 Z M273.077922,505.383117 L298.012987,505.383117 L298.012987,480.448052 L273.077922,480.448052 L273.077922,443.045455 L248.142857,443.045455 L248.142857,567.720779 L298.012987,567.720779 L298.012987,542.785714 L273.077922,542.785714 L273.077922,505.383117 L273.077922,505.383117 Z M347.883117,430.577922 L372.818182,430.577922 L372.818182,405.642857 L347.883117,405.642857 L347.883117,430.577922 Z" id="qr" sketch:type="MSShapeGroup"></path>
            </g>
        </g>
    </g>
</svg>