<?xml version="1.0" encoding="UTF-8" standalone="no"?>
<svg width="312px" height="312px" viewBox="0 0 312 312" version="1.1" xmlns="http://www.w3.org/2000/svg" xmlns:xlink="http://www.w3.org/1999/xlink" xmlns:sketch="http://www.bohemiancoding.com/sketch/ns">
    <!-- Generator: Sketch 3.3 (11970) - http://www.bohemiancoding.com/sketch -->
    <title>qr</title>
    <desc>Created with Sketch.</desc>
    <defs>
        <filter x="-50%" y="-50%" width="200%" height="200%" filterUnits="objectBoundingBox" id="filter-1">
            <feOffset dx="0" dy="2" in="SourceAlpha" result="shadowOffsetOuter1"></feOffset>
            <feGaussianBlur stdDeviation="2" in="shadowOffsetOuter1" result="shadowBlurOuter1"></feGaussianBlur>
            <feColorMatrix values="0 0 0 0 0   0 0 0 0 0   0 0 0 0 0  0 0 0 0.35 0" in="shadowBlurOuter1" type="matrix" result="shadowMatrixOuter1"></feColorMatrix>
            <feMerge>
                <feMergeNode in="shadowMatrixOuter1"></feMergeNode>
                <feMergeNode in="SourceGraphic"></feMergeNode>
            </feMerge>
        </filter>
    </defs>
    <g id="Page-1" stroke="none" stroke-width="1" fill="none" fill-rule="evenodd" sketch:type="MSPage">
        <g id="打开访客邀请" sketch:type="MSArtboardGroup" transform="translate(-164.000000, -559.000000)" stroke="#FFFFFF" filter="url(#filter-1)" stroke-width="4" fill="#38454F">
            <path d="M170,862.220779 L294.675325,862.220779 L294.675325,737.545455 L170,737.545455 L170,862.220779 Z M194.935065,762.480519 L269.74026,762.480519 L269.74026,837.285714 L194.935065,837.285714 L194.935065,762.480519 Z M219.87013,725.077922 L294.675325,725.077922 L294.675325,700.142857 L219.87013,700.142857 L219.87013,725.077922 Z M307.142857,687.675325 L332.077922,687.675325 L332.077922,637.805195 L307.142857,637.805195 L307.142857,687.675325 Z M170,725.077922 L194.935065,725.077922 L194.935065,700.142857 L170,700.142857 L170,725.077922 Z M307.142857,625.337662 L332.077922,625.337662 L332.077922,600.402597 L307.142857,600.402597 L307.142857,625.337662 Z M307.142857,587.935065 L332.077922,587.935065 L332.077922,563 L307.142857,563 L307.142857,587.935065 Z M170,687.675325 L294.675325,687.675325 L294.675325,563 L170,563 L170,687.675325 Z M194.935065,587.935065 L269.74026,587.935065 L269.74026,662.74026 L194.935065,662.74026 L194.935065,587.935065 Z M344.545455,687.675325 L469.220779,687.675325 L469.220779,563 L344.545455,563 L344.545455,687.675325 Z M369.480519,587.935065 L444.285714,587.935065 L444.285714,662.74026 L369.480519,662.74026 L369.480519,587.935065 Z M444.285714,774.948052 L469.220779,774.948052 L469.220779,750.012987 L444.285714,750.012987 L444.285714,774.948052 Z M444.285714,837.285714 L431.818182,837.285714 L431.818182,812.350649 L406.883117,812.350649 L406.883117,837.285714 L381.948052,837.285714 L381.948052,862.220779 L469.220779,862.220779 L469.220779,799.883117 L444.285714,799.883117 L444.285714,837.285714 L444.285714,837.285714 Z M381.948052,812.350649 L406.883117,812.350649 L406.883117,787.415584 L381.948052,787.415584 L381.948052,812.350649 Z M444.285714,725.077922 L469.220779,725.077922 L469.220779,700.142857 L444.285714,700.142857 L444.285714,725.077922 Z M357.012987,837.285714 L381.948052,837.285714 L381.948052,812.350649 L357.012987,812.350649 L357.012987,837.285714 Z M357.012987,750.012987 L357.012987,774.948052 L431.818182,774.948052 L431.818182,750.012987 L406.883117,750.012987 L406.883117,725.077922 L381.948052,725.077922 L381.948052,750.012987 L357.012987,750.012987 L357.012987,750.012987 Z M357.012987,725.077922 L381.948052,725.077922 L381.948052,700.142857 L357.012987,700.142857 L357.012987,712.61039 L332.077922,712.61039 L332.077922,737.545455 L357.012987,737.545455 L357.012987,725.077922 L357.012987,725.077922 Z M332.077922,799.883117 L357.012987,799.883117 L357.012987,774.948052 L332.077922,774.948052 L332.077922,737.545455 L307.142857,737.545455 L307.142857,862.220779 L357.012987,862.220779 L357.012987,837.285714 L332.077922,837.285714 L332.077922,799.883117 L332.077922,799.883117 Z M406.883117,725.077922 L431.818182,725.077922 L431.818182,700.142857 L406.883117,700.142857 L406.883117,725.077922 Z" id="qr" sketch:type="MSShapeGroup"></path>
        </g>
    </g>
</svg>