<?xml version="1.0" encoding="utf-8"?>
<!-- Generator: Adobe Illustrator 16.0.0, SVG Export Plug-In . SVG Version: 6.00 Build 0)  -->
<!DOCTYPE svg PUBLIC "-//W3C//DTD SVG 1.1//EN" "http://www.w3.org/Graphics/SVG/1.1/DTD/svg11.dtd">
<svg version="1.1" id="图层_1" xmlns="http://www.w3.org/2000/svg" xmlns:xlink="http://www.w3.org/1999/xlink" x="0px" y="0px"
	 width="248px" height="248px" viewBox="0 0 248 248" enable-background="new 0 0 248 248" xml:space="preserve">
<rect fill="#FFFFFF" width="248" height="248"/>
<title>QR Code</title>
<desc>http://weixin.qq.com/r/JENbQ3DE3i2hrTQg9xY2</desc>
<g>
	<rect x="56" y="120" width="8" height="8"/>
	<rect x="160" y="24" width="8" height="8"/>
	<rect x="232" y="80" width="8" height="8"/>
	<rect x="136" y="80" width="8" height="8"/>
	<polygon points="112,192 104,192 104,200 104,208 112,208 120,208 120,200 112,200 	"/>
	<polygon points="208,24 200,24 200,32 200,40 200,48 208,48 216,48 224,48 224,40 224,32 224,24 216,24 	"/>
	<rect x="224" y="128" width="8" height="8"/>
	<rect x="224" y="72" width="8" height="8"/>
	<rect x="224" y="96" width="8" height="8"/>
	<rect x="208" y="72" width="8" height="8"/>
	<polygon points="88,40 88,32 96,32 96,40 104,40 104,32 104,24 112,24 112,16 104,16 96,16 96,24 88,24 88,16 88,8 80,8 80,16 
		72,16 72,24 80,24 80,32 72,32 72,40 80,40 	"/>
	<polygon points="72,136 64,136 56,136 56,144 64,144 72,144 80,144 80,136 	"/>
	<rect x="232" y="112" width="8" height="8"/>
	<polygon points="80,56 80,48 72,48 72,56 72,64 80,64 	"/>
	<path d="M232,8h-8h-8h-8h-8h-8h-8v8v8v8v8v8v8v8h8h8h8h8h8h8h8v-8v-8v-8v-8v-8v-8V8H232z M232,24v8v8v8v8h-8h-8h-8h-8h-8v-8v-8v-8
		v-8v-8h8h8h8h8h8V24z"/>
	<polygon points="88,48 88,56 88,64 96,64 96,56 96,48 96,40 88,40 	"/>
	<polygon points="136,24 136,16 144,16 144,24 152,24 152,16 160,16 168,16 168,8 160,8 152,8 144,8 136,8 128,8 120,8 120,16 
		120,24 128,24 	"/>
	<path d="M24,64h8h8h8h8h8v-8v-8v-8v-8v-8v-8V8h-8h-8h-8h-8h-8h-8H8v8v8v8v8v8v8v8h8H24z M16,48v-8v-8v-8v-8h8h8h8h8h8v8v8v8v8v8h-8
		h-8h-8h-8h-8V48z"/>
	<rect x="104" y="40" width="8" height="8"/>
	<polygon points="56,88 56,80 48,80 48,72 40,72 32,72 24,72 16,72 8,72 8,80 8,88 16,88 24,88 24,96 32,96 40,96 40,88 32,88 
		32,80 40,80 40,88 48,88 48,96 56,96 64,96 64,88 	"/>
	<polygon points="16,136 8,136 8,144 8,152 8,160 8,168 8,176 16,176 16,168 16,160 16,152 16,144 24,144 24,136 	"/>
	<rect x="40" y="144" width="8" height="8"/>
	<rect x="216" y="232" width="8" height="8"/>
	<polygon points="24,128 32,128 32,120 24,120 24,112 16,112 16,120 8,120 8,128 16,128 	"/>
	<polygon points="16,96 8,96 8,104 8,112 16,112 16,104 	"/>
	<polygon points="32,200 24,200 24,208 24,216 24,224 32,224 40,224 48,224 48,216 48,208 48,200 40,200 	"/>
	<path d="M48,184h-8h-8h-8h-8H8v8v8v8v8v8v8v8h8h8h8h8h8h8h8v-8v-8v-8v-8v-8v-8v-8h-8H48z M56,200v8v8v8v8h-8h-8h-8h-8h-8v-8v-8v-8
		v-8v-8h8h8h8h8h8V200z"/>
	<polygon points="40,48 48,48 48,40 48,32 48,24 40,24 32,24 24,24 24,32 24,40 24,48 32,48 	"/>
	<polygon points="80,176 80,168 72,168 72,160 64,160 64,168 56,168 48,168 40,168 40,160 40,152 32,152 32,144 24,144 24,152 
		24,160 32,160 32,168 32,176 40,176 48,176 56,176 64,176 72,176 72,184 72,192 80,192 80,184 	"/>
	<rect x="72" y="152" width="8" height="8"/>
	<polygon points="56,160 64,160 64,152 56,152 48,152 48,160 	"/>
	<polygon points="128,56 120,56 120,64 120,72 112,72 112,64 112,56 104,56 104,64 104,72 104,80 112,80 120,80 128,80 128,72 
		136,72 136,64 128,64 	"/>
	<rect x="80" y="192" width="8" height="8"/>
	<rect x="88" y="184" width="8" height="8"/>
	<rect x="232" y="144" width="8" height="8"/>
	<path d="M168,72h8v-8v-8v-8v-8v-8h-8v8h-8h-8h-8v-8h-8h-8h-8v8v8h8v-8h8v8h8v8h8v8v8h8v8h-8v8h8h8v-8V72z M160,56v-8h8v8v8h-8V56z"
		/>
	<polygon points="96,152 96,144 88,144 80,144 80,152 88,152 	"/>
	<polygon points="64,88 72,88 72,80 80,80 80,88 72,88 72,96 80,96 80,104 80,112 88,112 88,104 96,104 96,112 104,112 104,104 
		104,96 112,96 120,96 120,104 128,104 128,96 136,96 136,88 128,88 120,88 112,88 104,88 96,88 96,96 88,96 88,88 88,80 96,80 
		96,72 88,72 80,72 72,72 64,72 56,72 56,80 64,80 	"/>
	<polygon points="72,96 64,96 64,104 56,104 48,104 40,104 40,112 48,112 48,120 56,120 56,112 64,112 72,112 72,104 	"/>
	<polygon points="88,128 96,128 96,120 96,112 88,112 88,120 80,120 80,112 72,112 72,120 72,128 80,128 80,136 88,136 	"/>
	<polygon points="136,112 144,112 144,104 136,104 128,104 128,112 	"/>
	<path d="M136,120h-8v8h-8v8h-8v-8h-8v8v8h8v8h8h8v-8v-8h8v-8h8h8v-8h8h8v8h-8h-8v8h8v8h-8v8h-8v-8h-8v8h-8v8h8h8h8v8h8h8v-8h-8v-8
		h8v8h8h8v-8h-8v-8h-8v-8h8h8h8v-8v-8h8v8h8v-8v-8h-8h-8h-8v-8h8v-8h8h8v-8v-8h-8v-8h-8v8h-8v-8h-8v8v8h8v8h-8v-8h-8v8v8h8v8h-8v-8
		h-8v8h-8h-8v8H136z M184,120v8h-8v-8H184z"/>
	<rect x="136" y="56" width="8" height="8"/>
	<polygon points="136,176 144,176 144,168 136,168 128,168 120,168 120,176 112,176 104,176 104,184 112,184 120,184 128,184 
		128,176 	"/>
	<polygon points="104,160 112,160 112,152 104,152 96,152 96,160 96,168 88,168 88,176 96,176 104,176 104,168 	"/>
	<rect x="144" y="136" width="8" height="8"/>
	<rect x="184" y="184" width="8" height="8"/>
	<path d="M232,160h-8v8h-8v8h-8v-8h-8h-8h-8h-8h-8v8v8h-8h-8v8h8v8h8v8v8h-8h-8h-8v8h8h8h8v8h8h8v-8h-8v-8v-8h8h8h8h8v8h-8h-8h-8v8
		h8v8v8h8h8v-8h8v-8h8v8h8v-8v-8h8v-8v-8v-8h-8v8h-8h-8v-8h8v-8h8h8v-8v-8h-8V160z M192,200h-8h-8v-8v-8v-8h8h8h8v8v8v8H192z
		 M224,208v8h-8v-8H224z"/>
	<rect x="40" y="128" width="8" height="8"/>
	<polygon points="120,112 120,104 112,104 112,112 104,112 104,120 112,120 120,120 128,120 128,112 	"/>
	<polygon points="136,216 144,216 144,208 136,208 136,200 144,200 144,192 144,184 136,184 128,184 128,192 120,192 120,200 
		128,200 128,208 120,208 120,216 128,216 128,224 128,232 128,240 136,240 136,232 144,232 144,224 136,224 	"/>
	<polygon points="104,216 96,216 96,224 88,224 88,232 96,232 96,240 104,240 112,240 112,232 104,232 104,224 112,224 120,224 
		120,216 112,216 	"/>
	<polygon points="80,216 80,208 80,200 72,200 72,208 72,216 72,224 72,232 72,240 80,240 80,232 80,224 88,224 88,216 	"/>
	<polygon points="144,200 144,208 152,208 160,208 160,200 152,200 	"/>
	<polygon points="216,120 216,128 224,128 224,120 224,112 224,104 216,104 208,104 208,112 216,112 	"/>
	<rect x="128" y="48" width="8" height="8"/>
	<polygon points="216,144 208,144 200,144 200,136 192,136 192,144 184,144 184,152 192,152 192,160 200,160 208,160 216,160 
		224,160 224,152 224,144 224,136 216,136 	"/>
</g>
<g>
	<g>
		<g>
			<g>
				<path fill="#7EC1BD" d="M164,159c0,2.75-2.25,5-5,5H89c-2.75,0-5-2.25-5-5V89c0-2.75,2.25-5,5-5h70c2.75,0,5,2.25,5,5V159z"/>
			</g>
		</g>
	</g>
</g>
<g>
	<g>
		<g opacity="0.5">
			<g>
				<g>
					<path fill="#FFFFFF" d="M121.821,99.897c0.405-0.546,0.501-1.59-0.105-2.214c-0.627-0.645-1.812-0.587-2.478-0.333
						c-1.202,0.456-2.263,1.053-3.27,1.803c-3.14,2.342-5.165,6.021-5.165,10.16c0,7.072,5.908,12.805,13.195,12.805
						c7.29,0,13.196-5.732,13.196-12.805c0-2.246-0.598-4.355-1.645-6.191c-0.115-0.244-0.475-0.164-0.414,0.047
						c0.949,2.723,0.559,6.025-1.316,8.812c-2.979,4.426-8.568,5.874-12.488,3.236c-3.919-2.639-4.684-8.362-1.706-12.787
						C120.178,101.61,121.317,100.573,121.821,99.897z"/>
				</g>
			</g>
		</g>
		<g opacity="0.5">
			<g>
				<g>
					<path fill="#FFFFFF" d="M135.146,103.146c-0.016,0.03-0.021,0.067-0.01,0.11c0.949,2.723,0.559,6.025-1.316,8.812
						c-2.979,4.426-8.568,5.874-12.488,3.236c-3.919-2.638-4.684-8.363-1.706-12.787c0.552-0.819,1.69-1.857,2.195-2.534
						c0.405-0.544,0.501-1.588-0.105-2.212c-0.483-0.497-1.297-0.576-1.95-0.471c-3.399,1.686-5.949,5.057-6.5,9.201
						c-0.865,6.508,3.523,12.461,9.802,13.296s12.069-3.765,12.935-10.273C136.303,107.269,135.971,105.079,135.146,103.146z"/>
				</g>
			</g>
		</g>
		<g opacity="0.5">
			<g>
				<g>
					<path fill="#FFFFFF" d="M137.195,109.402c0-2.246-0.598-4.356-1.645-6.192c-0.115-0.243-0.475-0.164-0.414,0.047
						c0.949,2.723,0.559,6.025-1.316,8.812c-2.979,4.426-8.568,5.874-12.488,3.236c-3.919-2.638-4.684-8.363-1.706-12.787
						c0.521-0.775,1.567-1.743,2.104-2.419c-2.02,1.223-3.775,3.079-4.952,5.446c-2.986,6.008-1.106,13.016,4.2,15.655
						c1.193,0.593,2.46,0.914,3.741,0.987C131.674,121.825,137.195,116.24,137.195,109.402z"/>
				</g>
			</g>
		</g>
		<g>
			<g>
				<path fill="#FFFFFF" d="M119.626,102.518c0.034-0.05,0.069-0.101,0.108-0.152c0.011-0.016,0.024-0.032,0.036-0.048
					c0.027-0.036,0.054-0.071,0.083-0.108c0.015-0.02,0.031-0.038,0.045-0.057c0.028-0.035,0.055-0.069,0.083-0.104
					c0.017-0.019,0.033-0.039,0.05-0.06c0.029-0.034,0.058-0.068,0.088-0.104c0.016-0.02,0.033-0.039,0.05-0.058
					c0.032-0.036,0.063-0.073,0.096-0.11c0.015-0.016,0.03-0.033,0.046-0.051c0.035-0.039,0.071-0.079,0.106-0.119
					c0.013-0.014,0.025-0.025,0.036-0.039c0.042-0.046,0.084-0.092,0.126-0.137c0.004-0.006,0.008-0.01,0.012-0.015
					c0.271-0.293,0.547-0.582,0.785-0.847c0.004-0.002,0.008-0.007,0.009-0.01c0.041-0.045,0.08-0.089,0.118-0.132
					c0.004-0.005,0.006-0.009,0.011-0.013c0.037-0.043,0.072-0.084,0.107-0.125c0.001-0.003,0.005-0.008,0.008-0.01
					c0.035-0.041,0.068-0.083,0.1-0.122c-2.02,1.223-3.775,3.079-4.952,5.446c-1.805,3.631-1.832,7.627-0.4,10.803
					c1.724,1.834,4.038,3.099,6.688,3.45c6.278,0.835,12.069-3.765,12.935-10.273c0.301-2.256-0.031-4.446-0.855-6.379
					c-0.002,0.007-0.004,0.013-0.008,0.021c-0.002,0.002-0.002,0.005-0.004,0.007c0,0.006-0.002,0.013-0.002,0.019
					c-0.002,0.005-0.002,0.011-0.002,0.016s0,0.01,0,0.016c0.002,0.01,0.004,0.021,0.006,0.033c0.949,2.723,0.559,6.025-1.316,8.812
					c-2.979,4.426-8.568,5.874-12.488,3.236C117.413,112.667,116.648,106.942,119.626,102.518z"/>
			</g>
		</g>
		<g>
			<g>
				
					<ellipse transform="matrix(0.9537 0.3008 -0.3008 0.9537 36.9325 -33.5449)" fill="#FFFFFF" cx="127.407" cy="103.17" rx="4.357" ry="3.02"/>
			</g>
		</g>
		<g>
			<g>
				
					<ellipse transform="matrix(0.9537 0.3007 -0.3007 0.9537 38.5125 -32.7594)" fill="#FFFFFF" cx="125.661" cy="108.711" rx="1.898" ry="1.315"/>
			</g>
		</g>
	</g>
	<g>
		<g>
			<g>
				<g>
					<path fill="#FFFFFF" d="M122.987,131.828c-0.201-0.199-0.404-0.164-0.404-0.164h-3.699c0,0-0.842-0.012-1.359,0.506
						c-0.518,0.52-0.459,1.555-0.459,1.555v8.553l1.125,0.592v-9.105c0,0-0.006-0.434,0.256-0.697
						c0.266-0.264,0.541-0.277,0.541-0.277h2.836c0,0,0.09-0.01,0.158,0.059c0.043,0.041,0.047,0.168,0.047,0.168v5.867
						c0,0,0.014,0.117-0.053,0.174c-0.086,0.07-0.225-0.014-0.225-0.014l-1.102-0.588v1.275l1.973,1.055
						c0,0,0.199,0.123,0.393-0.002c0.137-0.088,0.139-0.379,0.139-0.379v-8.168C123.153,132.236,123.188,132.029,122.987,131.828z"
						/>
				</g>
			</g>
		</g>
		<g>
			<g>
				<g>
					<path fill="#FFFFFF" d="M116.569,134.279h-0.004v-1.947c0,0,0.025-0.389-0.148-0.541c-0.172-0.15-0.559-0.127-0.559-0.127
						h-3.422c0,0-1.07-0.092-1.582,0.42s-0.396,1.648-0.396,1.648v2.338v0.373v1.305c0,0-0.025,0.387,0.125,0.557
						c0.154,0.174,0.543,0.15,0.543,0.15h3.436c0,0,0.998,0.02,1.52-0.5c0.52-0.52,0.484-1.525,0.484-1.525L116.569,134.279z
						 M115.188,137.09c-0.287,0.285-0.758,0.24-0.758,0.24h-2.619c0,0-0.105,0.016-0.17-0.053c-0.076-0.074-0.059-0.182-0.059-0.182
						v-0.652v-0.373v-2.412c0,0-0.035-0.428,0.207-0.668c0.244-0.242,0.717-0.201,0.717-0.201h2.701c0,0,0.107-0.018,0.184,0.055
						c0.066,0.07,0.051,0.176,0.051,0.176v1.35l0,0v2.057C115.442,136.426,115.473,136.803,115.188,137.09z"/>
				</g>
			</g>
		</g>
		<g>
			<g>
				<g>
					<path fill="#FFFFFF" d="M137.389,131.828c-0.201-0.199-0.404-0.164-0.404-0.164h-3.703c0,0-0.838-0.012-1.355,0.506
						c-0.52,0.52-0.461,1.555-0.461,1.555v8.553l1.125,0.592v-9.105c0,0-0.006-0.434,0.258-0.697s0.539-0.277,0.539-0.277h2.834
						c0,0,0.092-0.01,0.16,0.059c0.043,0.041,0.047,0.168,0.047,0.168v5.867c0,0,0.016,0.117-0.053,0.174
						c-0.084,0.07-0.225-0.014-0.225-0.014l-1.102-0.588v1.275l1.971,1.055c0,0,0.201,0.123,0.393-0.002
						c0.139-0.088,0.139-0.379,0.139-0.379v-8.168C137.551,132.236,137.586,132.029,137.389,131.828z"/>
				</g>
			</g>
		</g>
		<g>
			<g>
				<g>
					<path fill="#FFFFFF" d="M130.967,134.279L130.967,134.279v-1.947c0,0,0.025-0.389-0.15-0.541
						c-0.17-0.15-0.559-0.127-0.559-0.127h-3.42c0,0-1.072-0.092-1.582,0.42c-0.512,0.512-0.396,1.648-0.396,1.648v2.338v0.373
						v1.305c0,0-0.025,0.387,0.125,0.557c0.154,0.174,0.541,0.15,0.541,0.15h3.436c0,0,1,0.02,1.52-0.5s0.486-1.525,0.486-1.525
						V134.279z M129.586,137.09c-0.285,0.285-0.756,0.24-0.756,0.24h-2.617c0,0-0.105,0.016-0.172-0.053
						c-0.074-0.074-0.059-0.182-0.059-0.182v-0.652v-0.373v-2.412c0,0-0.033-0.428,0.211-0.668c0.24-0.242,0.713-0.201,0.713-0.201
						h2.703c0,0,0.105-0.018,0.182,0.055c0.066,0.07,0.051,0.176,0.051,0.176v1.35h0.002l-0.002,2.057
						C129.842,136.426,129.873,136.803,129.586,137.09z"/>
				</g>
			</g>
		</g>
	</g>
	<g>
		<g>
			<path fill="#FFFFFF" d="M115.059,150.705v-4.68h0.442v2.424l2.398-2.424h0.5l-1.846,1.865l2.172,2.814h-0.541l-1.949-2.541
				l-0.734,0.734v1.807H115.059z"/>
		</g>
		<g>
			<path fill="#FFFFFF" d="M119.187,148.371c0-0.342,0.045-0.662,0.139-0.963c0.094-0.299,0.23-0.559,0.414-0.783
				c0.182-0.223,0.406-0.398,0.676-0.529c0.268-0.129,0.578-0.195,0.93-0.195c0.363,0,0.682,0.064,0.957,0.193
				c0.275,0.127,0.506,0.303,0.689,0.525s0.322,0.486,0.416,0.787s0.141,0.623,0.141,0.965c0,0.338-0.047,0.656-0.141,0.953
				s-0.23,0.557-0.412,0.779s-0.41,0.4-0.684,0.529c-0.271,0.131-0.588,0.195-0.947,0.195c-0.361,0-0.678-0.064-0.949-0.195
				c-0.273-0.129-0.502-0.307-0.684-0.529s-0.318-0.482-0.408-0.779C119.232,149.027,119.187,148.709,119.187,148.371z
				 M121.371,150.451c0.303,0,0.564-0.057,0.783-0.172s0.398-0.268,0.539-0.459c0.141-0.189,0.244-0.412,0.312-0.662
				c0.066-0.252,0.1-0.514,0.1-0.787c0-0.324-0.039-0.617-0.119-0.875s-0.197-0.477-0.348-0.658
				c-0.152-0.184-0.336-0.322-0.553-0.416c-0.217-0.096-0.459-0.145-0.729-0.145c-0.299,0-0.559,0.059-0.777,0.176
				s-0.398,0.271-0.539,0.465s-0.244,0.416-0.311,0.666c-0.068,0.252-0.102,0.514-0.102,0.787c0,0.277,0.033,0.541,0.102,0.793
				c0.066,0.252,0.17,0.473,0.311,0.662c0.141,0.191,0.32,0.344,0.539,0.455C120.798,150.395,121.062,150.451,121.371,150.451z"/>
		</g>
		<g>
			<path fill="#FFFFFF" d="M124.451,150.705v-4.68h0.442v2.424l2.398-2.424h0.502l-1.846,1.865l2.17,2.814h-0.539l-1.951-2.541
				l-0.734,0.734v1.807H124.451z"/>
		</g>
		<g>
			<path fill="#FFFFFF" d="M128.58,148.371c0-0.342,0.045-0.662,0.139-0.963c0.094-0.299,0.23-0.559,0.414-0.783
				c0.182-0.223,0.406-0.398,0.676-0.529c0.268-0.129,0.578-0.195,0.93-0.195c0.363,0,0.682,0.064,0.957,0.193
				c0.275,0.127,0.506,0.303,0.689,0.525s0.322,0.486,0.416,0.787s0.141,0.623,0.141,0.965c0,0.338-0.047,0.656-0.141,0.953
				s-0.23,0.557-0.412,0.779s-0.41,0.4-0.684,0.529c-0.271,0.131-0.588,0.195-0.947,0.195c-0.361,0-0.678-0.064-0.949-0.195
				c-0.273-0.129-0.502-0.307-0.684-0.529s-0.318-0.482-0.408-0.779C128.625,149.027,128.58,148.709,128.58,148.371z
				 M130.764,150.451c0.303,0,0.564-0.057,0.783-0.172s0.398-0.268,0.539-0.459c0.141-0.189,0.244-0.412,0.312-0.662
				c0.066-0.252,0.1-0.514,0.1-0.787c0-0.324-0.039-0.617-0.119-0.875s-0.197-0.477-0.348-0.658
				c-0.152-0.184-0.336-0.322-0.553-0.416c-0.217-0.096-0.459-0.145-0.729-0.145c-0.299,0-0.559,0.059-0.777,0.176
				s-0.398,0.271-0.539,0.465s-0.244,0.416-0.311,0.666c-0.068,0.252-0.102,0.514-0.102,0.787c0,0.277,0.033,0.541,0.102,0.793
				c0.066,0.252,0.17,0.473,0.311,0.662c0.141,0.191,0.32,0.344,0.539,0.455C130.191,150.395,130.455,150.451,130.764,150.451z"/>
		</g>
	</g>
</g>
</svg>
