<?xml version="1.0" encoding="UTF-8" standalone="no"?>
<svg width="440px" height="580px" viewBox="0 0 440 580" version="1.1" xmlns="http://www.w3.org/2000/svg" xmlns:xlink="http://www.w3.org/1999/xlink" xmlns:sketch="http://www.bohemiancoding.com/sketch/ns">
    <!-- Generator: Sketch 3.3 (11970) - http://www.bohemiancoding.com/sketch -->
    <title>plus + setting + Group</title>
    <desc>Created with Sketch.</desc>
    <defs></defs>
    <g id="Page-1" stroke="none" stroke-width="1" fill="none" fill-rule="evenodd" sketch:type="MSPage">
        <g id="员工--暂无动态" sketch:type="MSArtboardGroup" transform="translate(-100.000000, -253.000000)">
            <g id="Radial-Menu" sketch:type="MSLayerGroup" transform="translate(30.000000, 130.000000)">
                <g id="plus-+-setting-+-Group" transform="translate(0.000000, 123.000000)" sketch:type="MSShapeGroup">
                    <g id="Group" transform="translate(70.000000, 0.000000)">
                        <g id="photos" transform="translate(185.000000, 510.000000)">
                            <circle id="bg" fill="#88C057" cx="35" cy="35" r="35"></circle>
                            <path d="M50.875,24.926578 C51.227,24.926578 51.51,24.985578 51.725,25.102578 C51.939,25.219578 52.154,25.375578 52.37,25.570578 C52.584,25.767578 52.721,25.990578 52.78,26.244578 C52.838,26.499578 52.887,26.781578 52.926,27.094578 L51.813,51.996578 C51.813,52.270578 51.745,52.534578 51.608,52.787578 C51.47,53.042578 51.315,53.256578 51.139,53.432578 C50.963,53.608578 50.738,53.745578 50.465,53.842578 C50.192,53.940578 49.938,53.969578 49.704,53.930578 L27.379,52.992578 C27.145,52.992578 26.891,52.934578 26.618,52.817578 C26.344,52.699578 26.129,52.544578 25.973,52.348578 C25.816,52.153578 25.68,51.919578 25.563,51.645578 C25.446,51.372578 25.406,51.098578 25.446,50.824578 L25.504,48.129578 C25.543,48.129578 25.553,48.120578 25.534,48.100578 C25.514,48.080578 25.514,48.070578 25.534,48.070578 C25.553,48.070578 25.553,48.061578 25.534,48.041578 C25.514,48.022578 25.524,48.012578 25.563,48.012578 L25.534,48.012578 C25.553,48.012578 25.553,48.003578 25.534,47.983578 C25.514,47.963578 25.514,47.953578 25.534,47.953578 C25.553,47.953578 25.543,47.953578 25.504,47.953578 C25.543,47.836578 25.524,47.719578 25.446,47.602578 C25.367,47.485578 25.299,47.387578 25.241,47.309578 C25.182,47.231578 25.084,47.172578 24.948,47.133578 C24.811,47.095578 24.703,47.074578 24.626,47.074578 L24.596,47.074578 L24.596,47.074578 C24.576,47.074578 24.576,47.074578 24.596,47.074578 C24.616,47.074578 24.606,47.074578 24.567,47.074578 L24.567,47.074578 L24.538,47.074578 L24.538,47.074578 C24.517,47.074578 24.527,47.074578 24.567,47.074578 L22.457,47.191578 C22.223,47.191578 21.969,47.143578 21.696,47.045578 C21.422,46.948578 21.198,46.811578 21.022,46.635578 C20.846,46.459578 20.68,46.254578 20.524,46.020578 C20.367,45.785578 20.309,45.512578 20.348,45.199578 L19,20.355578 C19,20.043578 19.039,19.760578 19.118,19.506578 C19.196,19.252578 19.332,19.028578 19.528,18.832578 C19.723,18.637578 19.938,18.480578 20.172,18.363578 C20.407,18.246578 20.68,18.169578 20.993,18.129578 L43.2,17.016578 C43.512,16.977578 43.795,17.007578 44.049,17.104578 C44.303,17.202578 44.537,17.338578 44.752,17.514578 C44.967,17.689578 45.123,17.905578 45.221,18.158578 C45.318,18.413578 45.387,18.676578 45.426,18.949578 L45.661,23.754578 L45.69,23.754578 C45.67,23.754578 45.67,23.754578 45.69,23.754578 C45.709,23.754578 45.709,23.764578 45.69,23.783578 C45.67,23.804578 45.68,23.813578 45.719,23.813578 C45.68,23.813578 45.67,23.823578 45.69,23.842578 C45.709,23.862578 45.709,23.871578 45.69,23.871578 C45.67,23.871578 45.67,23.881578 45.69,23.900578 C45.709,23.921578 45.699,23.930578 45.661,23.930578 L45.69,23.930578 C45.67,23.930578 45.67,23.930578 45.69,23.930578 L45.69,23.930578 C45.67,23.930578 45.68,23.930578 45.719,23.930578 C45.68,24.047578 45.69,24.145578 45.749,24.223578 C45.807,24.301578 45.866,24.379578 45.924,24.457578 C45.983,24.536578 46.061,24.595578 46.159,24.633578 C46.256,24.672578 46.324,24.712578 46.364,24.750578 L46.452,24.750578 C46.431,24.750578 46.461,24.750578 46.54,24.750578 L46.657,24.750578 C46.617,24.750578 46.617,24.750578 46.657,24.750578 L46.715,24.750578 L50.934,24.926578 L50.875,24.926578 L50.875,24.926578 Z M23.805,39.574578 L24.918,39.516578 L24.977,39.516578 L25.006,39.516578 C24.986,39.516578 24.996,39.516578 25.036,39.516578 C24.996,39.516578 25.016,39.516578 25.094,39.516578 L25.153,39.516578 C25.27,39.477578 25.367,39.438578 25.446,39.398578 C25.524,39.360578 25.602,39.302578 25.68,39.223578 C25.758,39.145578 25.816,39.067578 25.856,38.988578 C25.894,38.911578 25.934,38.813578 25.973,38.695578 C25.934,38.695578 25.924,38.686578 25.944,38.666578 C25.963,38.647578 25.963,38.637578 25.944,38.637578 C25.924,38.637578 25.924,38.628578 25.944,38.607578 C25.963,38.588578 25.953,38.578578 25.915,38.578578 C25.953,38.578578 25.963,38.569578 25.944,38.549578 C25.924,38.530578 25.924,38.520578 25.944,38.520578 L25.944,38.520578 C25.924,38.520578 25.934,38.520578 25.973,38.520578 L26.501,25.922578 C26.539,25.649578 26.607,25.386578 26.706,25.131578 C26.803,24.877578 26.959,24.662578 27.174,24.486578 C27.389,24.311578 27.614,24.174578 27.848,24.076578 C28.082,23.979578 28.356,23.930578 28.668,23.930578 L41.501,24.516578 L41.588,24.516578 C41.568,24.516578 41.578,24.516578 41.618,24.516578 L41.647,24.516578 C41.627,24.516578 41.637,24.516578 41.676,24.516578 L41.706,24.516578 C41.686,24.516578 41.686,24.516578 41.706,24.516578 C41.725,24.516578 41.715,24.516578 41.676,24.516578 L41.706,24.516578 C41.686,24.516578 41.686,24.516578 41.706,24.516578 L41.706,24.516578 C41.686,24.516578 41.695,24.516578 41.735,24.516578 C41.813,24.516578 41.92,24.486578 42.057,24.428578 C42.194,24.369578 42.291,24.301578 42.35,24.223578 C42.409,24.145578 42.467,24.057578 42.526,23.959578 C42.585,23.862578 42.594,23.754578 42.555,23.637578 L42.585,23.637578 C42.565,23.637578 42.565,23.637578 42.585,23.637578 L42.585,23.637578 C42.565,23.637578 42.574,23.637578 42.614,23.637578 C42.574,23.637578 42.565,23.628578 42.585,23.608578 C42.604,23.588578 42.604,23.578578 42.585,23.578578 C42.565,23.578578 42.565,23.578578 42.585,23.578578 C42.604,23.578578 42.594,23.578578 42.555,23.578578 C42.594,23.578578 42.604,23.569578 42.585,23.549578 C42.565,23.530578 42.565,23.520578 42.585,23.520578 C42.604,23.520578 42.604,23.510578 42.585,23.490578 C42.565,23.471578 42.574,23.461578 42.614,23.461578 L42.438,20.824578 C42.476,20.669578 42.457,20.541578 42.379,20.443578 C42.301,20.346578 42.233,20.258578 42.174,20.180578 C42.116,20.102578 42.018,20.033578 41.881,19.975578 C41.744,19.916578 41.637,19.887578 41.559,19.887578 L41.53,19.887578 C41.549,19.887578 41.539,19.887578 41.501,19.887578 L41.471,19.887578 C41.491,19.887578 41.48,19.887578 41.442,19.887578 L41.471,19.887578 C41.451,19.887578 41.451,19.887578 41.471,19.887578 C41.491,19.887578 41.48,19.887578 41.442,19.887578 C41.402,19.887578 41.402,19.887578 41.442,19.887578 L22.809,20.883578 L22.809,20.883578 L22.78,20.883578 L22.78,20.883578 C22.76,20.883578 22.77,20.883578 22.809,20.883578 L22.78,20.883578 C22.799,20.883578 22.789,20.883578 22.751,20.883578 L22.721,20.883578 C22.741,20.883578 22.73,20.883578 22.692,20.883578 C22.613,20.883578 22.516,20.912578 22.399,20.971578 C22.282,21.029578 22.194,21.098578 22.135,21.176578 C22.077,21.255578 22.018,21.352578 21.959,21.469578 C21.901,21.586578 21.891,21.703578 21.93,21.820578 L21.901,21.820578 L21.901,21.820578 C21.881,21.820578 21.881,21.831578 21.901,21.850578 C21.92,21.870578 21.91,21.879578 21.872,21.879578 L21.901,21.879578 C21.881,21.879578 21.881,21.889578 21.901,21.908578 C21.92,21.928578 21.92,21.937578 21.901,21.937578 C21.881,21.937578 21.891,21.937578 21.93,21.937578 L22.751,38.637578 L22.78,38.637578 C22.76,38.637578 22.76,38.637578 22.78,38.637578 C22.799,38.637578 22.799,38.647578 22.78,38.666578 C22.76,38.686578 22.77,38.695578 22.809,38.695578 L22.78,38.695578 C22.799,38.695578 22.799,38.706578 22.78,38.725578 C22.76,38.745578 22.76,38.754578 22.78,38.754578 C22.799,38.754578 22.789,38.754578 22.751,38.754578 C22.789,38.871578 22.828,38.979578 22.868,39.076578 C22.906,39.174578 22.975,39.262578 23.073,39.340578 C23.17,39.419578 23.268,39.477578 23.366,39.516578 C23.463,39.555578 23.59,39.574578 23.747,39.574578 L23.717,39.574578 L23.717,39.574578 C23.697,39.574578 23.707,39.574578 23.747,39.574578 L23.776,39.574578 C23.756,39.574578 23.756,39.574578 23.776,39.574578 L23.776,39.574578 C23.756,39.574578 23.766,39.574578 23.805,39.574578 L23.805,39.574578 Z M49.059,45.434578 L49.821,28.617578 C49.781,28.500578 49.752,28.383578 49.733,28.266578 C49.713,28.148578 49.654,28.052578 49.557,27.973578 C49.459,27.895578 49.371,27.826578 49.294,27.768578 C49.215,27.709578 49.098,27.680578 48.942,27.680578 L48.913,27.680578 L48.913,27.680578 C48.893,27.680578 48.903,27.680578 48.942,27.680578 L48.883,27.680578 L48.854,27.680578 C48.873,27.680578 48.863,27.680578 48.825,27.680578 L30.251,26.860578 L30.221,26.860578 C30.241,26.860578 30.231,26.860578 30.192,26.860578 L30.133,26.860578 L30.163,26.860578 C30.142,26.860578 30.142,26.860578 30.163,26.860578 L30.163,26.860578 C30.142,26.860578 30.152,26.860578 30.192,26.860578 C29.996,26.860578 29.86,26.880578 29.782,26.918578 C29.703,26.957578 29.615,27.016578 29.518,27.094578 C29.42,27.172578 29.352,27.260578 29.313,27.357578 C29.274,27.456578 29.234,27.562578 29.196,27.680578 L29.225,27.680578 C29.205,27.680578 29.205,27.690578 29.225,27.709578 C29.244,27.729578 29.244,27.738578 29.225,27.738578 C29.205,27.738578 29.215,27.738578 29.254,27.738578 C29.215,27.738578 29.205,27.748578 29.225,27.768578 C29.244,27.788578 29.244,27.797578 29.225,27.797578 C29.205,27.797578 29.205,27.797578 29.225,27.797578 C29.244,27.797578 29.234,27.797578 29.196,27.797578 L28.492,44.496578 L28.463,44.496578 C28.482,44.496578 28.482,44.506578 28.463,44.526578 C28.443,44.546578 28.443,44.555578 28.463,44.555578 C28.482,44.555578 28.472,44.555578 28.434,44.555578 C28.472,44.555578 28.482,44.565578 28.463,44.584578 C28.443,44.604578 28.443,44.613578 28.463,44.613578 L28.463,44.613578 C28.443,44.613578 28.453,44.613578 28.492,44.613578 C28.453,44.731578 28.472,44.848578 28.551,44.965578 C28.629,45.082578 28.688,45.180578 28.727,45.258578 C28.766,45.337578 28.853,45.395578 28.991,45.434578 C29.127,45.473578 29.234,45.512578 29.313,45.551578 L29.342,45.551578 C29.322,45.551578 29.322,45.551578 29.342,45.551578 L29.342,45.551578 C29.322,45.551578 29.352,45.551578 29.43,45.551578 L29.401,45.551578 L29.401,45.551578 C29.381,45.551578 29.381,45.551578 29.401,45.551578 C29.42,45.551578 29.41,45.551578 29.372,45.551578 L48.063,46.371578 C48.024,46.371578 48.024,46.371578 48.063,46.371578 L48.063,46.371578 L48.092,46.371578 C48.072,46.371578 48.082,46.371578 48.121,46.371578 L48.18,46.371578 C48.258,46.371578 48.365,46.342578 48.502,46.283578 C48.639,46.225578 48.737,46.157578 48.796,46.078578 C48.854,46.000578 48.913,45.913578 48.971,45.814578 C49.03,45.718578 49.059,45.590578 49.059,45.434578 L49.059,45.434578 Z" id="icon" fill="#FFFFFF"></path>
                        </g>
                        <g id="icon" transform="translate(370.000000, 440.000000)">
                            <circle id="bg" fill="#546979" cx="35" cy="35" r="35"></circle>
                            <path d="M48.924,38.834 C49.09,38.868 49.231,38.918 49.348,38.985 C49.465,39.053 49.581,39.145 49.698,39.262 C49.815,39.38 49.89,39.506 49.923,39.64 C49.956,39.774 49.989,39.925 50.023,40.093 L49.973,40.496 C50.006,40.664 49.989,40.815 49.923,40.949 C49.856,41.083 49.781,41.21 49.698,41.327 C49.615,41.445 49.498,41.537 49.348,41.604 C49.198,41.672 49.074,41.722 48.974,41.755 L48.824,41.755 C48.757,41.755 48.657,41.78 48.524,41.83 C48.39,41.881 48.291,41.948 48.224,42.032 C48.157,42.116 48.091,42.208 48.025,42.309 C47.958,42.409 47.941,42.527 47.975,42.661 L47.925,48.906 C47.925,49.074 47.883,49.225 47.8,49.359 C47.716,49.494 47.625,49.603 47.525,49.686 C47.425,49.77 47.3,49.846 47.15,49.913 C47.001,49.981 46.858,50.013 46.726,50.013 L46.276,50.013 C46.176,50.013 46.043,49.981 45.877,49.913 C45.709,49.846 45.577,49.77 45.477,49.686 C45.377,49.603 45.285,49.494 45.202,49.359 C45.119,49.225 45.077,49.074 45.077,48.906 L45.027,42.661 C45.06,42.527 45.044,42.409 44.977,42.309 C44.91,42.208 44.844,42.116 44.777,42.032 C44.71,41.948 44.619,41.881 44.503,41.83 C44.386,41.78 44.278,41.755 44.178,41.755 L44.078,41.755 C43.945,41.722 43.803,41.672 43.654,41.604 C43.503,41.537 43.387,41.445 43.304,41.327 C43.22,41.21 43.145,41.083 43.079,40.949 C43.012,40.815 42.996,40.664 43.029,40.496 L42.979,40.093 C43.012,39.925 43.046,39.774 43.079,39.64 C43.112,39.506 43.187,39.38 43.304,39.262 C43.42,39.145 43.536,39.053 43.654,38.985 C43.77,38.918 43.928,38.868 44.128,38.834 C44.294,38.834 44.419,38.809 44.503,38.759 C44.585,38.708 44.678,38.641 44.777,38.557 C44.877,38.474 44.944,38.381 44.977,38.28 C45.01,38.18 45.044,38.062 45.077,37.927 L45.027,21.108 C45.094,20.941 45.152,20.789 45.202,20.655 C45.252,20.521 45.343,20.412 45.477,20.327 C45.609,20.244 45.743,20.168 45.877,20.101 C46.009,20.034 46.159,20 46.326,20 L46.676,20 C46.876,20 47.033,20.034 47.15,20.101 C47.267,20.168 47.392,20.244 47.525,20.327 C47.658,20.412 47.75,20.521 47.8,20.655 C47.85,20.789 47.908,20.941 47.975,21.108 L47.925,37.927 C47.958,38.062 47.991,38.18 48.025,38.28 C48.057,38.381 48.124,38.474 48.224,38.557 C48.324,38.641 48.416,38.708 48.499,38.759 C48.582,38.809 48.707,38.834 48.874,38.834 L48.924,38.834 L48.924,38.834 Z M41.38,28.259 C41.513,28.293 41.655,28.343 41.805,28.41 C41.955,28.478 42.071,28.569 42.155,28.687 C42.238,28.805 42.312,28.931 42.379,29.065 C42.446,29.199 42.462,29.35 42.429,29.518 L42.479,29.92 C42.446,30.089 42.412,30.24 42.379,30.374 C42.346,30.508 42.271,30.634 42.155,30.752 C42.038,30.87 41.922,30.962 41.805,31.029 C41.688,31.096 41.53,31.146 41.33,31.18 C41.164,31.18 41.039,31.205 40.956,31.255 C40.872,31.305 40.781,31.373 40.681,31.457 C40.581,31.54 40.514,31.633 40.481,31.733 C40.448,31.834 40.414,31.952 40.381,32.086 L40.431,48.906 C40.364,49.074 40.306,49.225 40.256,49.359 C40.207,49.494 40.114,49.603 39.982,49.686 C39.848,49.77 39.723,49.846 39.607,49.913 C39.49,49.981 39.332,50.013 39.132,50.013 L38.783,50.013 C38.583,50.013 38.424,49.981 38.308,49.913 C38.191,49.846 38.066,49.77 37.934,49.686 C37.8,49.603 37.709,49.494 37.659,49.359 C37.609,49.225 37.55,49.074 37.484,48.906 L37.534,32.086 C37.5,31.952 37.467,31.834 37.434,31.733 C37.4,31.633 37.334,31.54 37.234,31.457 C37.134,31.373 37.042,31.305 36.959,31.255 C36.876,31.205 36.751,31.18 36.585,31.18 L36.535,31.18 C36.368,31.146 36.226,31.096 36.11,31.029 C35.993,30.962 35.877,30.87 35.761,30.752 C35.643,30.634 35.568,30.508 35.536,30.374 C35.502,30.24 35.468,30.089 35.436,29.92 L35.486,29.518 C35.452,29.35 35.468,29.199 35.536,29.065 C35.602,28.931 35.677,28.805 35.761,28.687 C35.843,28.569 35.96,28.478 36.11,28.41 C36.26,28.343 36.385,28.293 36.485,28.259 L36.635,28.259 C36.735,28.259 36.842,28.234 36.959,28.183 C37.076,28.133 37.167,28.066 37.234,27.982 C37.301,27.899 37.367,27.805 37.434,27.705 C37.5,27.604 37.517,27.487 37.484,27.352 L37.534,21.108 C37.534,20.941 37.575,20.789 37.659,20.655 C37.741,20.521 37.834,20.412 37.934,20.327 C38.033,20.244 38.158,20.168 38.308,20.101 C38.458,20.034 38.599,20 38.733,20 L39.182,20 C39.315,20 39.457,20.034 39.607,20.101 C39.757,20.168 39.882,20.244 39.982,20.327 C40.082,20.412 40.173,20.521 40.256,20.655 C40.339,20.789 40.381,20.941 40.381,21.108 L40.431,27.352 C40.398,27.487 40.414,27.604 40.481,27.705 C40.548,27.805 40.614,27.899 40.681,27.982 C40.747,28.066 40.839,28.133 40.956,28.183 C41.072,28.234 41.181,28.259 41.28,28.259 L41.38,28.259 L41.38,28.259 Z M33.487,38.834 C33.654,38.868 33.795,38.918 33.912,38.985 C34.029,39.053 34.145,39.145 34.262,39.262 C34.378,39.38 34.453,39.506 34.486,39.64 C34.519,39.774 34.553,39.925 34.586,40.093 L34.536,40.496 C34.569,40.664 34.553,40.815 34.486,40.949 C34.419,41.083 34.345,41.21 34.262,41.327 C34.178,41.445 34.062,41.537 33.912,41.604 C33.762,41.672 33.62,41.722 33.487,41.755 L33.387,41.755 C33.288,41.755 33.179,41.78 33.063,41.83 C32.946,41.881 32.854,41.948 32.788,42.032 C32.721,42.116 32.654,42.208 32.588,42.309 C32.521,42.409 32.505,42.527 32.538,42.661 L32.488,48.906 C32.488,49.074 32.446,49.225 32.364,49.359 C32.28,49.494 32.189,49.603 32.089,49.686 C31.989,49.77 31.864,49.846 31.714,49.913 C31.564,49.981 31.422,50.013 31.289,50.013 L30.84,50.013 C30.706,50.013 30.565,49.981 30.415,49.913 C30.265,49.846 30.14,49.77 30.041,49.686 C29.941,49.603 29.848,49.494 29.766,49.359 C29.682,49.225 29.641,49.074 29.641,48.906 L29.591,42.661 C29.624,42.527 29.607,42.409 29.541,42.309 C29.474,42.208 29.408,42.116 29.341,42.032 C29.274,41.948 29.183,41.881 29.067,41.83 C28.949,41.78 28.842,41.755 28.742,41.755 L28.642,41.755 C28.508,41.722 28.367,41.672 28.217,41.604 C28.067,41.537 27.95,41.445 27.868,41.327 C27.784,41.21 27.709,41.083 27.643,40.949 C27.576,40.815 27.559,40.664 27.593,40.496 L27.543,40.093 C27.576,39.925 27.609,39.774 27.643,39.64 C27.675,39.506 27.75,39.38 27.868,39.262 C27.984,39.145 28.1,39.053 28.217,38.985 C28.333,38.918 28.492,38.868 28.692,38.834 C28.858,38.834 28.983,38.809 29.067,38.759 C29.149,38.708 29.241,38.641 29.341,38.557 C29.441,38.474 29.507,38.381 29.541,38.28 C29.574,38.18 29.607,38.062 29.641,37.927 L29.591,21.108 C29.657,20.941 29.716,20.789 29.766,20.655 C29.816,20.521 29.907,20.412 30.041,20.327 C30.173,20.244 30.298,20.168 30.415,20.101 C30.531,20.034 30.69,20 30.89,20 L31.239,20 C31.439,20 31.597,20.034 31.714,20.101 C31.83,20.168 31.955,20.244 32.089,20.327 C32.221,20.412 32.314,20.521 32.364,20.655 C32.413,20.789 32.471,20.941 32.538,21.108 L32.488,37.927 C32.521,38.062 32.555,38.18 32.588,38.28 C32.621,38.381 32.688,38.474 32.788,38.557 C32.888,38.641 32.979,38.708 33.063,38.759 C33.146,38.809 33.271,38.834 33.437,38.834 L33.487,38.834 L33.487,38.834 Z M25.944,28.259 C26.077,28.293 26.219,28.343 26.369,28.41 C26.518,28.478 26.635,28.569 26.719,28.687 C26.801,28.805 26.876,28.931 26.944,29.065 C27.01,29.199 27.026,29.35 26.993,29.518 L27.043,29.92 C27.01,30.089 26.976,30.24 26.944,30.374 C26.91,30.508 26.835,30.634 26.719,30.752 C26.601,30.87 26.485,30.962 26.369,31.029 C26.252,31.096 26.094,31.146 25.894,31.18 C25.727,31.18 25.602,31.205 25.52,31.255 C25.436,31.305 25.345,31.373 25.245,31.457 C25.145,31.54 25.078,31.633 25.045,31.733 C25.012,31.834 24.978,31.952 24.945,32.086 L24.995,48.906 C24.928,49.074 24.87,49.225 24.82,49.359 C24.77,49.494 24.678,49.603 24.545,49.686 C24.412,49.77 24.279,49.846 24.146,49.913 C24.012,49.981 23.862,50.013 23.696,50.013 L23.346,50.013 C23.147,50.013 22.988,49.981 22.872,49.913 C22.755,49.846 22.63,49.77 22.497,49.686 C22.364,49.603 22.272,49.494 22.223,49.359 C22.173,49.225 22.114,49.074 22.048,48.906 L22.098,32.086 C22.064,31.952 22.03,31.834 21.998,31.733 C21.964,31.633 21.898,31.54 21.798,31.457 C21.698,31.373 21.598,31.305 21.498,31.255 C21.398,31.205 21.281,31.18 21.149,31.18 L21.099,31.18 C20.931,31.146 20.79,31.096 20.674,31.029 C20.557,30.962 20.44,30.87 20.324,30.752 C20.207,30.634 20.132,30.508 20.1,30.374 C20.066,30.24 20.032,30.089 20,29.92 L20.05,29.518 C20.016,29.35 20.032,29.199 20.1,29.065 C20.166,28.931 20.241,28.805 20.324,28.687 C20.407,28.569 20.524,28.478 20.674,28.41 C20.824,28.343 20.949,28.293 21.049,28.259 L21.199,28.259 C21.265,28.259 21.365,28.234 21.498,28.183 C21.631,28.133 21.731,28.066 21.798,27.982 C21.864,27.899 21.93,27.805 21.998,27.705 C22.064,27.604 22.08,27.487 22.048,27.352 L22.098,21.108 C22.098,20.941 22.139,20.789 22.223,20.655 C22.305,20.521 22.397,20.412 22.497,20.327 C22.597,20.244 22.722,20.168 22.872,20.101 C23.022,20.034 23.163,20 23.296,20 L23.746,20 C23.846,20 23.979,20.034 24.146,20.101 C24.312,20.168 24.445,20.244 24.545,20.327 C24.645,20.412 24.736,20.521 24.82,20.655 C24.903,20.789 24.945,20.941 24.945,21.108 L24.995,27.352 C24.961,27.487 24.978,27.604 25.045,27.705 C25.111,27.805 25.178,27.899 25.245,27.982 C25.311,28.066 25.403,28.133 25.52,28.183 C25.636,28.234 25.744,28.259 25.844,28.259 L25.944,28.259 L25.944,28.259 Z" id="Fill-3" fill="#FFFFFF"></path>
                        </g>
                        <g id="message" transform="translate(0.000000, 440.000000)">
                            <circle id="bg-3" fill="#ED7161" cx="35" cy="35" r="35"></circle>
                            <path d="M46,44 L24,44 C21.791,44 20,42.209 20,40 L20,24 C20,21.791 21.791,20 24,20 L46,20 C48.209,20 50,21.791 50,24 L50,40 C50,42.209 48.209,44 46,44 L46,44 Z M28.5,37 L34.5,37 C35.328,37 36,36.329 36,35.5 C36,34.672 35.328,34 34.5,34 L28.5,34 C27.672,34 27,34.672 27,35.5 C27,36.329 27.672,37 28.5,37 L28.5,37 Z M41.5,28 L28.5,28 C27.672,28 27,28.672 27,29.5 C27,30.329 27.672,31 28.5,31 L41.5,31 C42.328,31 43,30.329 43,29.5 C43,28.672 42.328,28 41.5,28 L41.5,28 Z M28.561,49.553 C27.616,50.515 26,49.833 26,48.473 L26,44.017 L34,44.017 L28.561,49.553 L28.561,49.553 Z" id="Fill-4" fill="#FFFFFF"></path>
                        </g>
                        <g id="friend" transform="translate(370.000000, 70.000000)">
                            <circle id="bg" fill="#98A5AE" cx="35" cy="35" r="35"></circle>
                            <path d="M47.774,27.953 C48.047,27.953 48.301,28.002 48.536,28.099 C48.77,28.197 48.984,28.334 49.18,28.509 C49.375,28.685 49.521,28.9 49.62,29.154 C49.716,29.409 49.766,29.672 49.766,29.945 L49.004,38.265 L49.004,38.382 C48.965,38.539 48.906,38.686 48.828,38.822 C48.75,38.96 48.662,39.077 48.565,39.173 C48.467,39.272 48.34,39.349 48.184,39.408 C48.027,39.467 47.871,39.496 47.715,39.496 L47.247,39.496 C47.129,39.496 47.021,39.516 46.924,39.554 C46.827,39.594 46.748,39.652 46.69,39.73 C46.631,39.809 46.573,39.887 46.514,39.965 C46.456,40.043 46.426,40.14 46.426,40.257 L46.426,40.316 L45.723,48.988 L45.723,49.222 C45.684,49.379 45.625,49.525 45.547,49.662 C45.469,49.799 45.372,49.916 45.254,50.013 C45.137,50.111 45.01,50.18 44.873,50.218 C44.736,50.258 44.59,50.277 44.434,50.277 L41.446,50.277 C41.328,50.277 41.201,50.258 41.065,50.218 C40.927,50.18 40.821,50.111 40.743,50.013 C40.664,49.916 40.596,49.808 40.538,49.691 C40.479,49.574 40.45,49.457 40.45,49.34 L40.45,49.222 L40.918,43.89 L40.918,43.773 C40.918,43.695 40.938,43.608 40.977,43.51 C41.016,43.413 41.065,43.334 41.123,43.275 C41.182,43.216 41.25,43.158 41.328,43.099 C41.406,43.041 41.484,43.012 41.563,43.012 L41.563,42.953 L41.622,42.953 C41.739,42.914 41.846,42.875 41.944,42.836 C42.041,42.797 42.139,42.748 42.237,42.689 C42.334,42.631 42.432,42.572 42.53,42.513 C42.627,42.455 42.715,42.387 42.793,42.308 C42.949,42.153 43.096,41.996 43.233,41.84 C43.369,41.684 43.486,41.527 43.584,41.371 C43.682,41.215 43.76,41.04 43.819,40.843 C43.878,40.649 43.926,40.454 43.965,40.257 L43.965,39.906 L44.844,30.414 L44.844,30.355 L44.844,30.238 L44.844,30.004 C44.844,29.926 44.834,29.848 44.815,29.769 C44.795,29.691 44.776,29.604 44.756,29.506 C44.736,29.409 44.727,29.321 44.727,29.242 L44.727,29.154 C44.727,29.135 44.717,29.125 44.698,29.125 C44.677,29.125 44.668,29.105 44.668,29.066 L44.668,28.949 C44.668,28.793 44.698,28.656 44.756,28.539 C44.815,28.422 44.883,28.314 44.961,28.217 C45.039,28.119 45.137,28.051 45.254,28.012 C45.372,27.973 45.508,27.953 45.664,27.953 L47.774,27.953 L47.774,27.953 Z M41.446,26.078 C41.328,26.039 41.231,25.99 41.153,25.931 C41.074,25.873 41.006,25.795 40.948,25.697 C40.889,25.6 40.84,25.502 40.801,25.404 C40.762,25.307 40.743,25.219 40.743,25.14 L40.743,24.965 C40.743,24.926 40.752,24.887 40.772,24.847 C40.791,24.809 40.801,24.78 40.801,24.759 C40.801,24.74 40.821,24.711 40.86,24.672 L40.86,24.613 L40.918,24.554 C41.074,24.282 41.212,24.008 41.328,23.734 C41.446,23.461 41.543,23.178 41.622,22.884 C41.699,22.592 41.758,22.289 41.797,21.976 C41.836,21.664 41.856,21.352 41.856,21.039 C41.856,20.844 41.846,20.649 41.827,20.453 C41.807,20.258 41.787,20.072 41.768,19.896 C41.748,19.72 41.709,19.536 41.651,19.34 C41.592,19.145 41.543,18.969 41.504,18.812 C41.504,18.774 41.494,18.754 41.475,18.754 C41.455,18.754 41.446,18.735 41.446,18.695 L41.446,18.607 L41.446,18.549 L41.446,18.49 L41.446,18.402 C41.446,18.285 41.465,18.178 41.504,18.08 C41.543,17.983 41.602,17.885 41.68,17.787 C41.758,17.69 41.846,17.611 41.944,17.553 C42.041,17.494 42.149,17.465 42.266,17.465 L42.383,17.465 C42.461,17.426 42.52,17.406 42.559,17.406 L42.647,17.406 L42.735,17.406 C43.359,17.406 43.936,17.523 44.463,17.758 C44.991,17.992 45.449,18.314 45.84,18.725 C46.23,19.134 46.543,19.603 46.778,20.131 C47.012,20.658 47.129,21.235 47.129,21.859 C47.129,22.445 47.012,23.012 46.778,23.558 C46.543,24.106 46.23,24.575 45.84,24.965 C45.449,25.356 44.991,25.668 44.463,25.902 C43.936,26.136 43.359,26.254 42.735,26.254 L42.471,26.254 C42.373,26.254 42.275,26.244 42.178,26.224 C42.08,26.205 41.982,26.186 41.885,26.166 C41.787,26.147 41.699,26.136 41.622,26.136 C41.622,26.098 41.611,26.078 41.592,26.078 L41.534,26.078 L41.446,26.078 L41.446,26.078 Z M40.567,41.195 L39.981,41.195 C39.902,41.195 39.824,41.205 39.747,41.225 C39.668,41.245 39.59,41.283 39.512,41.342 C39.433,41.4 39.366,41.458 39.307,41.517 C39.248,41.576 39.199,41.645 39.161,41.722 C39.161,41.762 39.151,41.791 39.131,41.81 C39.111,41.83 39.102,41.85 39.102,41.869 L39.102,42.015 L39.102,42.133 L38.282,51.976 L38.282,52.269 C38.242,52.465 38.174,52.631 38.077,52.767 C37.979,52.905 37.872,53.031 37.754,53.148 C37.637,53.265 37.5,53.353 37.344,53.412 C37.188,53.47 37.012,53.5 36.817,53.5 L32.95,53.5 C32.754,53.5 32.578,53.47 32.422,53.412 C32.266,53.353 32.119,53.265 31.983,53.148 C31.846,53.031 31.738,52.895 31.661,52.738 C31.582,52.582 31.523,52.426 31.485,52.269 L31.485,52.035 L30.664,42.133 L30.664,42.015 L30.664,41.927 C30.664,41.908 30.654,41.889 30.635,41.869 C30.615,41.85 30.606,41.83 30.606,41.81 L30.606,41.722 C30.567,41.645 30.518,41.576 30.459,41.517 C30.401,41.458 30.332,41.4 30.254,41.342 C30.176,41.283 30.098,41.245 30.02,41.225 C29.941,41.205 29.844,41.195 29.727,41.195 L29.2,41.195 C29.004,41.195 28.828,41.166 28.672,41.107 C28.516,41.049 28.369,40.961 28.233,40.843 C28.096,40.726 27.988,40.6 27.911,40.463 C27.832,40.326 27.773,40.16 27.735,39.965 L27.735,39.672 L26.856,30.238 C26.856,29.926 26.914,29.633 27.032,29.359 C27.149,29.086 27.314,28.852 27.53,28.656 C27.744,28.461 27.988,28.304 28.262,28.187 C28.535,28.07 28.828,28.012 29.141,28.012 L40.625,28.012 C40.938,28.012 41.231,28.07 41.504,28.187 C41.777,28.304 42.011,28.461 42.207,28.656 C42.402,28.852 42.559,29.086 42.676,29.359 C42.793,29.633 42.852,29.926 42.852,30.238 L42.032,39.789 L42.032,39.906 C41.992,40.102 41.934,40.278 41.856,40.434 C41.777,40.59 41.67,40.717 41.534,40.814 C41.397,40.912 41.241,41 41.065,41.078 C40.889,41.157 40.723,41.195 40.567,41.195 L40.567,41.195 Z M34.883,26.078 C34.453,26.078 34.043,26.029 33.653,25.931 C33.262,25.834 32.9,25.697 32.569,25.521 C32.237,25.345 31.924,25.131 31.631,24.877 C31.338,24.623 31.075,24.34 30.84,24.027 C30.684,23.832 30.547,23.617 30.43,23.383 C30.313,23.148 30.205,22.905 30.108,22.65 C30.01,22.397 29.941,22.133 29.903,21.859 C29.863,21.586 29.844,21.312 29.844,21.039 C29.844,20.844 29.853,20.658 29.873,20.482 C29.893,20.306 29.922,20.131 29.961,19.955 C30,19.779 30.049,19.603 30.108,19.427 C30.167,19.252 30.234,19.086 30.313,18.929 C30.508,18.5 30.762,18.109 31.075,17.758 C31.387,17.406 31.738,17.104 32.129,16.849 C32.519,16.596 32.95,16.391 33.418,16.234 C33.887,16.079 34.375,16 34.883,16 C35.391,16 35.869,16.079 36.319,16.234 C36.768,16.391 37.188,16.596 37.578,16.849 C37.969,17.104 38.32,17.406 38.633,17.758 C38.946,18.109 39.219,18.5 39.453,18.929 C39.492,19.086 39.542,19.252 39.6,19.427 C39.659,19.603 39.717,19.779 39.776,19.955 C39.834,20.131 39.873,20.306 39.893,20.482 C39.912,20.658 39.922,20.844 39.922,21.039 C39.922,21.312 39.893,21.586 39.834,21.859 C39.776,22.133 39.707,22.397 39.629,22.65 C39.551,22.905 39.453,23.148 39.336,23.383 C39.219,23.617 39.082,23.832 38.926,24.027 C38.692,24.34 38.428,24.623 38.135,24.877 C37.842,25.131 37.52,25.345 37.168,25.521 C36.817,25.697 36.445,25.834 36.055,25.931 C35.664,26.029 35.273,26.078 34.883,26.078 L34.883,26.078 Z M29.258,49.222 L29.258,49.34 C29.258,49.457 29.238,49.574 29.2,49.691 C29.16,49.808 29.092,49.916 28.995,50.013 C28.897,50.111 28.789,50.18 28.672,50.218 C28.555,50.258 28.418,50.277 28.262,50.277 L25.333,50.277 C25.137,50.277 24.971,50.258 24.834,50.218 C24.697,50.18 24.571,50.111 24.454,50.013 C24.336,49.916 24.238,49.799 24.161,49.662 C24.082,49.525 24.043,49.379 24.043,49.222 L23.985,49.046 L23.34,40.375 L23.34,40.257 C23.301,40.14 23.262,40.043 23.223,39.965 C23.184,39.887 23.125,39.809 23.047,39.73 C22.968,39.652 22.881,39.594 22.784,39.554 C22.686,39.516 22.598,39.496 22.52,39.496 L21.993,39.496 C21.836,39.496 21.689,39.467 21.553,39.408 C21.416,39.349 21.289,39.282 21.172,39.203 C21.055,39.125 20.957,39.018 20.879,38.881 C20.801,38.744 20.762,38.598 20.762,38.441 L20.704,38.207 L20,29.945 C20,29.672 20.049,29.409 20.147,29.154 C20.244,28.9 20.381,28.685 20.557,28.509 C20.733,28.334 20.947,28.197 21.202,28.099 C21.455,28.002 21.719,27.953 21.993,27.953 L24.102,27.953 C24.219,27.953 24.336,27.973 24.454,28.012 C24.571,28.051 24.678,28.119 24.776,28.217 C24.873,28.314 24.952,28.422 25.01,28.539 C25.069,28.656 25.098,28.793 25.098,28.949 L25.098,29.008 L25.039,29.066 L25.039,29.125 L25.039,29.242 C25,29.359 24.971,29.457 24.952,29.535 C24.932,29.614 24.922,29.691 24.922,29.769 C24.922,29.848 24.912,29.926 24.893,30.004 C24.873,30.082 24.864,30.16 24.864,30.238 L24.864,30.326 C24.864,30.346 24.873,30.355 24.893,30.355 C24.912,30.355 24.922,30.375 24.922,30.414 L25.743,39.848 L25.801,40.14 L25.801,40.199 L25.801,40.316 C25.879,40.629 25.986,40.931 26.123,41.225 C26.26,41.517 26.426,41.772 26.622,41.986 C26.817,42.201 27.041,42.396 27.295,42.572 C27.549,42.748 27.813,42.875 28.086,42.953 C28.125,42.953 28.145,42.963 28.145,42.982 C28.145,43.002 28.164,43.012 28.203,43.012 C28.281,43.051 28.359,43.09 28.438,43.129 C28.516,43.168 28.574,43.226 28.614,43.304 C28.652,43.383 28.692,43.461 28.731,43.539 C28.769,43.618 28.809,43.695 28.848,43.773 L28.848,43.89 L29.258,49.222 L29.258,49.222 Z M27.032,26.254 C26.406,26.254 25.83,26.136 25.303,25.902 C24.776,25.668 24.307,25.356 23.897,24.965 C23.487,24.575 23.164,24.106 22.93,23.558 C22.696,23.012 22.579,22.445 22.579,21.859 C22.579,21.235 22.696,20.658 22.93,20.131 C23.164,19.603 23.487,19.134 23.897,18.725 C24.307,18.314 24.776,17.992 25.303,17.758 C25.83,17.523 26.406,17.406 27.032,17.406 L27.208,17.406 C27.246,17.406 27.275,17.416 27.295,17.435 C27.314,17.455 27.344,17.465 27.383,17.465 L27.5,17.465 C27.618,17.465 27.725,17.494 27.823,17.553 C27.92,17.611 28.008,17.69 28.086,17.787 C28.164,17.885 28.223,17.983 28.262,18.08 C28.301,18.178 28.321,18.285 28.321,18.402 L28.321,18.49 L28.321,18.549 C28.321,18.569 28.311,18.588 28.291,18.607 C28.271,18.627 28.262,18.657 28.262,18.695 L28.262,18.812 C28.183,18.969 28.125,19.145 28.086,19.34 C28.047,19.536 28.008,19.72 27.969,19.896 C27.93,20.072 27.901,20.258 27.881,20.453 C27.861,20.649 27.852,20.844 27.852,21.039 C27.852,21.352 27.881,21.664 27.94,21.976 C27.998,22.289 28.066,22.592 28.145,22.884 C28.223,23.178 28.321,23.461 28.438,23.734 C28.555,24.008 28.692,24.282 28.848,24.554 L28.848,24.613 L28.907,24.672 C28.907,24.711 28.916,24.751 28.936,24.789 C28.955,24.828 28.965,24.857 28.965,24.877 C28.965,24.897 28.974,24.935 28.995,24.994 C29.014,25.052 29.024,25.102 29.024,25.14 C29.024,25.219 29.004,25.307 28.965,25.404 C28.926,25.502 28.878,25.6 28.819,25.697 C28.76,25.795 28.682,25.873 28.584,25.931 C28.487,25.99 28.398,26.039 28.321,26.078 L28.233,26.078 L28.174,26.078 C28.154,26.078 28.125,26.098 28.086,26.136 C27.969,26.136 27.871,26.147 27.793,26.166 C27.715,26.186 27.627,26.205 27.53,26.224 C27.432,26.244 27.344,26.254 27.266,26.254 L27.032,26.254 L27.032,26.254 Z" id="icon" fill="#FFFFFF"></path>
                        </g>
                        <g id="location" transform="translate(0.000000, 70.000000)">
                            <circle id="bg" fill="#9777A8" cx="35" cy="35" r="35"></circle>
                            <path d="M48.999,31.136 C48.999,23.882 42.731,18 34.998,18 C27.267,18 21,23.882 21,31.136 C21,32.1 21.11,33.038 21.319,33.942 L21.309,33.945 C23.011,41.126 27.458,47.333 33.568,51.55 C33.969,51.832 34.471,52.001 35.013,52.001 C35.447,52.001 35.855,51.891 36.208,51.703 C36.36,51.599 36.511,51.494 36.662,51.39 C42.6,47.213 46.941,41.136 48.65,34.104 L48.64,34.102 C48.876,33.148 48.999,32.155 48.999,31.136 L48.999,31.136 Z M34.998,25.117 C38.542,25.117 41.413,27.812 41.413,31.136 C41.413,34.459 38.542,37.153 34.998,37.153 C31.457,37.153 28.585,34.459 28.585,31.136 C28.585,27.812 31.457,25.117 34.998,25.117 L34.998,25.117 Z" id="icon" fill="#FFFFFF"></path>
                        </g>
                        <g id="notification" transform="translate(185.000000, 0.000000)">
                            <circle id="bg-5" fill="#EEAF4B" cx="35" cy="35" r="35"></circle>
                            <path d="M48.305,41.504 C48.422,41.621 48.51,41.738 48.569,41.856 C48.627,41.973 48.695,42.1 48.774,42.237 C48.851,42.374 48.891,42.52 48.891,42.676 C48.891,42.832 48.91,42.989 48.95,43.145 C48.91,43.418 48.851,43.682 48.774,43.936 C48.695,44.19 48.559,44.424 48.364,44.639 C48.168,44.854 47.963,45.029 47.748,45.166 C47.533,45.303 47.27,45.41 46.958,45.488 L47.016,45.488 C46.391,45.605 45.776,45.714 45.17,45.81 C44.564,45.909 43.94,45.996 43.295,46.074 C42.651,46.153 42.026,46.221 41.42,46.279 C40.814,46.338 40.161,46.387 39.458,46.426 C39.144,46.465 38.793,46.494 38.403,46.514 C38.012,46.534 37.631,46.553 37.26,46.572 C36.888,46.592 36.507,46.602 36.118,46.602 L35.004,46.602 L34.975,46.602 L34.975,46.602 C34.955,46.602 34.955,46.602 34.975,46.602 C34.994,46.602 34.984,46.602 34.946,46.602 L33.833,46.602 C33.442,46.602 33.061,46.592 32.69,46.572 C32.318,46.553 31.937,46.534 31.547,46.514 C31.156,46.494 30.805,46.465 30.493,46.426 C29.828,46.387 29.194,46.338 28.588,46.279 C27.982,46.221 27.367,46.153 26.743,46.074 C26.117,45.996 25.521,45.909 24.955,45.81 C24.388,45.714 23.773,45.605 23.11,45.488 C23.148,45.488 23.139,45.488 23.08,45.488 C23.022,45.488 22.983,45.479 22.963,45.459 C22.943,45.44 22.895,45.43 22.817,45.43 C22.543,45.352 22.309,45.245 22.114,45.107 C21.918,44.971 21.723,44.795 21.528,44.58 C21.332,44.366 21.205,44.141 21.147,43.906 C21.088,43.672 21.039,43.399 21,43.086 C21.039,42.969 21.059,42.832 21.059,42.676 C21.059,42.52 21.098,42.374 21.176,42.237 C21.254,42.1 21.323,41.973 21.381,41.856 C21.44,41.738 21.528,41.621 21.645,41.504 C21.605,41.504 21.605,41.504 21.645,41.504 L21.674,41.504 C21.654,41.504 21.654,41.504 21.674,41.504 C21.694,41.504 21.683,41.504 21.645,41.504 L21.704,41.445 C21.742,41.407 21.762,41.377 21.762,41.357 C21.762,41.338 21.801,41.328 21.879,41.328 L21.85,41.328 L21.85,41.328 C21.83,41.328 21.83,41.328 21.85,41.328 C21.869,41.328 21.859,41.328 21.821,41.328 C21.859,41.328 21.879,41.319 21.879,41.299 C21.879,41.28 21.898,41.261 21.938,41.24 C21.976,41.221 21.986,41.202 21.967,41.182 C21.947,41.162 21.976,41.152 22.055,41.152 L22.026,41.152 C22.045,41.152 22.055,41.143 22.055,41.123 C22.055,41.104 22.064,41.094 22.085,41.094 C22.104,41.094 22.093,41.094 22.055,41.094 C22.328,40.899 22.562,40.704 22.758,40.508 C22.953,40.313 23.148,40.079 23.344,39.805 C23.539,39.532 23.696,39.219 23.813,38.867 C23.93,38.516 24.027,38.086 24.106,37.578 C24.262,35.196 24.487,33.154 24.779,31.455 C25.073,29.756 25.483,28.311 26.01,27.119 C26.538,25.928 27.279,24.942 28.237,24.16 C29.194,23.379 30.414,22.715 31.899,22.168 C32.211,22.09 32.435,22.002 32.573,21.904 C32.709,21.807 32.846,21.709 32.983,21.611 C33.119,21.514 33.217,21.406 33.276,21.289 C33.334,21.172 33.402,21.075 33.481,20.996 C33.442,20.957 33.442,20.929 33.481,20.908 C33.519,20.889 33.529,20.879 33.51,20.879 C33.49,20.879 33.5,20.87 33.539,20.85 C33.578,20.83 33.578,20.801 33.539,20.762 L33.598,20.762 C33.598,20.684 33.637,20.615 33.715,20.556 C33.793,20.498 33.862,20.439 33.92,20.381 C33.979,20.323 34.057,20.274 34.155,20.234 C34.252,20.196 34.32,20.156 34.36,20.117 C34.437,20.117 34.496,20.108 34.535,20.088 C34.574,20.069 34.624,20.049 34.682,20.029 C34.741,20.01 34.789,20 34.828,20 L35.004,20 C35.16,20 35.248,20.01 35.268,20.029 C35.287,20.049 35.375,20.079 35.532,20.117 C35.649,20.156 35.737,20.196 35.795,20.234 C35.854,20.274 35.932,20.323 36.03,20.381 C36.127,20.439 36.195,20.498 36.235,20.556 C36.273,20.615 36.332,20.684 36.41,20.762 L36.381,20.762 L36.381,20.762 C36.361,20.762 36.361,20.762 36.381,20.762 C36.4,20.762 36.39,20.762 36.352,20.762 C36.39,20.801 36.41,20.83 36.41,20.85 C36.41,20.87 36.42,20.879 36.44,20.879 C36.459,20.879 36.459,20.889 36.44,20.908 C36.42,20.929 36.449,20.957 36.528,20.996 C36.528,21.075 36.576,21.172 36.674,21.289 C36.771,21.406 36.869,21.514 36.967,21.611 C37.064,21.709 37.202,21.807 37.377,21.904 C37.553,22.002 37.758,22.09 37.993,22.168 C39.554,22.715 40.795,23.379 41.713,24.16 C42.631,24.942 43.373,25.928 43.94,27.119 C44.506,28.311 44.916,29.756 45.17,31.455 C45.424,33.154 45.668,35.196 45.903,37.578 C45.903,38.086 45.981,38.516 46.137,38.867 C46.293,39.219 46.449,39.532 46.606,39.805 C46.762,40.079 46.958,40.313 47.192,40.508 C47.426,40.704 47.64,40.899 47.836,41.094 L47.866,41.094 C47.846,41.094 47.856,41.104 47.895,41.123 C47.933,41.143 47.943,41.152 47.924,41.152 C47.904,41.152 47.914,41.152 47.953,41.152 C47.992,41.192 48.012,41.221 48.012,41.24 C48.012,41.261 48.031,41.27 48.071,41.27 C48.109,41.27 48.109,41.29 48.071,41.328 L48.1,41.328 C48.08,41.328 48.08,41.328 48.1,41.328 L48.1,41.328 C48.08,41.328 48.09,41.328 48.129,41.328 C48.207,41.367 48.247,41.397 48.247,41.416 C48.247,41.436 48.266,41.465 48.305,41.504 L48.305,41.504 Z M38.403,47.949 C38.481,47.949 38.549,47.969 38.608,48.008 C38.666,48.047 38.725,48.087 38.783,48.125 C38.842,48.164 38.872,48.213 38.872,48.272 C38.872,48.33 38.891,48.399 38.93,48.476 C38.891,48.516 38.881,48.545 38.901,48.564 C38.92,48.585 38.92,48.604 38.901,48.623 C38.881,48.643 38.872,48.663 38.872,48.681 C38.872,48.702 38.851,48.711 38.813,48.711 C38.851,48.711 38.861,48.721 38.842,48.74 C38.822,48.76 38.822,48.77 38.842,48.77 C38.861,48.77 38.851,48.78 38.813,48.799 C38.773,48.819 38.773,48.828 38.813,48.828 C38.656,49.063 38.491,49.278 38.315,49.473 C38.139,49.668 37.934,49.845 37.699,50 C37.465,50.157 37.231,50.303 36.997,50.439 C36.762,50.577 36.488,50.684 36.176,50.762 C36.137,50.762 36.049,50.782 35.913,50.82 C35.775,50.86 35.668,50.879 35.59,50.879 C35.512,50.879 35.414,50.889 35.297,50.908 C35.18,50.928 35.082,50.938 35.004,50.938 C34.848,50.938 34.731,50.928 34.653,50.908 C34.574,50.889 34.477,50.879 34.36,50.879 C34.243,50.879 34.134,50.86 34.038,50.82 C33.939,50.782 33.833,50.762 33.715,50.762 C33.481,50.684 33.226,50.586 32.953,50.469 C32.68,50.352 32.445,50.205 32.25,50.029 C32.054,49.853 31.859,49.668 31.664,49.473 C31.468,49.278 31.313,49.063 31.196,48.828 L31.166,48.828 L31.166,48.828 C31.146,48.828 31.146,48.828 31.166,48.828 C31.186,48.828 31.176,48.828 31.137,48.828 C31.176,48.828 31.176,48.819 31.137,48.799 C31.098,48.78 31.088,48.77 31.108,48.77 C31.127,48.77 31.127,48.76 31.108,48.74 C31.088,48.721 31.098,48.711 31.137,48.711 C31.098,48.711 31.078,48.702 31.078,48.681 C31.078,48.663 31.069,48.643 31.049,48.623 C31.029,48.604 31.029,48.585 31.049,48.564 C31.069,48.545 31.058,48.516 31.02,48.476 C31.058,48.399 31.078,48.33 31.078,48.272 C31.078,48.213 31.117,48.164 31.196,48.125 C31.273,48.087 31.332,48.047 31.371,48.008 C31.41,47.969 31.488,47.949 31.606,47.949 C31.567,47.949 31.567,47.949 31.606,47.949 L31.606,47.949 L31.635,47.949 C31.615,47.949 31.615,47.949 31.635,47.949 L31.635,47.949 C31.615,47.949 31.625,47.949 31.664,47.949 C31.899,47.989 32.163,48.008 32.455,48.008 C32.749,48.008 33.031,48.018 33.305,48.037 C33.578,48.057 33.862,48.066 34.155,48.066 L34.946,48.066 L34.975,48.066 C34.955,48.066 34.955,48.066 34.975,48.066 L34.975,48.066 C34.955,48.066 34.965,48.066 35.004,48.066 L35.824,48.066 C36.137,48.066 36.42,48.057 36.674,48.037 C36.928,48.018 37.202,48.008 37.494,48.008 C37.788,48.008 38.051,47.989 38.286,47.949 L38.315,47.949 C38.295,47.949 38.305,47.949 38.344,47.949 L38.374,47.949 C38.353,47.949 38.382,47.949 38.461,47.949 L38.403,47.949 L38.403,47.949 Z" id="Fill-1" fill="#FFFFFF"></path>
                        </g>
                    </g>
                </g>
            </g>
        </g>
    </g>
</svg>