<?xml version="1.0" encoding="UTF-8" standalone="no"?>
<svg width="444px" height="585px" viewBox="0 0 444 585" version="1.1" xmlns="http://www.w3.org/2000/svg" xmlns:xlink="http://www.w3.org/1999/xlink" xmlns:sketch="http://www.bohemiancoding.com/sketch/ns">
    <!-- Generator: Sketch 3.3 (11970) - http://www.bohemiancoding.com/sketch -->
    <title>文字圈</title>
    <desc>Created with Sketch.</desc>
    <defs></defs>
    <g id="Page-1" stroke="none" stroke-width="1" fill="none" fill-rule="evenodd" sketch:type="MSPage">
        <g id="员工--暂无动态" sketch:type="MSArtboardGroup" transform="translate(-99.000000, -251.000000)">
            <g id="Radial-Menu" sketch:type="MSLayerGroup" transform="translate(30.000000, 130.000000)">
                <g id="文字圈" transform="translate(71.000000, 123.000000)" sketch:type="MSShapeGroup">
                    <path d="M220,510.5 C239.286168,510.5 254.920635,526.17 254.920635,545.5 C254.920635,564.83 239.286168,580.5 220,580.5 C200.713832,580.5 185.079365,564.83 185.079365,545.5 C185.079365,526.17 200.713832,510.5 220,510.5" id="Fill-1" stroke="#88C057" stroke-width="4"></path>
                    <path d="M404.580499,440.5 C423.866667,440.5 439.501134,456.17 439.501134,475.5 C439.501134,494.83 423.866667,510.5 404.580499,510.5 C385.294331,510.5 369.659864,494.83 369.659864,475.5 C369.659864,456.17 385.294331,440.5 404.580499,440.5" id="Fill-2" stroke="#546979" stroke-width="4" opacity="0.8"></path>
                    <path d="M35.4195011,440.5 C54.7056689,440.5 70.3401361,456.17 70.3401361,475.5 C70.3401361,494.83 54.7056689,510.5 35.4195011,510.5 C16.1333333,510.5 0.498866213,494.83 0.498866213,475.5 C0.498866213,456.17 16.1333333,440.5 35.4195011,440.5" id="Fill-3" stroke="#ED7161" stroke-width="4" opacity="0.8"></path>
                    <path d="M404.580499,70.5 C423.866667,70.5 439.501134,86.17 439.501134,105.5 C439.501134,124.83 423.866667,140.5 404.580499,140.5 C385.294331,140.5 369.659864,124.83 369.659864,105.5 C369.659864,86.17 385.294331,70.5 404.580499,70.5" id="Fill-4" stroke="#98A5AE" stroke-width="4"></path>
                    <path d="M35.4195011,70.5 C54.7056689,70.5 70.3401361,86.17 70.3401361,105.5 C70.3401361,124.83 54.7056689,140.5 35.4195011,140.5 C16.1333333,140.5 0.498866213,124.83 0.498866213,105.5 C0.498866213,86.17 16.1333333,70.5 35.4195011,70.5" id="Fill-5" stroke="#9777A8" stroke-width="4"></path>
                    <path d="M220,0.5 C239.286168,0.5 254.920635,16.17 254.920635,35.5 C254.920635,54.83 239.286168,70.5 220,70.5 C200.713832,70.5 185.079365,54.83 185.079365,35.5 C185.079365,16.17 200.713832,0.5 220,0.5" id="Fill-6" stroke="#EEAF4B" stroke-width="4"></path>
                    <path d="M48.534101,91.668 C48.8972756,91.668 49.2045772,91.976 49.2045772,92.339 C49.2045772,92.732 48.8972756,93.04 48.534101,93.04 L27.1067994,93.04 C26.6598153,93.04 26.3245772,93.403 26.3245772,93.852 L26.3245772,111.772 C26.3245772,113.507 26.3245772,114.823 25.0674343,116.755 L23.8661645,118.604 C23.5029899,119.163 22.7487041,119.332 22.189974,118.967 C21.6312438,118.604 21.4636248,117.819 21.8267994,117.259 L23.0839422,115.215 C23.6147359,114.376 23.949974,113.732 23.949974,111.743 L23.949974,94.16 C23.949974,92.788 25.0115613,91.668 26.3525137,91.668 L48.534101,91.668 L48.534101,91.668 Z M31.4648946,108.719 C31.8280692,108.243 32.5544184,108.159 33.0293391,108.551 C33.3366407,108.803 33.4763232,109.223 33.3925137,109.615 L46.4667994,109.615 C46.9696565,109.615 47.4166407,109.923 47.5563232,110.427 C47.7239422,110.931 47.5004502,111.631 47.0814026,111.856 L40.2369581,115.104 L45.9080692,117.371 C46.6623549,117.679 47.1652121,117.904 48.0312438,117.904 L48.0871168,117.904 C48.4502914,117.904 48.757593,118.212 48.757593,118.604 L48.757593,118.631 C48.757593,118.995 48.4502914,119.303 48.0871168,119.303 L46.7461645,119.303 C44.9861645,119.303 43.5893391,118.604 42.7791803,118.296 L37.6947359,116.307 L33.1690216,118.463 C32.2471168,118.856 31.5487041,119.332 30.6267994,119.332 L27.637593,119.332 C27.2464819,119.332 26.9391803,119.024 26.9391803,118.631 L26.9391803,118.604 C26.9391803,118.212 27.2464819,117.876 27.637593,117.876 L29.0344184,117.876 C29.4814026,117.876 29.8166407,117.792 30.3753708,117.54 L35.0966407,115.272 L30.6267994,113.564 L30.4312438,113.816 C29.9004502,114.544 29.5652121,114.739 28.8947359,114.739 L27.3302914,114.739 C26.9950534,114.739 26.6877518,114.46 26.6877518,114.095 L26.6877518,114.067 C26.6877518,113.787 26.9950534,113.48 27.3302914,113.48 L27.358228,113.48 C27.7214026,113.48 27.9448946,113.423 28.1963232,113.06 L31.4648946,108.719 L31.4648946,108.719 Z M35.0966407,97.912 L35.9626724,95.896 L28.0007676,95.896 C27.6655295,95.896 27.358228,95.56 27.358228,95.196 C27.358228,94.803 27.6655295,94.496 28.0007676,94.496 L47.7239422,94.496 C48.1150534,94.496 48.4223549,94.803 48.4223549,95.196 C48.4223549,95.56 48.1150534,95.896 47.7239422,95.896 L38.5048946,95.896 L37.6667994,97.912 L45.4331486,97.912 C46.718228,97.912 47.8356883,99.031 47.8356883,100.376 L47.8356883,105.303 C47.8356883,106.675 46.7461645,107.823 45.4331486,107.823 L30.0121962,107.823 C28.6712438,107.823 27.6096565,106.648 27.6096565,105.303 L27.6096565,100.376 C27.6096565,99.06 28.6991803,97.912 30.0121962,97.912 L35.0966407,97.912 L35.0966407,97.912 Z M30.7664819,99.283 C30.3194978,99.283 29.9283867,99.648 29.9283867,100.124 L29.9283867,100.739 L45.4610851,100.739 L45.4610851,100.124 C45.4610851,99.675 45.125847,99.283 44.6509264,99.283 L30.7664819,99.283 L30.7664819,99.283 Z M29.9283867,103.624 L45.4610851,103.624 L45.4610851,102.084 L29.9283867,102.084 L29.9283867,103.624 Z M45.4610851,105.611 L45.4610851,104.996 L29.9283867,104.996 L29.9283867,105.611 C29.9283867,106.06 30.3474343,106.451 30.7664819,106.451 L44.6509264,106.451 C45.0979105,106.451 45.4610851,106.031 45.4610851,105.611 L45.4610851,105.611 Z M32.4706089,111.044 L31.9398153,111.8 L37.6388629,114.067 L43.5893391,111.239 C43.7848946,111.155 43.8128311,111.044 43.5614026,111.044 L32.4706089,111.044 L32.4706089,111.044 Z" id="Fill-7" fill="#FFFFFF"></path>
                    <path d="M212.806848,22.314671 C213.225896,21.781671 213.980181,21.670671 214.510975,22.090671 C215.013832,22.482671 215.097642,23.238671 214.706531,23.770671 L210.292562,29.622671 C209.705896,30.405671 209.342721,30.602671 208.616372,30.602671 L206.912245,30.602671 C206.54907,30.602671 206.241769,30.294671 206.241769,29.929671 L206.241769,29.902671 C206.241769,29.538671 206.54907,29.230671 206.912245,29.230671 L206.996054,29.230671 C207.359229,29.230671 207.582721,29.173671 207.890023,28.781671 L212.806848,22.314671 L212.806848,22.314671 Z M213.281769,29.818671 C213.700816,29.285671 214.455102,29.173671 214.985896,29.594671 C215.488753,29.985671 215.572562,30.741671 215.181451,31.274671 L212.946531,34.214671 L212.946531,47.906671 C212.946531,48.577671 212.415737,49.165671 211.773197,49.165671 C211.102721,49.165671 210.571927,48.577671 210.571927,47.906671 L210.571927,37.321671 L210.292562,37.686671 C209.705896,38.469671 209.342721,38.666671 208.616372,38.666671 L206.912245,38.666671 C206.54907,38.666671 206.241769,38.358671 206.241769,37.993671 L206.241769,37.966671 C206.241769,37.602671 206.54907,37.294671 206.912245,37.294671 L206.996054,37.294671 C207.359229,37.294671 207.582721,37.237671 207.890023,36.845671 L213.281769,29.818671 L213.281769,29.818671 Z M233.087755,32.617671 C233.451927,32.617671 233.758231,32.898671 233.758231,33.318671 C233.758231,33.710671 233.451927,34.018671 233.087755,34.018671 L228.590975,34.018671 L228.590975,46.590671 C228.590975,47.962671 227.52839,49.081671 226.160499,49.081671 L222.193515,49.081671 C221.83034,49.081671 221.550975,48.774671 221.550975,48.438671 L221.550975,48.409671 C221.550975,48.017671 221.83034,47.710671 222.193515,47.710671 L225.43415,47.710671 C225.881134,47.710671 226.216372,47.345671 226.216372,46.898671 L226.216372,34.018671 L217.639864,34.018671 C217.304626,34.018671 216.997324,33.710671 216.997324,33.318671 C216.997324,32.898671 217.304626,32.617671 217.639864,32.617671 L233.087755,32.617671 L233.087755,32.617671 Z M232.027166,23.798671 C232.39034,23.798671 232.697642,24.106671 232.697642,24.469671 C232.697642,24.861671 232.39034,25.142671 232.027166,25.142671 L219.455737,25.142671 C219.064626,25.142671 218.757324,24.861671 218.757324,24.469671 C218.757324,24.106671 219.064626,23.798671 219.455737,23.798671 L232.027166,23.798671 L232.027166,23.798671 Z" id="Fill-8" fill="#FFFFFF"></path>
                    <path d="M393.277793,118.537061 C392.802873,119.909061 390.513077,119.349061 391.042873,117.754061 L393.304732,111.285061 C393.613031,110.362061 394.394256,109.661061 395.345095,109.661061 L397.133031,109.661061 C397.524142,109.661061 397.859381,109.997061 397.859381,110.389061 C397.859381,110.809061 397.524142,111.145061 397.133031,111.145061 L396.853666,111.145061 C396.155254,111.145061 395.736206,111.677061 395.484777,112.349061 L393.277793,118.537061 L393.277793,118.537061 Z M395.400968,95.4100607 C395.736206,96.0530607 396.071444,96.6140607 396.769857,96.6140607 L397.049222,96.6140607 C397.440333,96.6140607 397.775571,96.9490607 397.775571,97.3690607 C397.775571,97.7610607 397.440333,98.0970607 397.049222,98.0970607 L395.233349,98.0970607 C394.283507,98.0970607 393.613031,97.3420607 393.193984,96.4730607 L391.880968,93.7300607 C391.153621,92.2180607 393.333666,91.4620607 394.00514,92.7500607 L395.400968,95.4100607 L395.400968,95.4100607 Z M395.400968,103.249061 C395.736206,103.893061 396.071444,104.453061 396.769857,104.453061 L397.049222,104.453061 C397.440333,104.453061 397.775571,104.789061 397.775571,105.210061 C397.775571,105.601061 397.440333,105.938061 397.049222,105.938061 L395.233349,105.938061 C394.283507,105.938061 393.613031,105.181061 393.193984,104.314061 L391.880968,101.570061 C391.153621,100.057061 393.333666,99.3020607 394.00514,100.590061 L395.400968,103.249061 L395.400968,103.249061 Z M406.519698,95.6900607 L406.519698,92.9180607 C406.519698,92.2740607 407.050492,91.6860607 407.720968,91.6860607 C408.36251,91.6860607 408.922238,92.2740607 408.922238,92.9180607 L408.922238,95.6900607 L415.794619,95.6900607 C417.107634,95.6900607 418.197158,96.8090607 418.197158,98.1540607 L418.197158,116.745061 C418.197158,118.090061 417.135571,119.238061 415.794619,119.238061 L402.804142,119.238061 C401.492124,119.238061 400.401603,118.090061 400.401603,116.745061 L400.401603,98.1540607 C400.401603,96.8380607 401.519063,95.6900607 402.804142,95.6900607 L406.519698,95.6900607 L406.519698,95.6900607 Z M403.613303,97.0330607 C403.139381,97.0330607 402.804142,97.4260607 402.804142,97.8450607 L402.804142,106.946061 L415.849494,106.946061 L415.849494,97.8450607 C415.849494,97.4530607 415.487317,97.0330607 415.040333,97.0330607 L403.613303,97.0330607 L403.613303,97.0330607 Z M415.849494,117.026061 L415.849494,108.318061 L402.804142,108.318061 L402.804142,117.026061 C402.804142,117.501061 403.139381,117.838061 403.613303,117.838061 L415.040333,117.838061 C415.487317,117.838061 415.849494,117.473061 415.849494,117.026061 L415.849494,117.026061 Z" id="Fill-9" fill="#FFFFFF"></path>
                    <path d="M35.4474376,464.2155 L27.5972789,469.0875 C25.5299773,470.3485 24.6639456,470.2915 22.9318821,470.2915 L22.2614059,470.2915 C21.8144218,470.2915 21.5071202,469.9565 21.5071202,469.5635 C21.5071202,469.1435 21.8144218,468.8075 22.2614059,468.8075 L22.2893424,468.8075 C23.0715646,468.8075 23.2671202,468.9485 24.7198186,468.0515 L34.860771,461.8915 C35.0563265,461.8355 35.2239456,461.7805 35.4474376,461.7805 C35.6150567,461.7805 35.8106122,461.8355 35.9782313,461.8915 L46.1471202,468.0515 C47.5718821,468.9485 47.7674376,468.8075 48.5496599,468.8075 L48.5775964,468.8075 C49.0245805,468.8075 49.3318821,469.1435 49.3318821,469.5635 C49.3318821,469.9565 49.0245805,470.2915 48.5775964,470.2915 L47.9071202,470.2915 C46.1750567,470.2915 45.3090249,470.3485 43.2417234,469.0875 L35.4474376,464.2155 L35.4474376,464.2155 Z M34.2182313,468.3035 C34.2182313,467.5765 34.7769615,467.0435 35.4195011,467.0435 C36.0899773,467.0435 36.6487075,467.5765 36.6487075,468.3035 L36.6487075,470.2645 L42.124263,470.2645 C43.4372789,470.2645 44.5268027,471.3835 44.5268027,472.7555 L44.5268027,478.0205 C44.5268027,479.4195 43.4372789,480.5125 42.124263,480.5125 L38.54839,480.5125 L41.3979138,483.7885 L45.1972789,481.3525 C46.4264853,480.5405 47.5718821,482.4715 46.3706122,483.2275 L42.8785488,485.4965 L44.6385488,487.5405 C44.8620408,487.7355 45.1972789,487.8195 45.5045805,487.8195 L47.180771,487.8195 C47.5439456,487.8195 47.8512472,488.1275 47.8512472,488.5205 C47.8512472,488.9405 47.5439456,489.2195 47.180771,489.2195 L43.9680726,489.2195 C43.3534694,489.2195 42.7947392,489.0245 42.4315646,488.5765 L35.5312472,480.5125 L29.2455329,480.5125 C28.9382313,480.5125 28.7147392,480.7645 28.7147392,481.0715 L28.7147392,487.0635 C28.7147392,487.5115 29.0779138,487.8755 29.524898,487.8755 L32.4861678,487.8755 C32.7934694,487.8755 33.100771,488.1555 33.100771,488.5205 L33.100771,488.5765 C33.100771,488.9405 32.7934694,489.2195 32.4861678,489.2195 L28.7426757,489.2195 C27.4575964,489.2195 26.3401361,488.1005 26.3401361,486.7275 L26.3401361,472.7555 C26.3401361,471.3835 27.4575964,470.2645 28.7426757,470.2645 L34.2182313,470.2645 L34.2182313,468.3035 L34.2182313,468.3035 Z M42.1801361,472.4485 C42.1801361,471.9995 41.8169615,471.6355 41.3699773,471.6355 L29.524898,471.6355 C29.0779138,471.6355 28.7147392,471.9995 28.7147392,472.4485 L28.7147392,474.7725 L42.1801361,474.7725 L42.1801361,472.4485 L42.1801361,472.4485 Z M41.3699773,479.1675 C41.8169615,479.1675 42.1801361,478.8035 42.1801361,478.3285 L42.1801361,476.1435 L28.7147392,476.1435 L28.7147392,478.6085 C28.7147392,478.9155 28.9382313,479.1675 29.2455329,479.1675 L41.3699773,479.1675 L41.3699773,479.1675 Z" id="Fill-10" fill="#FFFFFF"></path>
                    <path d="M210.08254,556.812 C209.747302,558.409 209.020952,559.192 207.707937,559.192 L206.786032,559.192 C206.450794,559.192 206.171429,558.885 206.171429,558.52 L206.171429,558.493 C206.171429,558.157 206.450794,557.848 206.786032,557.848 L206.841905,557.848 C207.288889,557.848 207.568254,557.429 207.652063,557.009 L208.32254,553.116 C208.406349,552.724 208.546032,552.501 208.79746,552.276 C209.048889,552.053 209.328254,552.024 209.635556,552.024 L209.663492,552.024 C210.333968,552.024 210.780952,552.724 210.613333,553.536 L210.08254,556.812 L210.08254,556.812 Z M218.826667,537.073 L218.826667,535.196 L206.897778,535.196 C206.534603,535.196 206.227302,534.889 206.227302,534.497 C206.227302,534.133 206.534603,533.825 206.897778,533.825 L218.826667,533.825 L218.826667,532.985 C218.826667,532.284 219.35746,531.724 220.027937,531.724 C220.698413,531.724 221.257143,532.284 221.257143,532.985 L221.257143,533.825 L233.185034,533.825 C233.549206,533.825 233.828571,534.133 233.828571,534.497 C233.828571,534.889 233.549206,535.196 233.185034,535.196 L221.257143,535.196 L221.257143,537.073 L230.363447,537.073 C231.649524,537.073 232.739048,538.192 232.739048,539.564 L232.739048,544.436 C232.739048,545.808 231.67746,546.901 230.363447,546.901 L221.257143,546.901 L221.257143,549.505 L230.698685,549.505 C231.117732,549.505 231.481905,549.085 231.481905,548.665 L231.481905,548.02 C231.481905,547.376 232.012698,546.816 232.655238,546.816 C233.297778,546.816 233.828571,547.376 233.828571,548.02 L233.828571,548.329 C233.828571,549.7 232.739048,550.821 231.452971,550.821 L206.897778,550.821 C206.534603,550.821 206.227302,550.54 206.227302,550.177 C206.227302,549.757 206.534603,549.505 206.897778,549.505 L218.826667,549.505 L218.826667,546.901 L209.719365,546.901 C208.406349,546.901 207.344762,545.753 207.344762,544.436 L207.344762,539.564 C207.344762,538.221 208.434286,537.073 209.719365,537.073 L218.826667,537.073 L218.826667,537.073 Z M209.691429,541.329 L218.826667,541.329 L218.826667,538.417 L210.501587,538.417 C210.08254,538.417 209.691429,538.808 209.691429,539.228 L209.691429,541.329 L209.691429,541.329 Z M210.501587,545.585 L218.826667,545.585 L218.826667,542.728 L209.691429,542.728 L209.691429,544.745 C209.691429,545.221 210.08254,545.585 210.501587,545.585 L210.501587,545.585 Z M215.865397,557.093 C215.865397,557.513 216.228571,557.932 216.675556,557.932 L228.325079,557.932 C228.688254,557.932 228.995556,558.241 228.995556,558.604 C228.995556,558.969 228.688254,559.276 228.325079,559.276 L215.92127,559.276 C214.608254,559.276 213.490794,558.128 213.490794,556.784 L213.490794,553.593 C213.490794,552.892 214.049524,552.36 214.664127,552.36 L214.692063,552.36 C215.334603,552.36 215.865397,552.892 215.865397,553.593 L215.865397,557.093 L215.865397,557.093 Z M220.557732,553.788 C220.949841,555.385 221.620317,556.169 222.933333,556.169 L223.855238,556.169 C224.190476,556.169 224.469841,555.86 224.469841,555.497 L224.469841,555.469 C224.469841,555.133 224.190476,554.825 223.855238,554.825 L223.798367,554.825 C223.352381,554.825 223.100952,554.405 222.989206,553.984 L222.765714,553.032 C222.681905,552.64 222.542222,552.417 222.290794,552.192 C222.039365,551.969 221.76,551.94 221.452698,551.94 L221.424762,551.94 C220.754286,551.94 220.279365,552.64 220.474921,553.452 L220.557732,553.788 L220.557732,553.788 Z M221.257143,538.417 L221.257143,541.329 L230.392381,541.329 L230.392381,539.228 C230.392381,538.808 230.00127,538.417 229.582222,538.417 L221.257143,538.417 L221.257143,538.417 Z M230.392381,544.745 L230.392381,542.728 L221.257143,542.728 L221.257143,545.585 L229.582222,545.585 C230.00127,545.585 230.392381,545.221 230.392381,544.745 L230.392381,544.745 Z M229.91746,556.812 C230.252698,558.409 230.980045,559.192 232.292063,559.192 L233.213968,559.192 C233.549206,559.192 233.828571,558.885 233.828571,558.52 L233.828571,558.493 C233.828571,558.157 233.549206,557.848 233.213968,557.848 L233.158095,557.848 C232.711111,557.848 232.431746,557.429 232.347937,557.009 L231.649524,553.816 C231.566712,553.425 231.426032,553.2 231.174603,552.976 C230.923175,552.753 230.644807,552.724 230.336508,552.724 L230.308571,552.724 C229.638095,552.724 229.191111,553.425 229.35873,554.237 L229.91746,556.812 L229.91746,556.812 Z" id="Fill-11" fill="#FFFFFF"></path>
                    <path d="M395.29161,481.5345 L395.29161,471.2575 C395.29161,469.8575 396.353197,468.7655 397.637279,468.7655 L412.8078,468.7655 C413.170975,468.7655 413.45034,469.0745 413.45034,469.4105 L413.45034,469.4375 C413.45034,469.8025 413.170975,470.1095 412.8078,470.1095 L398.420499,470.1095 C398.002449,470.1095 397.61034,470.4455 397.61034,470.9215 L397.61034,474.1145 L416.383673,474.1145 C416.774785,474.1145 417.082086,474.4505 417.082086,474.7865 C417.082086,475.1775 416.774785,475.4865 416.383673,475.4865 L412.1922,475.4865 L412.1922,481.5345 L417.724626,481.5345 C418.059864,481.5345 418.367166,481.8145 418.367166,482.2345 C418.367166,482.6255 418.059864,482.9335 417.724626,482.9335 L391.436372,482.9335 C391.102132,482.9335 390.793832,482.6255 390.793832,482.2345 C390.793832,481.8145 391.102132,481.5345 391.436372,481.5345 L395.29161,481.5345 L395.29161,481.5345 Z M403.365261,464.4825 L403.365261,462.9415 C403.365261,462.2425 403.896054,461.6815 404.567528,461.6815 C405.238005,461.6815 405.795737,462.2425 405.795737,462.9415 L405.795737,464.4825 L415.824943,464.4825 C417.165896,464.4825 418.227483,465.5745 418.227483,466.9745 L418.227483,469.1015 C418.227483,469.7735 417.724626,470.3335 417.082086,470.3335 L417.05415,470.3335 C416.383673,470.3335 415.880816,469.7735 415.880816,469.1015 L415.880816,466.6655 C415.880816,466.1895 415.516644,465.8265 415.070658,465.8265 L394.091338,465.8265 C393.642358,465.8265 393.280181,466.1895 393.280181,466.6655 L393.280181,469.1015 C393.280181,469.7735 392.777324,470.3335 392.078912,470.3335 C391.436372,470.3335 390.934512,469.7735 390.934512,469.1015 L390.934512,466.9745 C390.934512,465.6015 391.995102,464.4825 393.336054,464.4825 L403.365261,464.4825 L403.365261,464.4825 Z M393.280181,487.4695 C392.777324,487.8335 392.553832,487.9175 392.106848,487.9175 L391.911293,487.9175 C391.548118,487.9175 391.240816,488.2265 391.240816,488.6185 L391.240816,488.6465 C391.240816,489.0095 391.548118,489.3185 391.911293,489.3185 L393.139501,489.3185 C394.034467,489.3185 394.956372,488.9545 395.766531,488.3655 L399.537959,485.6225 C399.984943,485.2865 400.124626,484.2775 399.537959,483.8015 C399.007166,483.4105 398.476372,483.5215 397.861769,483.9695 L393.280181,487.4695 L393.280181,487.4695 Z M397.61034,481.5345 L409.790658,481.5345 L409.790658,475.4865 L397.61034,475.4865 L397.61034,481.5345 Z M415.768073,487.4695 C416.271927,487.8335 416.49542,487.9175 416.942404,487.9175 L417.137959,487.9175 C417.500136,487.9175 417.808435,488.2265 417.808435,488.6185 L417.808435,488.6465 C417.808435,489.0095 417.500136,489.3185 417.137959,489.3185 L415.908753,489.3185 C415.013787,489.3185 414.091882,488.9545 413.282721,488.3655 L409.511293,485.6225 C409.065306,485.2865 408.924626,484.2775 409.511293,483.8015 C410.042086,483.4105 410.57288,483.5215 411.186485,483.9695 L415.768073,487.4695 L415.768073,487.4695 Z" id="Fill-12" fill="#FFFFFF"></path>
                </g>
            </g>
        </g>
    </g>
</svg>